<?xml version="1.0" encoding="utf-8" standalone="no"?>
<!DOCTYPE svg PUBLIC "-//W3C//DTD SVG 1.1//EN"
  "http://www.w3.org/Graphics/SVG/1.1/DTD/svg11.dtd">
<!-- Created with matplotlib (https://matplotlib.org/) -->
<svg height="720pt" version="1.1" viewBox="0 0 1080 720" width="1080pt" xmlns="http://www.w3.org/2000/svg" xmlns:xlink="http://www.w3.org/1999/xlink">
 <metadata>
  <rdf:RDF xmlns:cc="http://creativecommons.org/ns#" xmlns:dc="http://purl.org/dc/elements/1.1/" xmlns:rdf="http://www.w3.org/1999/02/22-rdf-syntax-ns#">
   <cc:Work>
    <dc:type rdf:resource="http://purl.org/dc/dcmitype/StillImage"/>
    <dc:date>2021-06-15T20:41:50.088380</dc:date>
    <dc:format>image/svg+xml</dc:format>
    <dc:creator>
     <cc:Agent>
      <dc:title>Matplotlib v3.3.4, https://matplotlib.org/</dc:title>
     </cc:Agent>
    </dc:creator>
   </cc:Work>
  </rdf:RDF>
 </metadata>
 <defs>
  <style type="text/css">*{stroke-linecap:butt;stroke-linejoin:round;}</style>
 </defs>
 <g id="figure_1">
  <g id="patch_1">
   <path d="M 0 720 
L 1080 720 
L 1080 0 
L 0 0 
z
" style="fill:none;"/>
  </g>
  <g id="axes_1">
   <g id="patch_2">
    <path d="M 135 630 
L 972 630 
L 972 86.4 
L 135 86.4 
z
" style="fill:#ffffff;"/>
   </g>
   <g id="matplotlib.axis_1">
    <g id="xtick_1">
     <g id="line2d_1">
      <path clip-path="url(#p6a1b5e2979)" d="M 173.045455 630 
L 173.045455 86.4 
" style="fill:none;stroke:#b0b0b0;stroke-linecap:square;stroke-width:0.8;"/>
     </g>
     <g id="line2d_2">
      <defs>
       <path d="M 0 0 
L 0 3.5 
" id="m563f03ec12" style="stroke:#000000;stroke-width:0.8;"/>
      </defs>
      <g>
       <use style="stroke:#000000;stroke-width:0.8;" x="173.045455" xlink:href="#m563f03ec12" y="630"/>
      </g>
     </g>
     <g id="text_1">
      <!-- 0 -->
      <g transform="translate(169.227955 646.118125)scale(0.12 -0.12)">
       <defs>
        <path d="M 31.78125 66.40625 
Q 24.171875 66.40625 20.328125 58.90625 
Q 16.5 51.421875 16.5 36.375 
Q 16.5 21.390625 20.328125 13.890625 
Q 24.171875 6.390625 31.78125 6.390625 
Q 39.453125 6.390625 43.28125 13.890625 
Q 47.125 21.390625 47.125 36.375 
Q 47.125 51.421875 43.28125 58.90625 
Q 39.453125 66.40625 31.78125 66.40625 
z
M 31.78125 74.21875 
Q 44.046875 74.21875 50.515625 64.515625 
Q 56.984375 54.828125 56.984375 36.375 
Q 56.984375 17.96875 50.515625 8.265625 
Q 44.046875 -1.421875 31.78125 -1.421875 
Q 19.53125 -1.421875 13.0625 8.265625 
Q 6.59375 17.96875 6.59375 36.375 
Q 6.59375 54.828125 13.0625 64.515625 
Q 19.53125 74.21875 31.78125 74.21875 
z
" id="DejaVuSans-48"/>
       </defs>
       <use xlink:href="#DejaVuSans-48"/>
      </g>
     </g>
    </g>
    <g id="xtick_2">
     <g id="line2d_3">
      <path clip-path="url(#p6a1b5e2979)" d="M 225.521944 630 
L 225.521944 86.4 
" style="fill:none;stroke:#b0b0b0;stroke-linecap:square;stroke-width:0.8;"/>
     </g>
     <g id="line2d_4">
      <g>
       <use style="stroke:#000000;stroke-width:0.8;" x="225.521944" xlink:href="#m563f03ec12" y="630"/>
      </g>
     </g>
     <g id="text_2">
      <!-- 20 -->
      <g transform="translate(217.886944 646.118125)scale(0.12 -0.12)">
       <defs>
        <path d="M 19.1875 8.296875 
L 53.609375 8.296875 
L 53.609375 0 
L 7.328125 0 
L 7.328125 8.296875 
Q 12.9375 14.109375 22.625 23.890625 
Q 32.328125 33.6875 34.8125 36.53125 
Q 39.546875 41.84375 41.421875 45.53125 
Q 43.3125 49.21875 43.3125 52.78125 
Q 43.3125 58.59375 39.234375 62.25 
Q 35.15625 65.921875 28.609375 65.921875 
Q 23.96875 65.921875 18.8125 64.3125 
Q 13.671875 62.703125 7.8125 59.421875 
L 7.8125 69.390625 
Q 13.765625 71.78125 18.9375 73 
Q 24.125 74.21875 28.421875 74.21875 
Q 39.75 74.21875 46.484375 68.546875 
Q 53.21875 62.890625 53.21875 53.421875 
Q 53.21875 48.921875 51.53125 44.890625 
Q 49.859375 40.875 45.40625 35.40625 
Q 44.1875 33.984375 37.640625 27.21875 
Q 31.109375 20.453125 19.1875 8.296875 
z
" id="DejaVuSans-50"/>
       </defs>
       <use xlink:href="#DejaVuSans-50"/>
       <use x="63.623047" xlink:href="#DejaVuSans-48"/>
      </g>
     </g>
    </g>
    <g id="xtick_3">
     <g id="line2d_5">
      <path clip-path="url(#p6a1b5e2979)" d="M 277.998433 630 
L 277.998433 86.4 
" style="fill:none;stroke:#b0b0b0;stroke-linecap:square;stroke-width:0.8;"/>
     </g>
     <g id="line2d_6">
      <g>
       <use style="stroke:#000000;stroke-width:0.8;" x="277.998433" xlink:href="#m563f03ec12" y="630"/>
      </g>
     </g>
     <g id="text_3">
      <!-- 40 -->
      <g transform="translate(270.363433 646.118125)scale(0.12 -0.12)">
       <defs>
        <path d="M 37.796875 64.3125 
L 12.890625 25.390625 
L 37.796875 25.390625 
z
M 35.203125 72.90625 
L 47.609375 72.90625 
L 47.609375 25.390625 
L 58.015625 25.390625 
L 58.015625 17.1875 
L 47.609375 17.1875 
L 47.609375 0 
L 37.796875 0 
L 37.796875 17.1875 
L 4.890625 17.1875 
L 4.890625 26.703125 
z
" id="DejaVuSans-52"/>
       </defs>
       <use xlink:href="#DejaVuSans-52"/>
       <use x="63.623047" xlink:href="#DejaVuSans-48"/>
      </g>
     </g>
    </g>
    <g id="xtick_4">
     <g id="line2d_7">
      <path clip-path="url(#p6a1b5e2979)" d="M 330.474922 630 
L 330.474922 86.4 
" style="fill:none;stroke:#b0b0b0;stroke-linecap:square;stroke-width:0.8;"/>
     </g>
     <g id="line2d_8">
      <g>
       <use style="stroke:#000000;stroke-width:0.8;" x="330.474922" xlink:href="#m563f03ec12" y="630"/>
      </g>
     </g>
     <g id="text_4">
      <!-- 60 -->
      <g transform="translate(322.839922 646.118125)scale(0.12 -0.12)">
       <defs>
        <path d="M 33.015625 40.375 
Q 26.375 40.375 22.484375 35.828125 
Q 18.609375 31.296875 18.609375 23.390625 
Q 18.609375 15.53125 22.484375 10.953125 
Q 26.375 6.390625 33.015625 6.390625 
Q 39.65625 6.390625 43.53125 10.953125 
Q 47.40625 15.53125 47.40625 23.390625 
Q 47.40625 31.296875 43.53125 35.828125 
Q 39.65625 40.375 33.015625 40.375 
z
M 52.59375 71.296875 
L 52.59375 62.3125 
Q 48.875 64.0625 45.09375 64.984375 
Q 41.3125 65.921875 37.59375 65.921875 
Q 27.828125 65.921875 22.671875 59.328125 
Q 17.53125 52.734375 16.796875 39.40625 
Q 19.671875 43.65625 24.015625 45.921875 
Q 28.375 48.1875 33.59375 48.1875 
Q 44.578125 48.1875 50.953125 41.515625 
Q 57.328125 34.859375 57.328125 23.390625 
Q 57.328125 12.15625 50.6875 5.359375 
Q 44.046875 -1.421875 33.015625 -1.421875 
Q 20.359375 -1.421875 13.671875 8.265625 
Q 6.984375 17.96875 6.984375 36.375 
Q 6.984375 53.65625 15.1875 63.9375 
Q 23.390625 74.21875 37.203125 74.21875 
Q 40.921875 74.21875 44.703125 73.484375 
Q 48.484375 72.75 52.59375 71.296875 
z
" id="DejaVuSans-54"/>
       </defs>
       <use xlink:href="#DejaVuSans-54"/>
       <use x="63.623047" xlink:href="#DejaVuSans-48"/>
      </g>
     </g>
    </g>
    <g id="xtick_5">
     <g id="line2d_9">
      <path clip-path="url(#p6a1b5e2979)" d="M 382.951411 630 
L 382.951411 86.4 
" style="fill:none;stroke:#b0b0b0;stroke-linecap:square;stroke-width:0.8;"/>
     </g>
     <g id="line2d_10">
      <g>
       <use style="stroke:#000000;stroke-width:0.8;" x="382.951411" xlink:href="#m563f03ec12" y="630"/>
      </g>
     </g>
     <g id="text_5">
      <!-- 80 -->
      <g transform="translate(375.316411 646.118125)scale(0.12 -0.12)">
       <defs>
        <path d="M 31.78125 34.625 
Q 24.75 34.625 20.71875 30.859375 
Q 16.703125 27.09375 16.703125 20.515625 
Q 16.703125 13.921875 20.71875 10.15625 
Q 24.75 6.390625 31.78125 6.390625 
Q 38.8125 6.390625 42.859375 10.171875 
Q 46.921875 13.96875 46.921875 20.515625 
Q 46.921875 27.09375 42.890625 30.859375 
Q 38.875 34.625 31.78125 34.625 
z
M 21.921875 38.8125 
Q 15.578125 40.375 12.03125 44.71875 
Q 8.5 49.078125 8.5 55.328125 
Q 8.5 64.0625 14.71875 69.140625 
Q 20.953125 74.21875 31.78125 74.21875 
Q 42.671875 74.21875 48.875 69.140625 
Q 55.078125 64.0625 55.078125 55.328125 
Q 55.078125 49.078125 51.53125 44.71875 
Q 48 40.375 41.703125 38.8125 
Q 48.828125 37.15625 52.796875 32.3125 
Q 56.78125 27.484375 56.78125 20.515625 
Q 56.78125 9.90625 50.3125 4.234375 
Q 43.84375 -1.421875 31.78125 -1.421875 
Q 19.734375 -1.421875 13.25 4.234375 
Q 6.78125 9.90625 6.78125 20.515625 
Q 6.78125 27.484375 10.78125 32.3125 
Q 14.796875 37.15625 21.921875 38.8125 
z
M 18.3125 54.390625 
Q 18.3125 48.734375 21.84375 45.5625 
Q 25.390625 42.390625 31.78125 42.390625 
Q 38.140625 42.390625 41.71875 45.5625 
Q 45.3125 48.734375 45.3125 54.390625 
Q 45.3125 60.0625 41.71875 63.234375 
Q 38.140625 66.40625 31.78125 66.40625 
Q 25.390625 66.40625 21.84375 63.234375 
Q 18.3125 60.0625 18.3125 54.390625 
z
" id="DejaVuSans-56"/>
       </defs>
       <use xlink:href="#DejaVuSans-56"/>
       <use x="63.623047" xlink:href="#DejaVuSans-48"/>
      </g>
     </g>
    </g>
    <g id="xtick_6">
     <g id="line2d_11">
      <path clip-path="url(#p6a1b5e2979)" d="M 435.4279 630 
L 435.4279 86.4 
" style="fill:none;stroke:#b0b0b0;stroke-linecap:square;stroke-width:0.8;"/>
     </g>
     <g id="line2d_12">
      <g>
       <use style="stroke:#000000;stroke-width:0.8;" x="435.4279" xlink:href="#m563f03ec12" y="630"/>
      </g>
     </g>
     <g id="text_6">
      <!-- 100 -->
      <g transform="translate(423.9754 646.118125)scale(0.12 -0.12)">
       <defs>
        <path d="M 12.40625 8.296875 
L 28.515625 8.296875 
L 28.515625 63.921875 
L 10.984375 60.40625 
L 10.984375 69.390625 
L 28.421875 72.90625 
L 38.28125 72.90625 
L 38.28125 8.296875 
L 54.390625 8.296875 
L 54.390625 0 
L 12.40625 0 
z
" id="DejaVuSans-49"/>
       </defs>
       <use xlink:href="#DejaVuSans-49"/>
       <use x="63.623047" xlink:href="#DejaVuSans-48"/>
       <use x="127.246094" xlink:href="#DejaVuSans-48"/>
      </g>
     </g>
    </g>
    <g id="xtick_7">
     <g id="line2d_13">
      <path clip-path="url(#p6a1b5e2979)" d="M 487.904389 630 
L 487.904389 86.4 
" style="fill:none;stroke:#b0b0b0;stroke-linecap:square;stroke-width:0.8;"/>
     </g>
     <g id="line2d_14">
      <g>
       <use style="stroke:#000000;stroke-width:0.8;" x="487.904389" xlink:href="#m563f03ec12" y="630"/>
      </g>
     </g>
     <g id="text_7">
      <!-- 120 -->
      <g transform="translate(476.451889 646.118125)scale(0.12 -0.12)">
       <use xlink:href="#DejaVuSans-49"/>
       <use x="63.623047" xlink:href="#DejaVuSans-50"/>
       <use x="127.246094" xlink:href="#DejaVuSans-48"/>
      </g>
     </g>
    </g>
    <g id="xtick_8">
     <g id="line2d_15">
      <path clip-path="url(#p6a1b5e2979)" d="M 540.380878 630 
L 540.380878 86.4 
" style="fill:none;stroke:#b0b0b0;stroke-linecap:square;stroke-width:0.8;"/>
     </g>
     <g id="line2d_16">
      <g>
       <use style="stroke:#000000;stroke-width:0.8;" x="540.380878" xlink:href="#m563f03ec12" y="630"/>
      </g>
     </g>
     <g id="text_8">
      <!-- 140 -->
      <g transform="translate(528.928378 646.118125)scale(0.12 -0.12)">
       <use xlink:href="#DejaVuSans-49"/>
       <use x="63.623047" xlink:href="#DejaVuSans-52"/>
       <use x="127.246094" xlink:href="#DejaVuSans-48"/>
      </g>
     </g>
    </g>
    <g id="xtick_9">
     <g id="line2d_17">
      <path clip-path="url(#p6a1b5e2979)" d="M 592.857367 630 
L 592.857367 86.4 
" style="fill:none;stroke:#b0b0b0;stroke-linecap:square;stroke-width:0.8;"/>
     </g>
     <g id="line2d_18">
      <g>
       <use style="stroke:#000000;stroke-width:0.8;" x="592.857367" xlink:href="#m563f03ec12" y="630"/>
      </g>
     </g>
     <g id="text_9">
      <!-- 160 -->
      <g transform="translate(581.404867 646.118125)scale(0.12 -0.12)">
       <use xlink:href="#DejaVuSans-49"/>
       <use x="63.623047" xlink:href="#DejaVuSans-54"/>
       <use x="127.246094" xlink:href="#DejaVuSans-48"/>
      </g>
     </g>
    </g>
    <g id="xtick_10">
     <g id="line2d_19">
      <path clip-path="url(#p6a1b5e2979)" d="M 645.333856 630 
L 645.333856 86.4 
" style="fill:none;stroke:#b0b0b0;stroke-linecap:square;stroke-width:0.8;"/>
     </g>
     <g id="line2d_20">
      <g>
       <use style="stroke:#000000;stroke-width:0.8;" x="645.333856" xlink:href="#m563f03ec12" y="630"/>
      </g>
     </g>
     <g id="text_10">
      <!-- 180 -->
      <g transform="translate(633.881356 646.118125)scale(0.12 -0.12)">
       <use xlink:href="#DejaVuSans-49"/>
       <use x="63.623047" xlink:href="#DejaVuSans-56"/>
       <use x="127.246094" xlink:href="#DejaVuSans-48"/>
      </g>
     </g>
    </g>
    <g id="xtick_11">
     <g id="line2d_21">
      <path clip-path="url(#p6a1b5e2979)" d="M 697.810345 630 
L 697.810345 86.4 
" style="fill:none;stroke:#b0b0b0;stroke-linecap:square;stroke-width:0.8;"/>
     </g>
     <g id="line2d_22">
      <g>
       <use style="stroke:#000000;stroke-width:0.8;" x="697.810345" xlink:href="#m563f03ec12" y="630"/>
      </g>
     </g>
     <g id="text_11">
      <!-- 200 -->
      <g transform="translate(686.357845 646.118125)scale(0.12 -0.12)">
       <use xlink:href="#DejaVuSans-50"/>
       <use x="63.623047" xlink:href="#DejaVuSans-48"/>
       <use x="127.246094" xlink:href="#DejaVuSans-48"/>
      </g>
     </g>
    </g>
    <g id="xtick_12">
     <g id="line2d_23">
      <path clip-path="url(#p6a1b5e2979)" d="M 750.286834 630 
L 750.286834 86.4 
" style="fill:none;stroke:#b0b0b0;stroke-linecap:square;stroke-width:0.8;"/>
     </g>
     <g id="line2d_24">
      <g>
       <use style="stroke:#000000;stroke-width:0.8;" x="750.286834" xlink:href="#m563f03ec12" y="630"/>
      </g>
     </g>
     <g id="text_12">
      <!-- 220 -->
      <g transform="translate(738.834334 646.118125)scale(0.12 -0.12)">
       <use xlink:href="#DejaVuSans-50"/>
       <use x="63.623047" xlink:href="#DejaVuSans-50"/>
       <use x="127.246094" xlink:href="#DejaVuSans-48"/>
      </g>
     </g>
    </g>
    <g id="xtick_13">
     <g id="line2d_25">
      <path clip-path="url(#p6a1b5e2979)" d="M 802.763323 630 
L 802.763323 86.4 
" style="fill:none;stroke:#b0b0b0;stroke-linecap:square;stroke-width:0.8;"/>
     </g>
     <g id="line2d_26">
      <g>
       <use style="stroke:#000000;stroke-width:0.8;" x="802.763323" xlink:href="#m563f03ec12" y="630"/>
      </g>
     </g>
     <g id="text_13">
      <!-- 240 -->
      <g transform="translate(791.310823 646.118125)scale(0.12 -0.12)">
       <use xlink:href="#DejaVuSans-50"/>
       <use x="63.623047" xlink:href="#DejaVuSans-52"/>
       <use x="127.246094" xlink:href="#DejaVuSans-48"/>
      </g>
     </g>
    </g>
    <g id="xtick_14">
     <g id="line2d_27">
      <path clip-path="url(#p6a1b5e2979)" d="M 855.239812 630 
L 855.239812 86.4 
" style="fill:none;stroke:#b0b0b0;stroke-linecap:square;stroke-width:0.8;"/>
     </g>
     <g id="line2d_28">
      <g>
       <use style="stroke:#000000;stroke-width:0.8;" x="855.239812" xlink:href="#m563f03ec12" y="630"/>
      </g>
     </g>
     <g id="text_14">
      <!-- 260 -->
      <g transform="translate(843.787312 646.118125)scale(0.12 -0.12)">
       <use xlink:href="#DejaVuSans-50"/>
       <use x="63.623047" xlink:href="#DejaVuSans-54"/>
       <use x="127.246094" xlink:href="#DejaVuSans-48"/>
      </g>
     </g>
    </g>
    <g id="xtick_15">
     <g id="line2d_29">
      <path clip-path="url(#p6a1b5e2979)" d="M 907.716301 630 
L 907.716301 86.4 
" style="fill:none;stroke:#b0b0b0;stroke-linecap:square;stroke-width:0.8;"/>
     </g>
     <g id="line2d_30">
      <g>
       <use style="stroke:#000000;stroke-width:0.8;" x="907.716301" xlink:href="#m563f03ec12" y="630"/>
      </g>
     </g>
     <g id="text_15">
      <!-- 280 -->
      <g transform="translate(896.263801 646.118125)scale(0.12 -0.12)">
       <use xlink:href="#DejaVuSans-50"/>
       <use x="63.623047" xlink:href="#DejaVuSans-56"/>
       <use x="127.246094" xlink:href="#DejaVuSans-48"/>
      </g>
     </g>
    </g>
    <g id="xtick_16">
     <g id="line2d_31">
      <path clip-path="url(#p6a1b5e2979)" d="M 960.19279 630 
L 960.19279 86.4 
" style="fill:none;stroke:#b0b0b0;stroke-linecap:square;stroke-width:0.8;"/>
     </g>
     <g id="line2d_32">
      <g>
       <use style="stroke:#000000;stroke-width:0.8;" x="960.19279" xlink:href="#m563f03ec12" y="630"/>
      </g>
     </g>
     <g id="text_16">
      <!-- 300 -->
      <g transform="translate(948.74029 646.118125)scale(0.12 -0.12)">
       <defs>
        <path d="M 40.578125 39.3125 
Q 47.65625 37.796875 51.625 33 
Q 55.609375 28.21875 55.609375 21.1875 
Q 55.609375 10.40625 48.1875 4.484375 
Q 40.765625 -1.421875 27.09375 -1.421875 
Q 22.515625 -1.421875 17.65625 -0.515625 
Q 12.796875 0.390625 7.625 2.203125 
L 7.625 11.71875 
Q 11.71875 9.328125 16.59375 8.109375 
Q 21.484375 6.890625 26.8125 6.890625 
Q 36.078125 6.890625 40.9375 10.546875 
Q 45.796875 14.203125 45.796875 21.1875 
Q 45.796875 27.640625 41.28125 31.265625 
Q 36.765625 34.90625 28.71875 34.90625 
L 20.21875 34.90625 
L 20.21875 43.015625 
L 29.109375 43.015625 
Q 36.375 43.015625 40.234375 45.921875 
Q 44.09375 48.828125 44.09375 54.296875 
Q 44.09375 59.90625 40.109375 62.90625 
Q 36.140625 65.921875 28.71875 65.921875 
Q 24.65625 65.921875 20.015625 65.03125 
Q 15.375 64.15625 9.8125 62.3125 
L 9.8125 71.09375 
Q 15.4375 72.65625 20.34375 73.4375 
Q 25.25 74.21875 29.59375 74.21875 
Q 40.828125 74.21875 47.359375 69.109375 
Q 53.90625 64.015625 53.90625 55.328125 
Q 53.90625 49.265625 50.4375 45.09375 
Q 46.96875 40.921875 40.578125 39.3125 
z
" id="DejaVuSans-51"/>
       </defs>
       <use xlink:href="#DejaVuSans-51"/>
       <use x="63.623047" xlink:href="#DejaVuSans-48"/>
       <use x="127.246094" xlink:href="#DejaVuSans-48"/>
      </g>
     </g>
    </g>
    <g id="xtick_17">
     <g id="line2d_33">
      <defs>
       <path d="M 0 0 
L 0 2 
" id="m8a9c3325bd" style="stroke:#000000;stroke-width:0.6;"/>
      </defs>
      <g>
       <use style="stroke:#000000;stroke-width:0.6;" x="146.80721" xlink:href="#m8a9c3325bd" y="630"/>
      </g>
     </g>
    </g>
    <g id="xtick_18">
     <g id="line2d_34">
      <g>
       <use style="stroke:#000000;stroke-width:0.6;" x="159.926332" xlink:href="#m8a9c3325bd" y="630"/>
      </g>
     </g>
    </g>
    <g id="xtick_19">
     <g id="line2d_35">
      <g>
       <use style="stroke:#000000;stroke-width:0.6;" x="186.164577" xlink:href="#m8a9c3325bd" y="630"/>
      </g>
     </g>
    </g>
    <g id="xtick_20">
     <g id="line2d_36">
      <g>
       <use style="stroke:#000000;stroke-width:0.6;" x="199.283699" xlink:href="#m8a9c3325bd" y="630"/>
      </g>
     </g>
    </g>
    <g id="xtick_21">
     <g id="line2d_37">
      <g>
       <use style="stroke:#000000;stroke-width:0.6;" x="212.402821" xlink:href="#m8a9c3325bd" y="630"/>
      </g>
     </g>
    </g>
    <g id="xtick_22">
     <g id="line2d_38">
      <g>
       <use style="stroke:#000000;stroke-width:0.6;" x="238.641066" xlink:href="#m8a9c3325bd" y="630"/>
      </g>
     </g>
    </g>
    <g id="xtick_23">
     <g id="line2d_39">
      <g>
       <use style="stroke:#000000;stroke-width:0.6;" x="251.760188" xlink:href="#m8a9c3325bd" y="630"/>
      </g>
     </g>
    </g>
    <g id="xtick_24">
     <g id="line2d_40">
      <g>
       <use style="stroke:#000000;stroke-width:0.6;" x="264.87931" xlink:href="#m8a9c3325bd" y="630"/>
      </g>
     </g>
    </g>
    <g id="xtick_25">
     <g id="line2d_41">
      <g>
       <use style="stroke:#000000;stroke-width:0.6;" x="291.117555" xlink:href="#m8a9c3325bd" y="630"/>
      </g>
     </g>
    </g>
    <g id="xtick_26">
     <g id="line2d_42">
      <g>
       <use style="stroke:#000000;stroke-width:0.6;" x="304.236677" xlink:href="#m8a9c3325bd" y="630"/>
      </g>
     </g>
    </g>
    <g id="xtick_27">
     <g id="line2d_43">
      <g>
       <use style="stroke:#000000;stroke-width:0.6;" x="317.355799" xlink:href="#m8a9c3325bd" y="630"/>
      </g>
     </g>
    </g>
    <g id="xtick_28">
     <g id="line2d_44">
      <g>
       <use style="stroke:#000000;stroke-width:0.6;" x="343.594044" xlink:href="#m8a9c3325bd" y="630"/>
      </g>
     </g>
    </g>
    <g id="xtick_29">
     <g id="line2d_45">
      <g>
       <use style="stroke:#000000;stroke-width:0.6;" x="356.713166" xlink:href="#m8a9c3325bd" y="630"/>
      </g>
     </g>
    </g>
    <g id="xtick_30">
     <g id="line2d_46">
      <g>
       <use style="stroke:#000000;stroke-width:0.6;" x="369.832288" xlink:href="#m8a9c3325bd" y="630"/>
      </g>
     </g>
    </g>
    <g id="xtick_31">
     <g id="line2d_47">
      <g>
       <use style="stroke:#000000;stroke-width:0.6;" x="396.070533" xlink:href="#m8a9c3325bd" y="630"/>
      </g>
     </g>
    </g>
    <g id="xtick_32">
     <g id="line2d_48">
      <g>
       <use style="stroke:#000000;stroke-width:0.6;" x="409.189655" xlink:href="#m8a9c3325bd" y="630"/>
      </g>
     </g>
    </g>
    <g id="xtick_33">
     <g id="line2d_49">
      <g>
       <use style="stroke:#000000;stroke-width:0.6;" x="422.308777" xlink:href="#m8a9c3325bd" y="630"/>
      </g>
     </g>
    </g>
    <g id="xtick_34">
     <g id="line2d_50">
      <g>
       <use style="stroke:#000000;stroke-width:0.6;" x="448.547022" xlink:href="#m8a9c3325bd" y="630"/>
      </g>
     </g>
    </g>
    <g id="xtick_35">
     <g id="line2d_51">
      <g>
       <use style="stroke:#000000;stroke-width:0.6;" x="461.666144" xlink:href="#m8a9c3325bd" y="630"/>
      </g>
     </g>
    </g>
    <g id="xtick_36">
     <g id="line2d_52">
      <g>
       <use style="stroke:#000000;stroke-width:0.6;" x="474.785266" xlink:href="#m8a9c3325bd" y="630"/>
      </g>
     </g>
    </g>
    <g id="xtick_37">
     <g id="line2d_53">
      <g>
       <use style="stroke:#000000;stroke-width:0.6;" x="501.023511" xlink:href="#m8a9c3325bd" y="630"/>
      </g>
     </g>
    </g>
    <g id="xtick_38">
     <g id="line2d_54">
      <g>
       <use style="stroke:#000000;stroke-width:0.6;" x="514.142633" xlink:href="#m8a9c3325bd" y="630"/>
      </g>
     </g>
    </g>
    <g id="xtick_39">
     <g id="line2d_55">
      <g>
       <use style="stroke:#000000;stroke-width:0.6;" x="527.261755" xlink:href="#m8a9c3325bd" y="630"/>
      </g>
     </g>
    </g>
    <g id="xtick_40">
     <g id="line2d_56">
      <g>
       <use style="stroke:#000000;stroke-width:0.6;" x="553.5" xlink:href="#m8a9c3325bd" y="630"/>
      </g>
     </g>
    </g>
    <g id="xtick_41">
     <g id="line2d_57">
      <g>
       <use style="stroke:#000000;stroke-width:0.6;" x="566.619122" xlink:href="#m8a9c3325bd" y="630"/>
      </g>
     </g>
    </g>
    <g id="xtick_42">
     <g id="line2d_58">
      <g>
       <use style="stroke:#000000;stroke-width:0.6;" x="579.738245" xlink:href="#m8a9c3325bd" y="630"/>
      </g>
     </g>
    </g>
    <g id="xtick_43">
     <g id="line2d_59">
      <g>
       <use style="stroke:#000000;stroke-width:0.6;" x="605.976489" xlink:href="#m8a9c3325bd" y="630"/>
      </g>
     </g>
    </g>
    <g id="xtick_44">
     <g id="line2d_60">
      <g>
       <use style="stroke:#000000;stroke-width:0.6;" x="619.095611" xlink:href="#m8a9c3325bd" y="630"/>
      </g>
     </g>
    </g>
    <g id="xtick_45">
     <g id="line2d_61">
      <g>
       <use style="stroke:#000000;stroke-width:0.6;" x="632.214734" xlink:href="#m8a9c3325bd" y="630"/>
      </g>
     </g>
    </g>
    <g id="xtick_46">
     <g id="line2d_62">
      <g>
       <use style="stroke:#000000;stroke-width:0.6;" x="658.452978" xlink:href="#m8a9c3325bd" y="630"/>
      </g>
     </g>
    </g>
    <g id="xtick_47">
     <g id="line2d_63">
      <g>
       <use style="stroke:#000000;stroke-width:0.6;" x="671.5721" xlink:href="#m8a9c3325bd" y="630"/>
      </g>
     </g>
    </g>
    <g id="xtick_48">
     <g id="line2d_64">
      <g>
       <use style="stroke:#000000;stroke-width:0.6;" x="684.691223" xlink:href="#m8a9c3325bd" y="630"/>
      </g>
     </g>
    </g>
    <g id="xtick_49">
     <g id="line2d_65">
      <g>
       <use style="stroke:#000000;stroke-width:0.6;" x="710.929467" xlink:href="#m8a9c3325bd" y="630"/>
      </g>
     </g>
    </g>
    <g id="xtick_50">
     <g id="line2d_66">
      <g>
       <use style="stroke:#000000;stroke-width:0.6;" x="724.048589" xlink:href="#m8a9c3325bd" y="630"/>
      </g>
     </g>
    </g>
    <g id="xtick_51">
     <g id="line2d_67">
      <g>
       <use style="stroke:#000000;stroke-width:0.6;" x="737.167712" xlink:href="#m8a9c3325bd" y="630"/>
      </g>
     </g>
    </g>
    <g id="xtick_52">
     <g id="line2d_68">
      <g>
       <use style="stroke:#000000;stroke-width:0.6;" x="763.405956" xlink:href="#m8a9c3325bd" y="630"/>
      </g>
     </g>
    </g>
    <g id="xtick_53">
     <g id="line2d_69">
      <g>
       <use style="stroke:#000000;stroke-width:0.6;" x="776.525078" xlink:href="#m8a9c3325bd" y="630"/>
      </g>
     </g>
    </g>
    <g id="xtick_54">
     <g id="line2d_70">
      <g>
       <use style="stroke:#000000;stroke-width:0.6;" x="789.644201" xlink:href="#m8a9c3325bd" y="630"/>
      </g>
     </g>
    </g>
    <g id="xtick_55">
     <g id="line2d_71">
      <g>
       <use style="stroke:#000000;stroke-width:0.6;" x="815.882445" xlink:href="#m8a9c3325bd" y="630"/>
      </g>
     </g>
    </g>
    <g id="xtick_56">
     <g id="line2d_72">
      <g>
       <use style="stroke:#000000;stroke-width:0.6;" x="829.001567" xlink:href="#m8a9c3325bd" y="630"/>
      </g>
     </g>
    </g>
    <g id="xtick_57">
     <g id="line2d_73">
      <g>
       <use style="stroke:#000000;stroke-width:0.6;" x="842.12069" xlink:href="#m8a9c3325bd" y="630"/>
      </g>
     </g>
    </g>
    <g id="xtick_58">
     <g id="line2d_74">
      <g>
       <use style="stroke:#000000;stroke-width:0.6;" x="868.358934" xlink:href="#m8a9c3325bd" y="630"/>
      </g>
     </g>
    </g>
    <g id="xtick_59">
     <g id="line2d_75">
      <g>
       <use style="stroke:#000000;stroke-width:0.6;" x="881.478056" xlink:href="#m8a9c3325bd" y="630"/>
      </g>
     </g>
    </g>
    <g id="xtick_60">
     <g id="line2d_76">
      <g>
       <use style="stroke:#000000;stroke-width:0.6;" x="894.597179" xlink:href="#m8a9c3325bd" y="630"/>
      </g>
     </g>
    </g>
    <g id="xtick_61">
     <g id="line2d_77">
      <g>
       <use style="stroke:#000000;stroke-width:0.6;" x="920.835423" xlink:href="#m8a9c3325bd" y="630"/>
      </g>
     </g>
    </g>
    <g id="xtick_62">
     <g id="line2d_78">
      <g>
       <use style="stroke:#000000;stroke-width:0.6;" x="933.954545" xlink:href="#m8a9c3325bd" y="630"/>
      </g>
     </g>
    </g>
    <g id="xtick_63">
     <g id="line2d_79">
      <g>
       <use style="stroke:#000000;stroke-width:0.6;" x="947.073668" xlink:href="#m8a9c3325bd" y="630"/>
      </g>
     </g>
    </g>
    <g id="text_17">
     <!-- Epochs -->
     <g transform="translate(528.418125 663.251562)scale(0.14 -0.14)">
      <defs>
       <path d="M 9.8125 72.90625 
L 55.90625 72.90625 
L 55.90625 64.59375 
L 19.671875 64.59375 
L 19.671875 43.015625 
L 54.390625 43.015625 
L 54.390625 34.71875 
L 19.671875 34.71875 
L 19.671875 8.296875 
L 56.78125 8.296875 
L 56.78125 0 
L 9.8125 0 
z
" id="DejaVuSans-69"/>
       <path d="M 18.109375 8.203125 
L 18.109375 -20.796875 
L 9.078125 -20.796875 
L 9.078125 54.6875 
L 18.109375 54.6875 
L 18.109375 46.390625 
Q 20.953125 51.265625 25.265625 53.625 
Q 29.59375 56 35.59375 56 
Q 45.5625 56 51.78125 48.09375 
Q 58.015625 40.1875 58.015625 27.296875 
Q 58.015625 14.40625 51.78125 6.484375 
Q 45.5625 -1.421875 35.59375 -1.421875 
Q 29.59375 -1.421875 25.265625 0.953125 
Q 20.953125 3.328125 18.109375 8.203125 
z
M 48.6875 27.296875 
Q 48.6875 37.203125 44.609375 42.84375 
Q 40.53125 48.484375 33.40625 48.484375 
Q 26.265625 48.484375 22.1875 42.84375 
Q 18.109375 37.203125 18.109375 27.296875 
Q 18.109375 17.390625 22.1875 11.75 
Q 26.265625 6.109375 33.40625 6.109375 
Q 40.53125 6.109375 44.609375 11.75 
Q 48.6875 17.390625 48.6875 27.296875 
z
" id="DejaVuSans-112"/>
       <path d="M 30.609375 48.390625 
Q 23.390625 48.390625 19.1875 42.75 
Q 14.984375 37.109375 14.984375 27.296875 
Q 14.984375 17.484375 19.15625 11.84375 
Q 23.34375 6.203125 30.609375 6.203125 
Q 37.796875 6.203125 41.984375 11.859375 
Q 46.1875 17.53125 46.1875 27.296875 
Q 46.1875 37.015625 41.984375 42.703125 
Q 37.796875 48.390625 30.609375 48.390625 
z
M 30.609375 56 
Q 42.328125 56 49.015625 48.375 
Q 55.71875 40.765625 55.71875 27.296875 
Q 55.71875 13.875 49.015625 6.21875 
Q 42.328125 -1.421875 30.609375 -1.421875 
Q 18.84375 -1.421875 12.171875 6.21875 
Q 5.515625 13.875 5.515625 27.296875 
Q 5.515625 40.765625 12.171875 48.375 
Q 18.84375 56 30.609375 56 
z
" id="DejaVuSans-111"/>
       <path d="M 48.78125 52.59375 
L 48.78125 44.1875 
Q 44.96875 46.296875 41.140625 47.34375 
Q 37.3125 48.390625 33.40625 48.390625 
Q 24.65625 48.390625 19.8125 42.84375 
Q 14.984375 37.3125 14.984375 27.296875 
Q 14.984375 17.28125 19.8125 11.734375 
Q 24.65625 6.203125 33.40625 6.203125 
Q 37.3125 6.203125 41.140625 7.25 
Q 44.96875 8.296875 48.78125 10.40625 
L 48.78125 2.09375 
Q 45.015625 0.34375 40.984375 -0.53125 
Q 36.96875 -1.421875 32.421875 -1.421875 
Q 20.0625 -1.421875 12.78125 6.34375 
Q 5.515625 14.109375 5.515625 27.296875 
Q 5.515625 40.671875 12.859375 48.328125 
Q 20.21875 56 33.015625 56 
Q 37.15625 56 41.109375 55.140625 
Q 45.0625 54.296875 48.78125 52.59375 
z
" id="DejaVuSans-99"/>
       <path d="M 54.890625 33.015625 
L 54.890625 0 
L 45.90625 0 
L 45.90625 32.71875 
Q 45.90625 40.484375 42.875 44.328125 
Q 39.84375 48.1875 33.796875 48.1875 
Q 26.515625 48.1875 22.3125 43.546875 
Q 18.109375 38.921875 18.109375 30.90625 
L 18.109375 0 
L 9.078125 0 
L 9.078125 75.984375 
L 18.109375 75.984375 
L 18.109375 46.1875 
Q 21.34375 51.125 25.703125 53.5625 
Q 30.078125 56 35.796875 56 
Q 45.21875 56 50.046875 50.171875 
Q 54.890625 44.34375 54.890625 33.015625 
z
" id="DejaVuSans-104"/>
       <path d="M 44.28125 53.078125 
L 44.28125 44.578125 
Q 40.484375 46.53125 36.375 47.5 
Q 32.28125 48.484375 27.875 48.484375 
Q 21.1875 48.484375 17.84375 46.4375 
Q 14.5 44.390625 14.5 40.28125 
Q 14.5 37.15625 16.890625 35.375 
Q 19.28125 33.59375 26.515625 31.984375 
L 29.59375 31.296875 
Q 39.15625 29.25 43.1875 25.515625 
Q 47.21875 21.78125 47.21875 15.09375 
Q 47.21875 7.46875 41.1875 3.015625 
Q 35.15625 -1.421875 24.609375 -1.421875 
Q 20.21875 -1.421875 15.453125 -0.5625 
Q 10.6875 0.296875 5.421875 2 
L 5.421875 11.28125 
Q 10.40625 8.6875 15.234375 7.390625 
Q 20.0625 6.109375 24.8125 6.109375 
Q 31.15625 6.109375 34.5625 8.28125 
Q 37.984375 10.453125 37.984375 14.40625 
Q 37.984375 18.0625 35.515625 20.015625 
Q 33.0625 21.96875 24.703125 23.78125 
L 21.578125 24.515625 
Q 13.234375 26.265625 9.515625 29.90625 
Q 5.8125 33.546875 5.8125 39.890625 
Q 5.8125 47.609375 11.28125 51.796875 
Q 16.75 56 26.8125 56 
Q 31.78125 56 36.171875 55.265625 
Q 40.578125 54.546875 44.28125 53.078125 
z
" id="DejaVuSans-115"/>
      </defs>
      <use xlink:href="#DejaVuSans-69"/>
      <use x="63.183594" xlink:href="#DejaVuSans-112"/>
      <use x="126.660156" xlink:href="#DejaVuSans-111"/>
      <use x="187.841797" xlink:href="#DejaVuSans-99"/>
      <use x="242.822266" xlink:href="#DejaVuSans-104"/>
      <use x="306.201172" xlink:href="#DejaVuSans-115"/>
     </g>
    </g>
   </g>
   <g id="matplotlib.axis_2">
    <g id="ytick_1">
     <g id="line2d_80">
      <path clip-path="url(#p6a1b5e2979)" d="M 135 605.22086 
L 972 605.22086 
" style="fill:none;stroke:#b0b0b0;stroke-linecap:square;stroke-width:0.8;"/>
     </g>
     <g id="line2d_81">
      <defs>
       <path d="M 0 0 
L -3.5 0 
" id="m572e1e37bb" style="stroke:#000000;stroke-width:0.8;"/>
      </defs>
      <g>
       <use style="stroke:#000000;stroke-width:0.8;" x="135" xlink:href="#m572e1e37bb" y="605.22086"/>
      </g>
     </g>
     <g id="text_18">
      <!-- 0.5 -->
      <g transform="translate(108.91625 609.779923)scale(0.12 -0.12)">
       <defs>
        <path d="M 10.6875 12.40625 
L 21 12.40625 
L 21 0 
L 10.6875 0 
z
" id="DejaVuSans-46"/>
        <path d="M 10.796875 72.90625 
L 49.515625 72.90625 
L 49.515625 64.59375 
L 19.828125 64.59375 
L 19.828125 46.734375 
Q 21.96875 47.46875 24.109375 47.828125 
Q 26.265625 48.1875 28.421875 48.1875 
Q 40.625 48.1875 47.75 41.5 
Q 54.890625 34.8125 54.890625 23.390625 
Q 54.890625 11.625 47.5625 5.09375 
Q 40.234375 -1.421875 26.90625 -1.421875 
Q 22.3125 -1.421875 17.546875 -0.640625 
Q 12.796875 0.140625 7.71875 1.703125 
L 7.71875 11.625 
Q 12.109375 9.234375 16.796875 8.0625 
Q 21.484375 6.890625 26.703125 6.890625 
Q 35.15625 6.890625 40.078125 11.328125 
Q 45.015625 15.765625 45.015625 23.390625 
Q 45.015625 31 40.078125 35.4375 
Q 35.15625 39.890625 26.703125 39.890625 
Q 22.75 39.890625 18.8125 39.015625 
Q 14.890625 38.140625 10.796875 36.28125 
z
" id="DejaVuSans-53"/>
       </defs>
       <use xlink:href="#DejaVuSans-48"/>
       <use x="63.623047" xlink:href="#DejaVuSans-46"/>
       <use x="95.410156" xlink:href="#DejaVuSans-53"/>
      </g>
     </g>
    </g>
    <g id="ytick_2">
     <g id="line2d_82">
      <path clip-path="url(#p6a1b5e2979)" d="M 135 499.629936 
L 972 499.629936 
" style="fill:none;stroke:#b0b0b0;stroke-linecap:square;stroke-width:0.8;"/>
     </g>
     <g id="line2d_83">
      <g>
       <use style="stroke:#000000;stroke-width:0.8;" x="135" xlink:href="#m572e1e37bb" y="499.629936"/>
      </g>
     </g>
     <g id="text_19">
      <!-- 0.6 -->
      <g transform="translate(108.91625 504.188999)scale(0.12 -0.12)">
       <use xlink:href="#DejaVuSans-48"/>
       <use x="63.623047" xlink:href="#DejaVuSans-46"/>
       <use x="95.410156" xlink:href="#DejaVuSans-54"/>
      </g>
     </g>
    </g>
    <g id="ytick_3">
     <g id="line2d_84">
      <path clip-path="url(#p6a1b5e2979)" d="M 135 394.039013 
L 972 394.039013 
" style="fill:none;stroke:#b0b0b0;stroke-linecap:square;stroke-width:0.8;"/>
     </g>
     <g id="line2d_85">
      <g>
       <use style="stroke:#000000;stroke-width:0.8;" x="135" xlink:href="#m572e1e37bb" y="394.039013"/>
      </g>
     </g>
     <g id="text_20">
      <!-- 0.7 -->
      <g transform="translate(108.91625 398.598075)scale(0.12 -0.12)">
       <defs>
        <path d="M 8.203125 72.90625 
L 55.078125 72.90625 
L 55.078125 68.703125 
L 28.609375 0 
L 18.3125 0 
L 43.21875 64.59375 
L 8.203125 64.59375 
z
" id="DejaVuSans-55"/>
       </defs>
       <use xlink:href="#DejaVuSans-48"/>
       <use x="63.623047" xlink:href="#DejaVuSans-46"/>
       <use x="95.410156" xlink:href="#DejaVuSans-55"/>
      </g>
     </g>
    </g>
    <g id="ytick_4">
     <g id="line2d_86">
      <path clip-path="url(#p6a1b5e2979)" d="M 135 288.448089 
L 972 288.448089 
" style="fill:none;stroke:#b0b0b0;stroke-linecap:square;stroke-width:0.8;"/>
     </g>
     <g id="line2d_87">
      <g>
       <use style="stroke:#000000;stroke-width:0.8;" x="135" xlink:href="#m572e1e37bb" y="288.448089"/>
      </g>
     </g>
     <g id="text_21">
      <!-- 0.8 -->
      <g transform="translate(108.91625 293.007151)scale(0.12 -0.12)">
       <use xlink:href="#DejaVuSans-48"/>
       <use x="63.623047" xlink:href="#DejaVuSans-46"/>
       <use x="95.410156" xlink:href="#DejaVuSans-56"/>
      </g>
     </g>
    </g>
    <g id="ytick_5">
     <g id="line2d_88">
      <path clip-path="url(#p6a1b5e2979)" d="M 135 182.857165 
L 972 182.857165 
" style="fill:none;stroke:#b0b0b0;stroke-linecap:square;stroke-width:0.8;"/>
     </g>
     <g id="line2d_89">
      <g>
       <use style="stroke:#000000;stroke-width:0.8;" x="135" xlink:href="#m572e1e37bb" y="182.857165"/>
      </g>
     </g>
     <g id="text_22">
      <!-- 0.9 -->
      <g transform="translate(108.91625 187.416228)scale(0.12 -0.12)">
       <defs>
        <path d="M 10.984375 1.515625 
L 10.984375 10.5 
Q 14.703125 8.734375 18.5 7.8125 
Q 22.3125 6.890625 25.984375 6.890625 
Q 35.75 6.890625 40.890625 13.453125 
Q 46.046875 20.015625 46.78125 33.40625 
Q 43.953125 29.203125 39.59375 26.953125 
Q 35.25 24.703125 29.984375 24.703125 
Q 19.046875 24.703125 12.671875 31.3125 
Q 6.296875 37.9375 6.296875 49.421875 
Q 6.296875 60.640625 12.9375 67.421875 
Q 19.578125 74.21875 30.609375 74.21875 
Q 43.265625 74.21875 49.921875 64.515625 
Q 56.59375 54.828125 56.59375 36.375 
Q 56.59375 19.140625 48.40625 8.859375 
Q 40.234375 -1.421875 26.421875 -1.421875 
Q 22.703125 -1.421875 18.890625 -0.6875 
Q 15.09375 0.046875 10.984375 1.515625 
z
M 30.609375 32.421875 
Q 37.25 32.421875 41.125 36.953125 
Q 45.015625 41.5 45.015625 49.421875 
Q 45.015625 57.28125 41.125 61.84375 
Q 37.25 66.40625 30.609375 66.40625 
Q 23.96875 66.40625 20.09375 61.84375 
Q 16.21875 57.28125 16.21875 49.421875 
Q 16.21875 41.5 20.09375 36.953125 
Q 23.96875 32.421875 30.609375 32.421875 
z
" id="DejaVuSans-57"/>
       </defs>
       <use xlink:href="#DejaVuSans-48"/>
       <use x="63.623047" xlink:href="#DejaVuSans-46"/>
       <use x="95.410156" xlink:href="#DejaVuSans-57"/>
      </g>
     </g>
    </g>
    <g id="ytick_6">
     <g id="line2d_90">
      <defs>
       <path d="M 0 0 
L -2 0 
" id="mb40244aef5" style="stroke:#000000;stroke-width:0.6;"/>
      </defs>
      <g>
       <use style="stroke:#000000;stroke-width:0.6;" x="135" xlink:href="#mb40244aef5" y="626.339045"/>
      </g>
     </g>
    </g>
    <g id="ytick_7">
     <g id="line2d_91">
      <g>
       <use style="stroke:#000000;stroke-width:0.6;" x="135" xlink:href="#mb40244aef5" y="584.102675"/>
      </g>
     </g>
    </g>
    <g id="ytick_8">
     <g id="line2d_92">
      <g>
       <use style="stroke:#000000;stroke-width:0.6;" x="135" xlink:href="#mb40244aef5" y="562.984491"/>
      </g>
     </g>
    </g>
    <g id="ytick_9">
     <g id="line2d_93">
      <g>
       <use style="stroke:#000000;stroke-width:0.6;" x="135" xlink:href="#mb40244aef5" y="541.866306"/>
      </g>
     </g>
    </g>
    <g id="ytick_10">
     <g id="line2d_94">
      <g>
       <use style="stroke:#000000;stroke-width:0.6;" x="135" xlink:href="#mb40244aef5" y="520.748121"/>
      </g>
     </g>
    </g>
    <g id="ytick_11">
     <g id="line2d_95">
      <g>
       <use style="stroke:#000000;stroke-width:0.6;" x="135" xlink:href="#mb40244aef5" y="478.511752"/>
      </g>
     </g>
    </g>
    <g id="ytick_12">
     <g id="line2d_96">
      <g>
       <use style="stroke:#000000;stroke-width:0.6;" x="135" xlink:href="#mb40244aef5" y="457.393567"/>
      </g>
     </g>
    </g>
    <g id="ytick_13">
     <g id="line2d_97">
      <g>
       <use style="stroke:#000000;stroke-width:0.6;" x="135" xlink:href="#mb40244aef5" y="436.275382"/>
      </g>
     </g>
    </g>
    <g id="ytick_14">
     <g id="line2d_98">
      <g>
       <use style="stroke:#000000;stroke-width:0.6;" x="135" xlink:href="#mb40244aef5" y="415.157197"/>
      </g>
     </g>
    </g>
    <g id="ytick_15">
     <g id="line2d_99">
      <g>
       <use style="stroke:#000000;stroke-width:0.6;" x="135" xlink:href="#mb40244aef5" y="372.920828"/>
      </g>
     </g>
    </g>
    <g id="ytick_16">
     <g id="line2d_100">
      <g>
       <use style="stroke:#000000;stroke-width:0.6;" x="135" xlink:href="#mb40244aef5" y="351.802643"/>
      </g>
     </g>
    </g>
    <g id="ytick_17">
     <g id="line2d_101">
      <g>
       <use style="stroke:#000000;stroke-width:0.6;" x="135" xlink:href="#mb40244aef5" y="330.684458"/>
      </g>
     </g>
    </g>
    <g id="ytick_18">
     <g id="line2d_102">
      <g>
       <use style="stroke:#000000;stroke-width:0.6;" x="135" xlink:href="#mb40244aef5" y="309.566274"/>
      </g>
     </g>
    </g>
    <g id="ytick_19">
     <g id="line2d_103">
      <g>
       <use style="stroke:#000000;stroke-width:0.6;" x="135" xlink:href="#mb40244aef5" y="267.329904"/>
      </g>
     </g>
    </g>
    <g id="ytick_20">
     <g id="line2d_104">
      <g>
       <use style="stroke:#000000;stroke-width:0.6;" x="135" xlink:href="#mb40244aef5" y="246.211719"/>
      </g>
     </g>
    </g>
    <g id="ytick_21">
     <g id="line2d_105">
      <g>
       <use style="stroke:#000000;stroke-width:0.6;" x="135" xlink:href="#mb40244aef5" y="225.093535"/>
      </g>
     </g>
    </g>
    <g id="ytick_22">
     <g id="line2d_106">
      <g>
       <use style="stroke:#000000;stroke-width:0.6;" x="135" xlink:href="#mb40244aef5" y="203.97535"/>
      </g>
     </g>
    </g>
    <g id="ytick_23">
     <g id="line2d_107">
      <g>
       <use style="stroke:#000000;stroke-width:0.6;" x="135" xlink:href="#mb40244aef5" y="161.73898"/>
      </g>
     </g>
    </g>
    <g id="ytick_24">
     <g id="line2d_108">
      <g>
       <use style="stroke:#000000;stroke-width:0.6;" x="135" xlink:href="#mb40244aef5" y="140.620796"/>
      </g>
     </g>
    </g>
    <g id="ytick_25">
     <g id="line2d_109">
      <g>
       <use style="stroke:#000000;stroke-width:0.6;" x="135" xlink:href="#mb40244aef5" y="119.502611"/>
      </g>
     </g>
    </g>
    <g id="ytick_26">
     <g id="line2d_110">
      <g>
       <use style="stroke:#000000;stroke-width:0.6;" x="135" xlink:href="#mb40244aef5" y="98.384426"/>
      </g>
     </g>
    </g>
   </g>
   <g id="LineCollection_1">
    <path clip-path="url(#p6a1b5e2979)" d="M 173.045455 462.943312 
L 933.954545 462.943312 
" style="fill:none;stroke:#008000;stroke-dasharray:3.7,1.6;stroke-dashoffset:0;"/>
   </g>
   <g id="line2d_111">
    <path clip-path="url(#p6a1b5e2979)" d="M 173.045455 582.705366 
L 175.669279 579.909574 
L 178.293103 592.766742 
L 180.916928 584.301954 
L 183.540752 581.035645 
L 186.164577 567.926415 
L 188.788401 541.103191 
L 191.412226 519.357921 
L 194.03605 508.399566 
L 196.659875 475.306234 
L 199.283699 475.566731 
L 201.907524 454.061252 
L 204.531348 437.923803 
L 207.155172 447.403451 
L 209.778997 422.113627 
L 212.402821 412.570916 
L 215.026646 377.568828 
L 217.65047 371.694343 
L 220.274295 359.678581 
L 222.898119 332.805512 
L 225.521944 314.503216 
L 228.145768 322.757982 
L 230.769592 297.953025 
L 233.393417 310.326521 
L 236.017241 309.156395 
L 238.641066 297.058626 
L 241.26489 291.195973 
L 243.888715 302.295496 
L 246.512539 291.732826 
L 249.136364 282.851269 
L 251.760188 336.301793 
L 254.384013 315.921062 
L 257.007837 303.086426 
L 259.631661 277.808686 
L 262.255486 282.332856 
L 264.87931 272.811355 
L 267.503135 264.587805 
L 270.126959 267.210961 
L 272.750784 266.445771 
L 275.374608 262.905119 
L 277.998433 263.593651 
L 280.622257 255.375011 
L 283.246082 281.271548 
L 285.869906 358.009426 
L 288.49373 394.871117 
L 291.117555 357.651755 
L 293.741379 336.6988 
L 296.365204 312.435417 
L 298.989028 309.467304 
L 301.612853 300.844544 
L 304.236677 299.790725 
L 306.860502 285.670222 
L 309.484326 280.256813 
L 312.10815 276.900756 
L 314.731975 270.850109 
L 317.355799 289.417182 
L 319.979624 268.815668 
L 322.603448 265.41033 
L 325.227273 268.617919 
L 327.851097 271.46104 
L 330.474922 252.221862 
L 333.098746 265.646407 
L 335.722571 275.671091 
L 338.346395 248.080035 
L 340.970219 250.33633 
L 343.594044 249.957134 
L 346.217868 251.663799 
L 348.841693 270.412822 
L 351.465517 249.195217 
L 354.089342 239.687121 
L 356.713166 278.644491 
L 359.336991 257.404858 
L 361.960815 239.69417 
L 364.584639 233.008615 
L 367.208464 236.054392 
L 369.832288 232.641691 
L 372.456113 238.742121 
L 375.079937 243.252193 
L 377.703762 242.001885 
L 380.327586 231.28697 
L 382.951411 231.028614 
L 385.575235 232.668062 
L 388.19906 229.93376 
L 390.822884 228.986431 
L 393.446708 229.856914 
L 396.070533 223.143854 
L 398.694357 265.278225 
L 401.318182 314.272551 
L 403.942006 266.22568 
L 406.565831 249.731567 
L 409.189655 242.93285 
L 411.81348 237.024001 
L 414.437304 246.928978 
L 417.061129 251.756316 
L 419.684953 229.479039 
L 422.308777 226.934807 
L 427.556426 234.735734 
L 430.180251 316.086146 
L 432.804075 274.04895 
L 435.4279 254.533856 
L 438.051724 244.770488 
L 440.675549 245.578726 
L 443.299373 246.990971 
L 445.923197 234.778972 
L 448.547022 257.804194 
L 451.170846 228.684333 
L 453.794671 242.2812 
L 456.418495 242.268046 
L 459.04232 223.253805 
L 461.666144 253.625548 
L 464.289969 223.909106 
L 466.913793 225.433946 
L 469.537618 217.655991 
L 472.161442 318.495945 
L 474.785266 364.054031 
L 477.409091 320.862505 
L 480.032915 304.65784 
L 482.65674 286.416845 
L 485.280564 284.497767 
L 487.904389 264.461868 
L 490.528213 264.591959 
L 493.152038 263.526497 
L 495.775862 256.262235 
L 498.399687 254.331828 
L 501.023511 256.880529 
L 503.647335 244.858159 
L 506.27116 260.744741 
L 508.894984 241.918682 
L 511.518809 271.401879 
L 514.142633 238.895562 
L 516.766458 229.371102 
L 519.390282 231.491705 
L 522.014107 225.873877 
L 524.637931 222.396099 
L 527.261755 219.162831 
L 529.88558 221.421014 
L 532.509404 216.588012 
L 535.133229 215.415242 
L 537.757053 217.001194 
L 540.380878 210.154771 
L 543.004702 215.28427 
L 545.628527 206.035727 
L 548.252351 204.921174 
L 550.876176 209.534211 
L 553.5 199.175332 
L 556.123824 199.680968 
L 558.747649 196.700834 
L 561.371473 199.44873 
L 563.995298 210.655435 
L 566.619122 196.442477 
L 569.242947 192.02744 
L 571.866771 187.967934 
L 574.490596 191.260363 
L 577.11442 202.759725 
L 579.738245 188.307417 
L 582.362069 190.425943 
L 584.985893 185.200024 
L 587.609718 187.409242 
L 590.233542 184.670849 
L 592.857367 178.742678 
L 595.481191 177.959048 
L 598.105016 181.952658 
L 600.72884 189.215536 
L 603.352665 176.826369 
L 605.976489 172.775171 
L 608.600313 171.53122 
L 611.224138 169.64361 
L 613.847962 180.621854 
L 619.095611 167.86205 
L 621.719436 165.92365 
L 624.34326 169.7231 
L 626.967085 170.898639 
L 632.214734 162.174739 
L 634.838558 165.781475 
L 637.462382 163.89802 
L 640.086207 160.759725 
L 642.710031 165.06437 
L 645.333856 159.213738 
L 650.581505 158.828437 
L 653.205329 156.893373 
L 655.829154 156.416499 
L 658.452978 153.75319 
L 661.076803 156.955995 
L 663.700627 158.580213 
L 666.324451 150.809873 
L 668.948276 161.520256 
L 671.5721 152.920469 
L 674.195925 148.988537 
L 676.819749 150.619174 
L 679.443574 148.717215 
L 682.067398 147.678753 
L 684.691223 148.852152 
L 687.315047 152.166231 
L 689.938871 145.113815 
L 692.562696 145.305269 
L 695.18652 146.8342 
L 697.810345 143.752045 
L 700.434169 143.959045 
L 703.057994 145.817892 
L 705.681818 141.597771 
L 708.305643 141.958086 
L 710.929467 144.588479 
L 713.553292 137.067685 
L 716.177116 139.763343 
L 718.80094 139.842581 
L 721.424765 138.745021 
L 724.048589 137.19016 
L 726.672414 137.546762 
L 729.296238 134.314627 
L 731.920063 134.796159 
L 734.543887 134.823788 
L 737.167712 133.108312 
L 739.791536 135.249684 
L 742.415361 133.098871 
L 745.039185 133.729186 
L 747.663009 133.727991 
L 750.286834 132.33236 
L 752.910658 131.157954 
L 755.534483 130.899157 
L 758.158307 129.618261 
L 760.782132 128.905247 
L 763.405956 129.143338 
L 766.029781 129.241897 
L 768.653605 126.552532 
L 771.277429 127.333456 
L 773.901254 124.332615 
L 776.525078 127.671994 
L 779.148903 124.608091 
L 781.772727 126.470211 
L 784.396552 124.604126 
L 787.020376 122.295971 
L 789.644201 122.702418 
L 792.268025 121.917026 
L 794.89185 123.546216 
L 797.515674 120.733431 
L 800.139498 121.003872 
L 802.763323 122.846104 
L 805.387147 118.354095 
L 808.010972 121.621348 
L 810.634796 120.652809 
L 813.258621 122.278789 
L 815.882445 119.093228 
L 818.50627 119.652927 
L 821.130094 121.797257 
L 823.753918 117.480276 
L 826.377743 118.075283 
L 829.001567 118.348997 
L 831.625392 117.608794 
L 834.249216 117.550703 
L 836.873041 117.339675 
L 839.496865 116.862674 
L 842.12069 114.951463 
L 844.744514 116.415192 
L 847.368339 114.664282 
L 852.615987 116.944681 
L 855.239812 113.80519 
L 857.863636 114.593603 
L 860.487461 114.915967 
L 863.111285 116.27201 
L 865.73511 112.791525 
L 868.358934 116.296052 
L 870.982759 113.670819 
L 873.606583 114.067008 
L 876.230408 115.806212 
L 878.854232 114.663652 
L 881.478056 113.684603 
L 884.101881 114.190239 
L 886.725705 112.659735 
L 889.34953 113.150393 
L 891.973354 113.066623 
L 894.597179 114.796135 
L 897.221003 116.887534 
L 899.844828 114.082743 
L 902.468652 111.109091 
L 905.092476 117.831717 
L 907.716301 114.165694 
L 910.340125 114.311708 
L 912.96395 115.24475 
L 915.587774 116.383534 
L 918.211599 114.134981 
L 920.835423 116.599408 
L 923.459248 117.351758 
L 926.083072 117.73064 
L 928.706897 122.366083 
L 931.330721 128.104876 
L 931.330721 128.104876 
" style="fill:none;stroke:#1f77b4;stroke-linecap:square;stroke-width:1.5;"/>
   </g>
   <g id="line2d_112">
    <path clip-path="url(#p6a1b5e2979)" d="M 173.045455 605.22086 
L 175.669279 605.290909 
L 180.916928 605.22086 
L 183.540752 605.233982 
L 186.164577 604.921217 
L 188.788401 602.984831 
L 191.412226 576.329209 
L 194.03605 575.806328 
L 196.659875 514.1388 
L 199.283699 456.478414 
L 201.907524 521.695657 
L 207.155172 452.96923 
L 209.778997 456.464693 
L 212.402821 456.173106 
L 215.026646 442.44791 
L 217.65047 453.280895 
L 220.274295 454.590741 
L 222.898119 461.315129 
L 225.521944 466.31737 
L 228.145768 481.681573 
L 230.769592 503.912151 
L 233.393417 466.178971 
L 236.017241 457.682778 
L 238.641066 542.339716 
L 241.26489 412.835944 
L 243.888715 533.423418 
L 246.512539 439.380041 
L 249.136364 451.771915 
L 251.760188 408.097599 
L 254.384013 465.315222 
L 257.007837 502.694067 
L 259.631661 537.223937 
L 262.255486 466.61865 
L 264.87931 403.53038 
L 267.503135 356.538335 
L 270.126959 420.35699 
L 272.750784 376.243499 
L 275.374608 471.033057 
L 277.998433 438.0476 
L 280.622257 456.936281 
L 283.246082 407.172298 
L 285.869906 549.984559 
L 288.49373 529.785339 
L 291.117555 504.271333 
L 293.741379 417.859331 
L 296.365204 420.201283 
L 298.989028 366.000109 
L 301.612853 380.815879 
L 304.236677 344.265664 
L 306.860502 379.020913 
L 309.484326 397.479859 
L 312.10815 339.146172 
L 314.731975 364.17808 
L 317.355799 371.559846 
L 319.979624 430.431645 
L 322.603448 462.439564 
L 325.227273 469.255903 
L 327.851097 471.122806 
L 330.474922 460.455094 
L 333.098746 412.097818 
L 335.722571 479.5183 
L 338.346395 491.948565 
L 340.970219 510.678707 
L 343.594044 471.117079 
L 346.217868 393.883822 
L 348.841693 491.466592 
L 351.465517 490.505354 
L 354.089342 472.864716 
L 356.713166 470.141176 
L 359.336991 525.354127 
L 361.960815 525.2117 
L 364.584639 529.390094 
L 367.208464 522.927713 
L 369.832288 471.709505 
L 372.456113 495.149671 
L 375.079937 483.024651 
L 377.703762 483.321336 
L 380.327586 462.095549 
L 382.951411 458.908226 
L 385.575235 490.338823 
L 388.19906 487.455926 
L 390.822884 458.75617 
L 393.446708 474.357395 
L 396.070533 454.785658 
L 398.694357 351.74322 
L 401.318182 546.57853 
L 403.942006 572.229109 
L 406.565831 542.762339 
L 409.189655 481.573762 
L 411.81348 533.770579 
L 414.437304 488.527178 
L 417.061129 503.046703 
L 419.684953 481.932315 
L 422.308777 518.626026 
L 424.932602 477.154131 
L 427.556426 515.423409 
L 430.180251 445.398086 
L 432.804075 504.357494 
L 435.4279 513.325401 
L 438.051724 496.413637 
L 440.675549 396.816565 
L 443.299373 466.452181 
L 445.923197 463.639019 
L 448.547022 418.114541 
L 451.170846 470.791505 
L 453.794671 410.320411 
L 456.418495 436.777907 
L 459.04232 490.291242 
L 461.666144 487.067415 
L 464.289969 508.859384 
L 466.913793 490.906893 
L 469.537618 455.959938 
L 472.161442 579.651344 
L 474.785266 499.973044 
L 477.409091 569.555919 
L 480.032915 558.242347 
L 482.65674 550.353685 
L 485.280564 528.861926 
L 487.904389 547.217719 
L 490.528213 538.870749 
L 493.152038 517.417948 
L 495.775862 446.859675 
L 498.399687 507.10816 
L 501.023511 516.480626 
L 503.647335 462.259878 
L 506.27116 490.245613 
L 508.894984 447.119668 
L 511.518809 389.111743 
L 514.142633 454.393559 
L 516.766458 373.050826 
L 519.390282 504.555746 
L 522.014107 433.139954 
L 524.637931 455.861819 
L 527.261755 388.469785 
L 529.88558 410.903146 
L 532.509404 429.034568 
L 535.133229 349.902688 
L 537.757053 425.156447 
L 540.380878 383.800545 
L 543.004702 366.03485 
L 545.628527 442.97054 
L 548.252351 391.790975 
L 550.876176 444.826618 
L 553.5 420.38229 
L 556.123824 393.404556 
L 558.747649 429.325715 
L 561.371473 404.080198 
L 563.995298 438.874153 
L 566.619122 447.003045 
L 569.242947 412.187692 
L 571.866771 429.43768 
L 574.490596 402.015736 
L 577.11442 389.090848 
L 579.738245 415.338449 
L 582.362069 431.730289 
L 584.985893 430.903359 
L 587.609718 415.332658 
L 590.233542 357.777629 
L 592.857367 418.645793 
L 598.105016 466.084628 
L 600.72884 380.396088 
L 603.352665 450.330718 
L 605.976489 440.921623 
L 608.600313 435.206431 
L 611.224138 442.433057 
L 613.847962 388.863834 
L 616.471787 412.223503 
L 619.095611 447.945402 
L 621.719436 420.41099 
L 624.34326 454.521007 
L 626.967085 430.891401 
L 629.590909 436.62239 
L 632.214734 458.149519 
L 634.838558 391.249653 
L 637.462382 442.738554 
L 640.086207 464.689061 
L 642.710031 415.238693 
L 645.333856 407.498186 
L 647.95768 410.260621 
L 650.581505 447.072465 
L 653.205329 409.335005 
L 655.829154 445.245653 
L 658.452978 465.985691 
L 661.076803 451.589145 
L 663.700627 430.769492 
L 666.324451 454.674699 
L 668.948276 387.748148 
L 671.5721 433.109367 
L 674.195925 442.910372 
L 676.819749 405.921738 
L 679.443574 441.12963 
L 682.067398 431.612786 
L 684.691223 451.063495 
L 687.315047 438.747649 
L 689.938871 419.70408 
L 692.562696 459.148079 
L 695.18652 427.416014 
L 697.810345 428.834553 
L 700.434169 418.441247 
L 703.057994 415.852519 
L 705.681818 441.988721 
L 708.305643 448.524864 
L 710.929467 415.316672 
L 713.553292 463.781508 
L 716.177116 449.145487 
L 718.80094 431.441848 
L 721.424765 449.135606 
L 724.048589 452.818936 
L 726.672414 439.452797 
L 729.296238 443.220589 
L 731.920063 462.530319 
L 734.543887 451.606327 
L 737.167712 454.868923 
L 739.791536 445.854632 
L 742.415361 440.952399 
L 745.039185 458.704499 
L 747.663009 444.72617 
L 750.286834 436.253075 
L 752.910658 452.825419 
L 755.534483 443.941093 
L 758.158307 432.23108 
L 760.782132 439.436999 
L 763.405956 458.446897 
L 766.029781 446.060625 
L 768.653605 449.047683 
L 771.277429 456.037539 
L 773.901254 444.25131 
L 776.525078 450.163494 
L 779.148903 458.862282 
L 781.772727 431.486093 
L 784.396552 433.037556 
L 787.020376 446.500052 
L 789.644201 441.201378 
L 792.268025 457.510142 
L 794.89185 459.453513 
L 797.515674 462.96276 
L 800.139498 459.859772 
L 802.763323 458.535198 
L 805.387147 460.170241 
L 808.010972 439.241013 
L 810.634796 440.199419 
L 813.258621 424.494474 
L 815.882445 438.096439 
L 818.50627 404.133128 
L 821.130094 401.143113 
L 823.753918 451.766062 
L 826.377743 465.021936 
L 831.625392 450.610788 
L 834.249216 438.444104 
L 836.873041 395.612704 
L 839.496865 438.476013 
L 842.12069 443.018875 
L 844.744514 439.553307 
L 847.368339 448.135535 
L 849.992163 448.795053 
L 852.615987 453.883643 
L 855.239812 451.424376 
L 857.863636 442.909113 
L 860.487461 442.108301 
L 863.111285 422.148368 
L 865.73511 435.727424 
L 868.358934 438.397467 
L 870.982759 433.414738 
L 873.606583 410.625278 
L 876.230408 409.465348 
L 878.854232 445.756954 
L 881.478056 415.033393 
L 884.101881 394.249613 
L 886.725705 397.686733 
L 889.34953 381.429138 
L 891.973354 379.74557 
L 894.597179 400.015154 
L 897.221003 403.870744 
L 899.844828 381.443613 
L 902.468652 390.878136 
L 905.092476 401.472463 
L 907.716301 408.345886 
L 910.340125 401.351686 
L 912.96395 399.750378 
L 915.587774 398.932133 
L 918.211599 412.685776 
L 920.835423 425.387363 
L 923.459248 407.586676 
L 926.083072 404.16296 
L 928.706897 397.015446 
L 931.330721 377.992835 
L 931.330721 377.992835 
" style="fill:none;stroke:#ff7f0e;stroke-linecap:square;stroke-width:1.5;"/>
   </g>
   <g id="patch_3">
    <path d="M 135 630 
L 135 86.4 
" style="fill:none;stroke:#000000;stroke-linecap:square;stroke-linejoin:miter;stroke-width:0.8;"/>
   </g>
   <g id="patch_4">
    <path d="M 972 630 
L 972 86.4 
" style="fill:none;stroke:#000000;stroke-linecap:square;stroke-linejoin:miter;stroke-width:0.8;"/>
   </g>
   <g id="patch_5">
    <path d="M 135 630 
L 972 630 
" style="fill:none;stroke:#000000;stroke-linecap:square;stroke-linejoin:miter;stroke-width:0.8;"/>
   </g>
   <g id="patch_6">
    <path d="M 135 86.4 
L 972 86.4 
" style="fill:none;stroke:#000000;stroke-linecap:square;stroke-linejoin:miter;stroke-width:0.8;"/>
   </g>
   <g id="text_23">
    <!-- Metric: auc -->
    <g transform="translate(520.14 80.4)scale(0.12 -0.12)">
     <defs>
      <path d="M 9.8125 72.90625 
L 24.515625 72.90625 
L 43.109375 23.296875 
L 61.8125 72.90625 
L 76.515625 72.90625 
L 76.515625 0 
L 66.890625 0 
L 66.890625 64.015625 
L 48.09375 14.015625 
L 38.1875 14.015625 
L 19.390625 64.015625 
L 19.390625 0 
L 9.8125 0 
z
" id="DejaVuSans-77"/>
      <path d="M 56.203125 29.59375 
L 56.203125 25.203125 
L 14.890625 25.203125 
Q 15.484375 15.921875 20.484375 11.0625 
Q 25.484375 6.203125 34.421875 6.203125 
Q 39.59375 6.203125 44.453125 7.46875 
Q 49.3125 8.734375 54.109375 11.28125 
L 54.109375 2.78125 
Q 49.265625 0.734375 44.1875 -0.34375 
Q 39.109375 -1.421875 33.890625 -1.421875 
Q 20.796875 -1.421875 13.15625 6.1875 
Q 5.515625 13.8125 5.515625 26.8125 
Q 5.515625 40.234375 12.765625 48.109375 
Q 20.015625 56 32.328125 56 
Q 43.359375 56 49.78125 48.890625 
Q 56.203125 41.796875 56.203125 29.59375 
z
M 47.21875 32.234375 
Q 47.125 39.59375 43.09375 43.984375 
Q 39.0625 48.390625 32.421875 48.390625 
Q 24.90625 48.390625 20.390625 44.140625 
Q 15.875 39.890625 15.1875 32.171875 
z
" id="DejaVuSans-101"/>
      <path d="M 18.3125 70.21875 
L 18.3125 54.6875 
L 36.8125 54.6875 
L 36.8125 47.703125 
L 18.3125 47.703125 
L 18.3125 18.015625 
Q 18.3125 11.328125 20.140625 9.421875 
Q 21.96875 7.515625 27.59375 7.515625 
L 36.8125 7.515625 
L 36.8125 0 
L 27.59375 0 
Q 17.1875 0 13.234375 3.875 
Q 9.28125 7.765625 9.28125 18.015625 
L 9.28125 47.703125 
L 2.6875 47.703125 
L 2.6875 54.6875 
L 9.28125 54.6875 
L 9.28125 70.21875 
z
" id="DejaVuSans-116"/>
      <path d="M 41.109375 46.296875 
Q 39.59375 47.171875 37.8125 47.578125 
Q 36.03125 48 33.890625 48 
Q 26.265625 48 22.1875 43.046875 
Q 18.109375 38.09375 18.109375 28.8125 
L 18.109375 0 
L 9.078125 0 
L 9.078125 54.6875 
L 18.109375 54.6875 
L 18.109375 46.1875 
Q 20.953125 51.171875 25.484375 53.578125 
Q 30.03125 56 36.53125 56 
Q 37.453125 56 38.578125 55.875 
Q 39.703125 55.765625 41.0625 55.515625 
z
" id="DejaVuSans-114"/>
      <path d="M 9.421875 54.6875 
L 18.40625 54.6875 
L 18.40625 0 
L 9.421875 0 
z
M 9.421875 75.984375 
L 18.40625 75.984375 
L 18.40625 64.59375 
L 9.421875 64.59375 
z
" id="DejaVuSans-105"/>
      <path d="M 11.71875 12.40625 
L 22.015625 12.40625 
L 22.015625 0 
L 11.71875 0 
z
M 11.71875 51.703125 
L 22.015625 51.703125 
L 22.015625 39.3125 
L 11.71875 39.3125 
z
" id="DejaVuSans-58"/>
      <path id="DejaVuSans-32"/>
      <path d="M 34.28125 27.484375 
Q 23.390625 27.484375 19.1875 25 
Q 14.984375 22.515625 14.984375 16.5 
Q 14.984375 11.71875 18.140625 8.90625 
Q 21.296875 6.109375 26.703125 6.109375 
Q 34.1875 6.109375 38.703125 11.40625 
Q 43.21875 16.703125 43.21875 25.484375 
L 43.21875 27.484375 
z
M 52.203125 31.203125 
L 52.203125 0 
L 43.21875 0 
L 43.21875 8.296875 
Q 40.140625 3.328125 35.546875 0.953125 
Q 30.953125 -1.421875 24.3125 -1.421875 
Q 15.921875 -1.421875 10.953125 3.296875 
Q 6 8.015625 6 15.921875 
Q 6 25.140625 12.171875 29.828125 
Q 18.359375 34.515625 30.609375 34.515625 
L 43.21875 34.515625 
L 43.21875 35.40625 
Q 43.21875 41.609375 39.140625 45 
Q 35.0625 48.390625 27.6875 48.390625 
Q 23 48.390625 18.546875 47.265625 
Q 14.109375 46.140625 10.015625 43.890625 
L 10.015625 52.203125 
Q 14.9375 54.109375 19.578125 55.046875 
Q 24.21875 56 28.609375 56 
Q 40.484375 56 46.34375 49.84375 
Q 52.203125 43.703125 52.203125 31.203125 
z
" id="DejaVuSans-97"/>
      <path d="M 8.5 21.578125 
L 8.5 54.6875 
L 17.484375 54.6875 
L 17.484375 21.921875 
Q 17.484375 14.15625 20.5 10.265625 
Q 23.53125 6.390625 29.59375 6.390625 
Q 36.859375 6.390625 41.078125 11.03125 
Q 45.3125 15.671875 45.3125 23.6875 
L 45.3125 54.6875 
L 54.296875 54.6875 
L 54.296875 0 
L 45.3125 0 
L 45.3125 8.40625 
Q 42.046875 3.421875 37.71875 1 
Q 33.40625 -1.421875 27.6875 -1.421875 
Q 18.265625 -1.421875 13.375 4.4375 
Q 8.5 10.296875 8.5 21.578125 
z
M 31.109375 56 
z
" id="DejaVuSans-117"/>
     </defs>
     <use xlink:href="#DejaVuSans-77"/>
     <use x="86.279297" xlink:href="#DejaVuSans-101"/>
     <use x="147.802734" xlink:href="#DejaVuSans-116"/>
     <use x="187.011719" xlink:href="#DejaVuSans-114"/>
     <use x="228.125" xlink:href="#DejaVuSans-105"/>
     <use x="255.908203" xlink:href="#DejaVuSans-99"/>
     <use x="310.888672" xlink:href="#DejaVuSans-58"/>
     <use x="344.580078" xlink:href="#DejaVuSans-32"/>
     <use x="376.367188" xlink:href="#DejaVuSans-97"/>
     <use x="437.646484" xlink:href="#DejaVuSans-117"/>
     <use x="501.025391" xlink:href="#DejaVuSans-99"/>
    </g>
   </g>
   <g id="legend_1">
    <g id="patch_7">
     <path d="M 142 139.26875 
L 220.915625 139.26875 
Q 222.915625 139.26875 222.915625 137.26875 
L 222.915625 93.4 
Q 222.915625 91.4 220.915625 91.4 
L 142 91.4 
Q 140 91.4 140 93.4 
L 140 137.26875 
Q 140 139.26875 142 139.26875 
z
" style="fill:#ffffff;opacity:0.8;stroke:#cccccc;stroke-linejoin:miter;"/>
    </g>
    <g id="line2d_113">
     <path d="M 144 99.498437 
L 164 99.498437 
" style="fill:none;stroke:#1f77b4;stroke-linecap:square;stroke-width:1.5;"/>
    </g>
    <g id="line2d_114"/>
    <g id="text_24">
     <!-- auc_train -->
     <g transform="translate(172 102.998437)scale(0.1 -0.1)">
      <defs>
       <path d="M 50.984375 -16.609375 
L 50.984375 -23.578125 
L -0.984375 -23.578125 
L -0.984375 -16.609375 
z
" id="DejaVuSans-95"/>
       <path d="M 54.890625 33.015625 
L 54.890625 0 
L 45.90625 0 
L 45.90625 32.71875 
Q 45.90625 40.484375 42.875 44.328125 
Q 39.84375 48.1875 33.796875 48.1875 
Q 26.515625 48.1875 22.3125 43.546875 
Q 18.109375 38.921875 18.109375 30.90625 
L 18.109375 0 
L 9.078125 0 
L 9.078125 54.6875 
L 18.109375 54.6875 
L 18.109375 46.1875 
Q 21.34375 51.125 25.703125 53.5625 
Q 30.078125 56 35.796875 56 
Q 45.21875 56 50.046875 50.171875 
Q 54.890625 44.34375 54.890625 33.015625 
z
" id="DejaVuSans-110"/>
      </defs>
      <use xlink:href="#DejaVuSans-97"/>
      <use x="61.279297" xlink:href="#DejaVuSans-117"/>
      <use x="124.658203" xlink:href="#DejaVuSans-99"/>
      <use x="179.638672" xlink:href="#DejaVuSans-95"/>
      <use x="229.638672" xlink:href="#DejaVuSans-116"/>
      <use x="268.847656" xlink:href="#DejaVuSans-114"/>
      <use x="309.960938" xlink:href="#DejaVuSans-97"/>
      <use x="371.240234" xlink:href="#DejaVuSans-105"/>
      <use x="399.023438" xlink:href="#DejaVuSans-110"/>
     </g>
    </g>
    <g id="line2d_115">
     <path d="M 144 114.454687 
L 164 114.454687 
" style="fill:none;stroke:#ff7f0e;stroke-linecap:square;stroke-width:1.5;"/>
    </g>
    <g id="line2d_116"/>
    <g id="text_25">
     <!-- auc_valid -->
     <g transform="translate(172 117.954687)scale(0.1 -0.1)">
      <defs>
       <path d="M 2.984375 54.6875 
L 12.5 54.6875 
L 29.59375 8.796875 
L 46.6875 54.6875 
L 56.203125 54.6875 
L 35.6875 0 
L 23.484375 0 
z
" id="DejaVuSans-118"/>
       <path d="M 9.421875 75.984375 
L 18.40625 75.984375 
L 18.40625 0 
L 9.421875 0 
z
" id="DejaVuSans-108"/>
       <path d="M 45.40625 46.390625 
L 45.40625 75.984375 
L 54.390625 75.984375 
L 54.390625 0 
L 45.40625 0 
L 45.40625 8.203125 
Q 42.578125 3.328125 38.25 0.953125 
Q 33.9375 -1.421875 27.875 -1.421875 
Q 17.96875 -1.421875 11.734375 6.484375 
Q 5.515625 14.40625 5.515625 27.296875 
Q 5.515625 40.1875 11.734375 48.09375 
Q 17.96875 56 27.875 56 
Q 33.9375 56 38.25 53.625 
Q 42.578125 51.265625 45.40625 46.390625 
z
M 14.796875 27.296875 
Q 14.796875 17.390625 18.875 11.75 
Q 22.953125 6.109375 30.078125 6.109375 
Q 37.203125 6.109375 41.296875 11.75 
Q 45.40625 17.390625 45.40625 27.296875 
Q 45.40625 37.203125 41.296875 42.84375 
Q 37.203125 48.484375 30.078125 48.484375 
Q 22.953125 48.484375 18.875 42.84375 
Q 14.796875 37.203125 14.796875 27.296875 
z
" id="DejaVuSans-100"/>
      </defs>
      <use xlink:href="#DejaVuSans-97"/>
      <use x="61.279297" xlink:href="#DejaVuSans-117"/>
      <use x="124.658203" xlink:href="#DejaVuSans-99"/>
      <use x="179.638672" xlink:href="#DejaVuSans-95"/>
      <use x="229.638672" xlink:href="#DejaVuSans-118"/>
      <use x="288.818359" xlink:href="#DejaVuSans-97"/>
      <use x="350.097656" xlink:href="#DejaVuSans-108"/>
      <use x="377.880859" xlink:href="#DejaVuSans-105"/>
      <use x="405.664062" xlink:href="#DejaVuSans-100"/>
     </g>
    </g>
    <g id="line2d_117">
     <path d="M 144 129.410937 
L 164 129.410937 
" style="fill:none;stroke:#008000;stroke-dasharray:3.7,1.6;stroke-dashoffset:0;"/>
    </g>
    <g id="text_26">
     <!-- auc_test -->
     <g transform="translate(172 132.910937)scale(0.1 -0.1)">
      <use xlink:href="#DejaVuSans-97"/>
      <use x="61.279297" xlink:href="#DejaVuSans-117"/>
      <use x="124.658203" xlink:href="#DejaVuSans-99"/>
      <use x="179.638672" xlink:href="#DejaVuSans-95"/>
      <use x="229.638672" xlink:href="#DejaVuSans-116"/>
      <use x="268.847656" xlink:href="#DejaVuSans-101"/>
      <use x="330.371094" xlink:href="#DejaVuSans-115"/>
      <use x="382.470703" xlink:href="#DejaVuSans-116"/>
     </g>
    </g>
   </g>
  </g>
 </g>
 <defs>
  <clipPath id="p6a1b5e2979">
   <rect height="543.6" width="837" x="135" y="86.4"/>
  </clipPath>
 </defs>
</svg>
