<?xml version="1.0" encoding="utf-8" standalone="no"?>
<!DOCTYPE svg PUBLIC "-//W3C//DTD SVG 1.1//EN"
  "http://www.w3.org/Graphics/SVG/1.1/DTD/svg11.dtd">
<!-- Created with matplotlib (https://matplotlib.org/) -->
<svg height="720pt" version="1.1" viewBox="0 0 1080 720" width="1080pt" xmlns="http://www.w3.org/2000/svg" xmlns:xlink="http://www.w3.org/1999/xlink">
 <metadata>
  <rdf:RDF xmlns:cc="http://creativecommons.org/ns#" xmlns:dc="http://purl.org/dc/elements/1.1/" xmlns:rdf="http://www.w3.org/1999/02/22-rdf-syntax-ns#">
   <cc:Work>
    <dc:type rdf:resource="http://purl.org/dc/dcmitype/StillImage"/>
    <dc:date>2021-06-15T20:41:50.720093</dc:date>
    <dc:format>image/svg+xml</dc:format>
    <dc:creator>
     <cc:Agent>
      <dc:title>Matplotlib v3.3.4, https://matplotlib.org/</dc:title>
     </cc:Agent>
    </dc:creator>
   </cc:Work>
  </rdf:RDF>
 </metadata>
 <defs>
  <style type="text/css">*{stroke-linecap:butt;stroke-linejoin:round;}</style>
 </defs>
 <g id="figure_1">
  <g id="patch_1">
   <path d="M 0 720 
L 1080 720 
L 1080 0 
L 0 0 
z
" style="fill:none;"/>
  </g>
  <g id="axes_1">
   <g id="patch_2">
    <path d="M 135 630 
L 972 630 
L 972 86.4 
L 135 86.4 
z
" style="fill:#ffffff;"/>
   </g>
   <g id="matplotlib.axis_1">
    <g id="xtick_1">
     <g id="line2d_1">
      <path clip-path="url(#pca163ada33)" d="M 173.045455 630 
L 173.045455 86.4 
" style="fill:none;stroke:#b0b0b0;stroke-linecap:square;stroke-width:0.8;"/>
     </g>
     <g id="line2d_2">
      <defs>
       <path d="M 0 0 
L 0 3.5 
" id="m05488d0e18" style="stroke:#000000;stroke-width:0.8;"/>
      </defs>
      <g>
       <use style="stroke:#000000;stroke-width:0.8;" x="173.045455" xlink:href="#m05488d0e18" y="630"/>
      </g>
     </g>
     <g id="text_1">
      <!-- 0 -->
      <g transform="translate(169.227955 646.118125)scale(0.12 -0.12)">
       <defs>
        <path d="M 31.78125 66.40625 
Q 24.171875 66.40625 20.328125 58.90625 
Q 16.5 51.421875 16.5 36.375 
Q 16.5 21.390625 20.328125 13.890625 
Q 24.171875 6.390625 31.78125 6.390625 
Q 39.453125 6.390625 43.28125 13.890625 
Q 47.125 21.390625 47.125 36.375 
Q 47.125 51.421875 43.28125 58.90625 
Q 39.453125 66.40625 31.78125 66.40625 
z
M 31.78125 74.21875 
Q 44.046875 74.21875 50.515625 64.515625 
Q 56.984375 54.828125 56.984375 36.375 
Q 56.984375 17.96875 50.515625 8.265625 
Q 44.046875 -1.421875 31.78125 -1.421875 
Q 19.53125 -1.421875 13.0625 8.265625 
Q 6.59375 17.96875 6.59375 36.375 
Q 6.59375 54.828125 13.0625 64.515625 
Q 19.53125 74.21875 31.78125 74.21875 
z
" id="DejaVuSans-48"/>
       </defs>
       <use xlink:href="#DejaVuSans-48"/>
      </g>
     </g>
    </g>
    <g id="xtick_2">
     <g id="line2d_3">
      <path clip-path="url(#pca163ada33)" d="M 225.521944 630 
L 225.521944 86.4 
" style="fill:none;stroke:#b0b0b0;stroke-linecap:square;stroke-width:0.8;"/>
     </g>
     <g id="line2d_4">
      <g>
       <use style="stroke:#000000;stroke-width:0.8;" x="225.521944" xlink:href="#m05488d0e18" y="630"/>
      </g>
     </g>
     <g id="text_2">
      <!-- 20 -->
      <g transform="translate(217.886944 646.118125)scale(0.12 -0.12)">
       <defs>
        <path d="M 19.1875 8.296875 
L 53.609375 8.296875 
L 53.609375 0 
L 7.328125 0 
L 7.328125 8.296875 
Q 12.9375 14.109375 22.625 23.890625 
Q 32.328125 33.6875 34.8125 36.53125 
Q 39.546875 41.84375 41.421875 45.53125 
Q 43.3125 49.21875 43.3125 52.78125 
Q 43.3125 58.59375 39.234375 62.25 
Q 35.15625 65.921875 28.609375 65.921875 
Q 23.96875 65.921875 18.8125 64.3125 
Q 13.671875 62.703125 7.8125 59.421875 
L 7.8125 69.390625 
Q 13.765625 71.78125 18.9375 73 
Q 24.125 74.21875 28.421875 74.21875 
Q 39.75 74.21875 46.484375 68.546875 
Q 53.21875 62.890625 53.21875 53.421875 
Q 53.21875 48.921875 51.53125 44.890625 
Q 49.859375 40.875 45.40625 35.40625 
Q 44.1875 33.984375 37.640625 27.21875 
Q 31.109375 20.453125 19.1875 8.296875 
z
" id="DejaVuSans-50"/>
       </defs>
       <use xlink:href="#DejaVuSans-50"/>
       <use x="63.623047" xlink:href="#DejaVuSans-48"/>
      </g>
     </g>
    </g>
    <g id="xtick_3">
     <g id="line2d_5">
      <path clip-path="url(#pca163ada33)" d="M 277.998433 630 
L 277.998433 86.4 
" style="fill:none;stroke:#b0b0b0;stroke-linecap:square;stroke-width:0.8;"/>
     </g>
     <g id="line2d_6">
      <g>
       <use style="stroke:#000000;stroke-width:0.8;" x="277.998433" xlink:href="#m05488d0e18" y="630"/>
      </g>
     </g>
     <g id="text_3">
      <!-- 40 -->
      <g transform="translate(270.363433 646.118125)scale(0.12 -0.12)">
       <defs>
        <path d="M 37.796875 64.3125 
L 12.890625 25.390625 
L 37.796875 25.390625 
z
M 35.203125 72.90625 
L 47.609375 72.90625 
L 47.609375 25.390625 
L 58.015625 25.390625 
L 58.015625 17.1875 
L 47.609375 17.1875 
L 47.609375 0 
L 37.796875 0 
L 37.796875 17.1875 
L 4.890625 17.1875 
L 4.890625 26.703125 
z
" id="DejaVuSans-52"/>
       </defs>
       <use xlink:href="#DejaVuSans-52"/>
       <use x="63.623047" xlink:href="#DejaVuSans-48"/>
      </g>
     </g>
    </g>
    <g id="xtick_4">
     <g id="line2d_7">
      <path clip-path="url(#pca163ada33)" d="M 330.474922 630 
L 330.474922 86.4 
" style="fill:none;stroke:#b0b0b0;stroke-linecap:square;stroke-width:0.8;"/>
     </g>
     <g id="line2d_8">
      <g>
       <use style="stroke:#000000;stroke-width:0.8;" x="330.474922" xlink:href="#m05488d0e18" y="630"/>
      </g>
     </g>
     <g id="text_4">
      <!-- 60 -->
      <g transform="translate(322.839922 646.118125)scale(0.12 -0.12)">
       <defs>
        <path d="M 33.015625 40.375 
Q 26.375 40.375 22.484375 35.828125 
Q 18.609375 31.296875 18.609375 23.390625 
Q 18.609375 15.53125 22.484375 10.953125 
Q 26.375 6.390625 33.015625 6.390625 
Q 39.65625 6.390625 43.53125 10.953125 
Q 47.40625 15.53125 47.40625 23.390625 
Q 47.40625 31.296875 43.53125 35.828125 
Q 39.65625 40.375 33.015625 40.375 
z
M 52.59375 71.296875 
L 52.59375 62.3125 
Q 48.875 64.0625 45.09375 64.984375 
Q 41.3125 65.921875 37.59375 65.921875 
Q 27.828125 65.921875 22.671875 59.328125 
Q 17.53125 52.734375 16.796875 39.40625 
Q 19.671875 43.65625 24.015625 45.921875 
Q 28.375 48.1875 33.59375 48.1875 
Q 44.578125 48.1875 50.953125 41.515625 
Q 57.328125 34.859375 57.328125 23.390625 
Q 57.328125 12.15625 50.6875 5.359375 
Q 44.046875 -1.421875 33.015625 -1.421875 
Q 20.359375 -1.421875 13.671875 8.265625 
Q 6.984375 17.96875 6.984375 36.375 
Q 6.984375 53.65625 15.1875 63.9375 
Q 23.390625 74.21875 37.203125 74.21875 
Q 40.921875 74.21875 44.703125 73.484375 
Q 48.484375 72.75 52.59375 71.296875 
z
" id="DejaVuSans-54"/>
       </defs>
       <use xlink:href="#DejaVuSans-54"/>
       <use x="63.623047" xlink:href="#DejaVuSans-48"/>
      </g>
     </g>
    </g>
    <g id="xtick_5">
     <g id="line2d_9">
      <path clip-path="url(#pca163ada33)" d="M 382.951411 630 
L 382.951411 86.4 
" style="fill:none;stroke:#b0b0b0;stroke-linecap:square;stroke-width:0.8;"/>
     </g>
     <g id="line2d_10">
      <g>
       <use style="stroke:#000000;stroke-width:0.8;" x="382.951411" xlink:href="#m05488d0e18" y="630"/>
      </g>
     </g>
     <g id="text_5">
      <!-- 80 -->
      <g transform="translate(375.316411 646.118125)scale(0.12 -0.12)">
       <defs>
        <path d="M 31.78125 34.625 
Q 24.75 34.625 20.71875 30.859375 
Q 16.703125 27.09375 16.703125 20.515625 
Q 16.703125 13.921875 20.71875 10.15625 
Q 24.75 6.390625 31.78125 6.390625 
Q 38.8125 6.390625 42.859375 10.171875 
Q 46.921875 13.96875 46.921875 20.515625 
Q 46.921875 27.09375 42.890625 30.859375 
Q 38.875 34.625 31.78125 34.625 
z
M 21.921875 38.8125 
Q 15.578125 40.375 12.03125 44.71875 
Q 8.5 49.078125 8.5 55.328125 
Q 8.5 64.0625 14.71875 69.140625 
Q 20.953125 74.21875 31.78125 74.21875 
Q 42.671875 74.21875 48.875 69.140625 
Q 55.078125 64.0625 55.078125 55.328125 
Q 55.078125 49.078125 51.53125 44.71875 
Q 48 40.375 41.703125 38.8125 
Q 48.828125 37.15625 52.796875 32.3125 
Q 56.78125 27.484375 56.78125 20.515625 
Q 56.78125 9.90625 50.3125 4.234375 
Q 43.84375 -1.421875 31.78125 -1.421875 
Q 19.734375 -1.421875 13.25 4.234375 
Q 6.78125 9.90625 6.78125 20.515625 
Q 6.78125 27.484375 10.78125 32.3125 
Q 14.796875 37.15625 21.921875 38.8125 
z
M 18.3125 54.390625 
Q 18.3125 48.734375 21.84375 45.5625 
Q 25.390625 42.390625 31.78125 42.390625 
Q 38.140625 42.390625 41.71875 45.5625 
Q 45.3125 48.734375 45.3125 54.390625 
Q 45.3125 60.0625 41.71875 63.234375 
Q 38.140625 66.40625 31.78125 66.40625 
Q 25.390625 66.40625 21.84375 63.234375 
Q 18.3125 60.0625 18.3125 54.390625 
z
" id="DejaVuSans-56"/>
       </defs>
       <use xlink:href="#DejaVuSans-56"/>
       <use x="63.623047" xlink:href="#DejaVuSans-48"/>
      </g>
     </g>
    </g>
    <g id="xtick_6">
     <g id="line2d_11">
      <path clip-path="url(#pca163ada33)" d="M 435.4279 630 
L 435.4279 86.4 
" style="fill:none;stroke:#b0b0b0;stroke-linecap:square;stroke-width:0.8;"/>
     </g>
     <g id="line2d_12">
      <g>
       <use style="stroke:#000000;stroke-width:0.8;" x="435.4279" xlink:href="#m05488d0e18" y="630"/>
      </g>
     </g>
     <g id="text_6">
      <!-- 100 -->
      <g transform="translate(423.9754 646.118125)scale(0.12 -0.12)">
       <defs>
        <path d="M 12.40625 8.296875 
L 28.515625 8.296875 
L 28.515625 63.921875 
L 10.984375 60.40625 
L 10.984375 69.390625 
L 28.421875 72.90625 
L 38.28125 72.90625 
L 38.28125 8.296875 
L 54.390625 8.296875 
L 54.390625 0 
L 12.40625 0 
z
" id="DejaVuSans-49"/>
       </defs>
       <use xlink:href="#DejaVuSans-49"/>
       <use x="63.623047" xlink:href="#DejaVuSans-48"/>
       <use x="127.246094" xlink:href="#DejaVuSans-48"/>
      </g>
     </g>
    </g>
    <g id="xtick_7">
     <g id="line2d_13">
      <path clip-path="url(#pca163ada33)" d="M 487.904389 630 
L 487.904389 86.4 
" style="fill:none;stroke:#b0b0b0;stroke-linecap:square;stroke-width:0.8;"/>
     </g>
     <g id="line2d_14">
      <g>
       <use style="stroke:#000000;stroke-width:0.8;" x="487.904389" xlink:href="#m05488d0e18" y="630"/>
      </g>
     </g>
     <g id="text_7">
      <!-- 120 -->
      <g transform="translate(476.451889 646.118125)scale(0.12 -0.12)">
       <use xlink:href="#DejaVuSans-49"/>
       <use x="63.623047" xlink:href="#DejaVuSans-50"/>
       <use x="127.246094" xlink:href="#DejaVuSans-48"/>
      </g>
     </g>
    </g>
    <g id="xtick_8">
     <g id="line2d_15">
      <path clip-path="url(#pca163ada33)" d="M 540.380878 630 
L 540.380878 86.4 
" style="fill:none;stroke:#b0b0b0;stroke-linecap:square;stroke-width:0.8;"/>
     </g>
     <g id="line2d_16">
      <g>
       <use style="stroke:#000000;stroke-width:0.8;" x="540.380878" xlink:href="#m05488d0e18" y="630"/>
      </g>
     </g>
     <g id="text_8">
      <!-- 140 -->
      <g transform="translate(528.928378 646.118125)scale(0.12 -0.12)">
       <use xlink:href="#DejaVuSans-49"/>
       <use x="63.623047" xlink:href="#DejaVuSans-52"/>
       <use x="127.246094" xlink:href="#DejaVuSans-48"/>
      </g>
     </g>
    </g>
    <g id="xtick_9">
     <g id="line2d_17">
      <path clip-path="url(#pca163ada33)" d="M 592.857367 630 
L 592.857367 86.4 
" style="fill:none;stroke:#b0b0b0;stroke-linecap:square;stroke-width:0.8;"/>
     </g>
     <g id="line2d_18">
      <g>
       <use style="stroke:#000000;stroke-width:0.8;" x="592.857367" xlink:href="#m05488d0e18" y="630"/>
      </g>
     </g>
     <g id="text_9">
      <!-- 160 -->
      <g transform="translate(581.404867 646.118125)scale(0.12 -0.12)">
       <use xlink:href="#DejaVuSans-49"/>
       <use x="63.623047" xlink:href="#DejaVuSans-54"/>
       <use x="127.246094" xlink:href="#DejaVuSans-48"/>
      </g>
     </g>
    </g>
    <g id="xtick_10">
     <g id="line2d_19">
      <path clip-path="url(#pca163ada33)" d="M 645.333856 630 
L 645.333856 86.4 
" style="fill:none;stroke:#b0b0b0;stroke-linecap:square;stroke-width:0.8;"/>
     </g>
     <g id="line2d_20">
      <g>
       <use style="stroke:#000000;stroke-width:0.8;" x="645.333856" xlink:href="#m05488d0e18" y="630"/>
      </g>
     </g>
     <g id="text_10">
      <!-- 180 -->
      <g transform="translate(633.881356 646.118125)scale(0.12 -0.12)">
       <use xlink:href="#DejaVuSans-49"/>
       <use x="63.623047" xlink:href="#DejaVuSans-56"/>
       <use x="127.246094" xlink:href="#DejaVuSans-48"/>
      </g>
     </g>
    </g>
    <g id="xtick_11">
     <g id="line2d_21">
      <path clip-path="url(#pca163ada33)" d="M 697.810345 630 
L 697.810345 86.4 
" style="fill:none;stroke:#b0b0b0;stroke-linecap:square;stroke-width:0.8;"/>
     </g>
     <g id="line2d_22">
      <g>
       <use style="stroke:#000000;stroke-width:0.8;" x="697.810345" xlink:href="#m05488d0e18" y="630"/>
      </g>
     </g>
     <g id="text_11">
      <!-- 200 -->
      <g transform="translate(686.357845 646.118125)scale(0.12 -0.12)">
       <use xlink:href="#DejaVuSans-50"/>
       <use x="63.623047" xlink:href="#DejaVuSans-48"/>
       <use x="127.246094" xlink:href="#DejaVuSans-48"/>
      </g>
     </g>
    </g>
    <g id="xtick_12">
     <g id="line2d_23">
      <path clip-path="url(#pca163ada33)" d="M 750.286834 630 
L 750.286834 86.4 
" style="fill:none;stroke:#b0b0b0;stroke-linecap:square;stroke-width:0.8;"/>
     </g>
     <g id="line2d_24">
      <g>
       <use style="stroke:#000000;stroke-width:0.8;" x="750.286834" xlink:href="#m05488d0e18" y="630"/>
      </g>
     </g>
     <g id="text_12">
      <!-- 220 -->
      <g transform="translate(738.834334 646.118125)scale(0.12 -0.12)">
       <use xlink:href="#DejaVuSans-50"/>
       <use x="63.623047" xlink:href="#DejaVuSans-50"/>
       <use x="127.246094" xlink:href="#DejaVuSans-48"/>
      </g>
     </g>
    </g>
    <g id="xtick_13">
     <g id="line2d_25">
      <path clip-path="url(#pca163ada33)" d="M 802.763323 630 
L 802.763323 86.4 
" style="fill:none;stroke:#b0b0b0;stroke-linecap:square;stroke-width:0.8;"/>
     </g>
     <g id="line2d_26">
      <g>
       <use style="stroke:#000000;stroke-width:0.8;" x="802.763323" xlink:href="#m05488d0e18" y="630"/>
      </g>
     </g>
     <g id="text_13">
      <!-- 240 -->
      <g transform="translate(791.310823 646.118125)scale(0.12 -0.12)">
       <use xlink:href="#DejaVuSans-50"/>
       <use x="63.623047" xlink:href="#DejaVuSans-52"/>
       <use x="127.246094" xlink:href="#DejaVuSans-48"/>
      </g>
     </g>
    </g>
    <g id="xtick_14">
     <g id="line2d_27">
      <path clip-path="url(#pca163ada33)" d="M 855.239812 630 
L 855.239812 86.4 
" style="fill:none;stroke:#b0b0b0;stroke-linecap:square;stroke-width:0.8;"/>
     </g>
     <g id="line2d_28">
      <g>
       <use style="stroke:#000000;stroke-width:0.8;" x="855.239812" xlink:href="#m05488d0e18" y="630"/>
      </g>
     </g>
     <g id="text_14">
      <!-- 260 -->
      <g transform="translate(843.787312 646.118125)scale(0.12 -0.12)">
       <use xlink:href="#DejaVuSans-50"/>
       <use x="63.623047" xlink:href="#DejaVuSans-54"/>
       <use x="127.246094" xlink:href="#DejaVuSans-48"/>
      </g>
     </g>
    </g>
    <g id="xtick_15">
     <g id="line2d_29">
      <path clip-path="url(#pca163ada33)" d="M 907.716301 630 
L 907.716301 86.4 
" style="fill:none;stroke:#b0b0b0;stroke-linecap:square;stroke-width:0.8;"/>
     </g>
     <g id="line2d_30">
      <g>
       <use style="stroke:#000000;stroke-width:0.8;" x="907.716301" xlink:href="#m05488d0e18" y="630"/>
      </g>
     </g>
     <g id="text_15">
      <!-- 280 -->
      <g transform="translate(896.263801 646.118125)scale(0.12 -0.12)">
       <use xlink:href="#DejaVuSans-50"/>
       <use x="63.623047" xlink:href="#DejaVuSans-56"/>
       <use x="127.246094" xlink:href="#DejaVuSans-48"/>
      </g>
     </g>
    </g>
    <g id="xtick_16">
     <g id="line2d_31">
      <path clip-path="url(#pca163ada33)" d="M 960.19279 630 
L 960.19279 86.4 
" style="fill:none;stroke:#b0b0b0;stroke-linecap:square;stroke-width:0.8;"/>
     </g>
     <g id="line2d_32">
      <g>
       <use style="stroke:#000000;stroke-width:0.8;" x="960.19279" xlink:href="#m05488d0e18" y="630"/>
      </g>
     </g>
     <g id="text_16">
      <!-- 300 -->
      <g transform="translate(948.74029 646.118125)scale(0.12 -0.12)">
       <defs>
        <path d="M 40.578125 39.3125 
Q 47.65625 37.796875 51.625 33 
Q 55.609375 28.21875 55.609375 21.1875 
Q 55.609375 10.40625 48.1875 4.484375 
Q 40.765625 -1.421875 27.09375 -1.421875 
Q 22.515625 -1.421875 17.65625 -0.515625 
Q 12.796875 0.390625 7.625 2.203125 
L 7.625 11.71875 
Q 11.71875 9.328125 16.59375 8.109375 
Q 21.484375 6.890625 26.8125 6.890625 
Q 36.078125 6.890625 40.9375 10.546875 
Q 45.796875 14.203125 45.796875 21.1875 
Q 45.796875 27.640625 41.28125 31.265625 
Q 36.765625 34.90625 28.71875 34.90625 
L 20.21875 34.90625 
L 20.21875 43.015625 
L 29.109375 43.015625 
Q 36.375 43.015625 40.234375 45.921875 
Q 44.09375 48.828125 44.09375 54.296875 
Q 44.09375 59.90625 40.109375 62.90625 
Q 36.140625 65.921875 28.71875 65.921875 
Q 24.65625 65.921875 20.015625 65.03125 
Q 15.375 64.15625 9.8125 62.3125 
L 9.8125 71.09375 
Q 15.4375 72.65625 20.34375 73.4375 
Q 25.25 74.21875 29.59375 74.21875 
Q 40.828125 74.21875 47.359375 69.109375 
Q 53.90625 64.015625 53.90625 55.328125 
Q 53.90625 49.265625 50.4375 45.09375 
Q 46.96875 40.921875 40.578125 39.3125 
z
" id="DejaVuSans-51"/>
       </defs>
       <use xlink:href="#DejaVuSans-51"/>
       <use x="63.623047" xlink:href="#DejaVuSans-48"/>
       <use x="127.246094" xlink:href="#DejaVuSans-48"/>
      </g>
     </g>
    </g>
    <g id="xtick_17">
     <g id="line2d_33">
      <defs>
       <path d="M 0 0 
L 0 2 
" id="m3b8e77f331" style="stroke:#000000;stroke-width:0.6;"/>
      </defs>
      <g>
       <use style="stroke:#000000;stroke-width:0.6;" x="146.80721" xlink:href="#m3b8e77f331" y="630"/>
      </g>
     </g>
    </g>
    <g id="xtick_18">
     <g id="line2d_34">
      <g>
       <use style="stroke:#000000;stroke-width:0.6;" x="159.926332" xlink:href="#m3b8e77f331" y="630"/>
      </g>
     </g>
    </g>
    <g id="xtick_19">
     <g id="line2d_35">
      <g>
       <use style="stroke:#000000;stroke-width:0.6;" x="186.164577" xlink:href="#m3b8e77f331" y="630"/>
      </g>
     </g>
    </g>
    <g id="xtick_20">
     <g id="line2d_36">
      <g>
       <use style="stroke:#000000;stroke-width:0.6;" x="199.283699" xlink:href="#m3b8e77f331" y="630"/>
      </g>
     </g>
    </g>
    <g id="xtick_21">
     <g id="line2d_37">
      <g>
       <use style="stroke:#000000;stroke-width:0.6;" x="212.402821" xlink:href="#m3b8e77f331" y="630"/>
      </g>
     </g>
    </g>
    <g id="xtick_22">
     <g id="line2d_38">
      <g>
       <use style="stroke:#000000;stroke-width:0.6;" x="238.641066" xlink:href="#m3b8e77f331" y="630"/>
      </g>
     </g>
    </g>
    <g id="xtick_23">
     <g id="line2d_39">
      <g>
       <use style="stroke:#000000;stroke-width:0.6;" x="251.760188" xlink:href="#m3b8e77f331" y="630"/>
      </g>
     </g>
    </g>
    <g id="xtick_24">
     <g id="line2d_40">
      <g>
       <use style="stroke:#000000;stroke-width:0.6;" x="264.87931" xlink:href="#m3b8e77f331" y="630"/>
      </g>
     </g>
    </g>
    <g id="xtick_25">
     <g id="line2d_41">
      <g>
       <use style="stroke:#000000;stroke-width:0.6;" x="291.117555" xlink:href="#m3b8e77f331" y="630"/>
      </g>
     </g>
    </g>
    <g id="xtick_26">
     <g id="line2d_42">
      <g>
       <use style="stroke:#000000;stroke-width:0.6;" x="304.236677" xlink:href="#m3b8e77f331" y="630"/>
      </g>
     </g>
    </g>
    <g id="xtick_27">
     <g id="line2d_43">
      <g>
       <use style="stroke:#000000;stroke-width:0.6;" x="317.355799" xlink:href="#m3b8e77f331" y="630"/>
      </g>
     </g>
    </g>
    <g id="xtick_28">
     <g id="line2d_44">
      <g>
       <use style="stroke:#000000;stroke-width:0.6;" x="343.594044" xlink:href="#m3b8e77f331" y="630"/>
      </g>
     </g>
    </g>
    <g id="xtick_29">
     <g id="line2d_45">
      <g>
       <use style="stroke:#000000;stroke-width:0.6;" x="356.713166" xlink:href="#m3b8e77f331" y="630"/>
      </g>
     </g>
    </g>
    <g id="xtick_30">
     <g id="line2d_46">
      <g>
       <use style="stroke:#000000;stroke-width:0.6;" x="369.832288" xlink:href="#m3b8e77f331" y="630"/>
      </g>
     </g>
    </g>
    <g id="xtick_31">
     <g id="line2d_47">
      <g>
       <use style="stroke:#000000;stroke-width:0.6;" x="396.070533" xlink:href="#m3b8e77f331" y="630"/>
      </g>
     </g>
    </g>
    <g id="xtick_32">
     <g id="line2d_48">
      <g>
       <use style="stroke:#000000;stroke-width:0.6;" x="409.189655" xlink:href="#m3b8e77f331" y="630"/>
      </g>
     </g>
    </g>
    <g id="xtick_33">
     <g id="line2d_49">
      <g>
       <use style="stroke:#000000;stroke-width:0.6;" x="422.308777" xlink:href="#m3b8e77f331" y="630"/>
      </g>
     </g>
    </g>
    <g id="xtick_34">
     <g id="line2d_50">
      <g>
       <use style="stroke:#000000;stroke-width:0.6;" x="448.547022" xlink:href="#m3b8e77f331" y="630"/>
      </g>
     </g>
    </g>
    <g id="xtick_35">
     <g id="line2d_51">
      <g>
       <use style="stroke:#000000;stroke-width:0.6;" x="461.666144" xlink:href="#m3b8e77f331" y="630"/>
      </g>
     </g>
    </g>
    <g id="xtick_36">
     <g id="line2d_52">
      <g>
       <use style="stroke:#000000;stroke-width:0.6;" x="474.785266" xlink:href="#m3b8e77f331" y="630"/>
      </g>
     </g>
    </g>
    <g id="xtick_37">
     <g id="line2d_53">
      <g>
       <use style="stroke:#000000;stroke-width:0.6;" x="501.023511" xlink:href="#m3b8e77f331" y="630"/>
      </g>
     </g>
    </g>
    <g id="xtick_38">
     <g id="line2d_54">
      <g>
       <use style="stroke:#000000;stroke-width:0.6;" x="514.142633" xlink:href="#m3b8e77f331" y="630"/>
      </g>
     </g>
    </g>
    <g id="xtick_39">
     <g id="line2d_55">
      <g>
       <use style="stroke:#000000;stroke-width:0.6;" x="527.261755" xlink:href="#m3b8e77f331" y="630"/>
      </g>
     </g>
    </g>
    <g id="xtick_40">
     <g id="line2d_56">
      <g>
       <use style="stroke:#000000;stroke-width:0.6;" x="553.5" xlink:href="#m3b8e77f331" y="630"/>
      </g>
     </g>
    </g>
    <g id="xtick_41">
     <g id="line2d_57">
      <g>
       <use style="stroke:#000000;stroke-width:0.6;" x="566.619122" xlink:href="#m3b8e77f331" y="630"/>
      </g>
     </g>
    </g>
    <g id="xtick_42">
     <g id="line2d_58">
      <g>
       <use style="stroke:#000000;stroke-width:0.6;" x="579.738245" xlink:href="#m3b8e77f331" y="630"/>
      </g>
     </g>
    </g>
    <g id="xtick_43">
     <g id="line2d_59">
      <g>
       <use style="stroke:#000000;stroke-width:0.6;" x="605.976489" xlink:href="#m3b8e77f331" y="630"/>
      </g>
     </g>
    </g>
    <g id="xtick_44">
     <g id="line2d_60">
      <g>
       <use style="stroke:#000000;stroke-width:0.6;" x="619.095611" xlink:href="#m3b8e77f331" y="630"/>
      </g>
     </g>
    </g>
    <g id="xtick_45">
     <g id="line2d_61">
      <g>
       <use style="stroke:#000000;stroke-width:0.6;" x="632.214734" xlink:href="#m3b8e77f331" y="630"/>
      </g>
     </g>
    </g>
    <g id="xtick_46">
     <g id="line2d_62">
      <g>
       <use style="stroke:#000000;stroke-width:0.6;" x="658.452978" xlink:href="#m3b8e77f331" y="630"/>
      </g>
     </g>
    </g>
    <g id="xtick_47">
     <g id="line2d_63">
      <g>
       <use style="stroke:#000000;stroke-width:0.6;" x="671.5721" xlink:href="#m3b8e77f331" y="630"/>
      </g>
     </g>
    </g>
    <g id="xtick_48">
     <g id="line2d_64">
      <g>
       <use style="stroke:#000000;stroke-width:0.6;" x="684.691223" xlink:href="#m3b8e77f331" y="630"/>
      </g>
     </g>
    </g>
    <g id="xtick_49">
     <g id="line2d_65">
      <g>
       <use style="stroke:#000000;stroke-width:0.6;" x="710.929467" xlink:href="#m3b8e77f331" y="630"/>
      </g>
     </g>
    </g>
    <g id="xtick_50">
     <g id="line2d_66">
      <g>
       <use style="stroke:#000000;stroke-width:0.6;" x="724.048589" xlink:href="#m3b8e77f331" y="630"/>
      </g>
     </g>
    </g>
    <g id="xtick_51">
     <g id="line2d_67">
      <g>
       <use style="stroke:#000000;stroke-width:0.6;" x="737.167712" xlink:href="#m3b8e77f331" y="630"/>
      </g>
     </g>
    </g>
    <g id="xtick_52">
     <g id="line2d_68">
      <g>
       <use style="stroke:#000000;stroke-width:0.6;" x="763.405956" xlink:href="#m3b8e77f331" y="630"/>
      </g>
     </g>
    </g>
    <g id="xtick_53">
     <g id="line2d_69">
      <g>
       <use style="stroke:#000000;stroke-width:0.6;" x="776.525078" xlink:href="#m3b8e77f331" y="630"/>
      </g>
     </g>
    </g>
    <g id="xtick_54">
     <g id="line2d_70">
      <g>
       <use style="stroke:#000000;stroke-width:0.6;" x="789.644201" xlink:href="#m3b8e77f331" y="630"/>
      </g>
     </g>
    </g>
    <g id="xtick_55">
     <g id="line2d_71">
      <g>
       <use style="stroke:#000000;stroke-width:0.6;" x="815.882445" xlink:href="#m3b8e77f331" y="630"/>
      </g>
     </g>
    </g>
    <g id="xtick_56">
     <g id="line2d_72">
      <g>
       <use style="stroke:#000000;stroke-width:0.6;" x="829.001567" xlink:href="#m3b8e77f331" y="630"/>
      </g>
     </g>
    </g>
    <g id="xtick_57">
     <g id="line2d_73">
      <g>
       <use style="stroke:#000000;stroke-width:0.6;" x="842.12069" xlink:href="#m3b8e77f331" y="630"/>
      </g>
     </g>
    </g>
    <g id="xtick_58">
     <g id="line2d_74">
      <g>
       <use style="stroke:#000000;stroke-width:0.6;" x="868.358934" xlink:href="#m3b8e77f331" y="630"/>
      </g>
     </g>
    </g>
    <g id="xtick_59">
     <g id="line2d_75">
      <g>
       <use style="stroke:#000000;stroke-width:0.6;" x="881.478056" xlink:href="#m3b8e77f331" y="630"/>
      </g>
     </g>
    </g>
    <g id="xtick_60">
     <g id="line2d_76">
      <g>
       <use style="stroke:#000000;stroke-width:0.6;" x="894.597179" xlink:href="#m3b8e77f331" y="630"/>
      </g>
     </g>
    </g>
    <g id="xtick_61">
     <g id="line2d_77">
      <g>
       <use style="stroke:#000000;stroke-width:0.6;" x="920.835423" xlink:href="#m3b8e77f331" y="630"/>
      </g>
     </g>
    </g>
    <g id="xtick_62">
     <g id="line2d_78">
      <g>
       <use style="stroke:#000000;stroke-width:0.6;" x="933.954545" xlink:href="#m3b8e77f331" y="630"/>
      </g>
     </g>
    </g>
    <g id="xtick_63">
     <g id="line2d_79">
      <g>
       <use style="stroke:#000000;stroke-width:0.6;" x="947.073668" xlink:href="#m3b8e77f331" y="630"/>
      </g>
     </g>
    </g>
    <g id="text_17">
     <!-- Epochs -->
     <g transform="translate(528.418125 663.251562)scale(0.14 -0.14)">
      <defs>
       <path d="M 9.8125 72.90625 
L 55.90625 72.90625 
L 55.90625 64.59375 
L 19.671875 64.59375 
L 19.671875 43.015625 
L 54.390625 43.015625 
L 54.390625 34.71875 
L 19.671875 34.71875 
L 19.671875 8.296875 
L 56.78125 8.296875 
L 56.78125 0 
L 9.8125 0 
z
" id="DejaVuSans-69"/>
       <path d="M 18.109375 8.203125 
L 18.109375 -20.796875 
L 9.078125 -20.796875 
L 9.078125 54.6875 
L 18.109375 54.6875 
L 18.109375 46.390625 
Q 20.953125 51.265625 25.265625 53.625 
Q 29.59375 56 35.59375 56 
Q 45.5625 56 51.78125 48.09375 
Q 58.015625 40.1875 58.015625 27.296875 
Q 58.015625 14.40625 51.78125 6.484375 
Q 45.5625 -1.421875 35.59375 -1.421875 
Q 29.59375 -1.421875 25.265625 0.953125 
Q 20.953125 3.328125 18.109375 8.203125 
z
M 48.6875 27.296875 
Q 48.6875 37.203125 44.609375 42.84375 
Q 40.53125 48.484375 33.40625 48.484375 
Q 26.265625 48.484375 22.1875 42.84375 
Q 18.109375 37.203125 18.109375 27.296875 
Q 18.109375 17.390625 22.1875 11.75 
Q 26.265625 6.109375 33.40625 6.109375 
Q 40.53125 6.109375 44.609375 11.75 
Q 48.6875 17.390625 48.6875 27.296875 
z
" id="DejaVuSans-112"/>
       <path d="M 30.609375 48.390625 
Q 23.390625 48.390625 19.1875 42.75 
Q 14.984375 37.109375 14.984375 27.296875 
Q 14.984375 17.484375 19.15625 11.84375 
Q 23.34375 6.203125 30.609375 6.203125 
Q 37.796875 6.203125 41.984375 11.859375 
Q 46.1875 17.53125 46.1875 27.296875 
Q 46.1875 37.015625 41.984375 42.703125 
Q 37.796875 48.390625 30.609375 48.390625 
z
M 30.609375 56 
Q 42.328125 56 49.015625 48.375 
Q 55.71875 40.765625 55.71875 27.296875 
Q 55.71875 13.875 49.015625 6.21875 
Q 42.328125 -1.421875 30.609375 -1.421875 
Q 18.84375 -1.421875 12.171875 6.21875 
Q 5.515625 13.875 5.515625 27.296875 
Q 5.515625 40.765625 12.171875 48.375 
Q 18.84375 56 30.609375 56 
z
" id="DejaVuSans-111"/>
       <path d="M 48.78125 52.59375 
L 48.78125 44.1875 
Q 44.96875 46.296875 41.140625 47.34375 
Q 37.3125 48.390625 33.40625 48.390625 
Q 24.65625 48.390625 19.8125 42.84375 
Q 14.984375 37.3125 14.984375 27.296875 
Q 14.984375 17.28125 19.8125 11.734375 
Q 24.65625 6.203125 33.40625 6.203125 
Q 37.3125 6.203125 41.140625 7.25 
Q 44.96875 8.296875 48.78125 10.40625 
L 48.78125 2.09375 
Q 45.015625 0.34375 40.984375 -0.53125 
Q 36.96875 -1.421875 32.421875 -1.421875 
Q 20.0625 -1.421875 12.78125 6.34375 
Q 5.515625 14.109375 5.515625 27.296875 
Q 5.515625 40.671875 12.859375 48.328125 
Q 20.21875 56 33.015625 56 
Q 37.15625 56 41.109375 55.140625 
Q 45.0625 54.296875 48.78125 52.59375 
z
" id="DejaVuSans-99"/>
       <path d="M 54.890625 33.015625 
L 54.890625 0 
L 45.90625 0 
L 45.90625 32.71875 
Q 45.90625 40.484375 42.875 44.328125 
Q 39.84375 48.1875 33.796875 48.1875 
Q 26.515625 48.1875 22.3125 43.546875 
Q 18.109375 38.921875 18.109375 30.90625 
L 18.109375 0 
L 9.078125 0 
L 9.078125 75.984375 
L 18.109375 75.984375 
L 18.109375 46.1875 
Q 21.34375 51.125 25.703125 53.5625 
Q 30.078125 56 35.796875 56 
Q 45.21875 56 50.046875 50.171875 
Q 54.890625 44.34375 54.890625 33.015625 
z
" id="DejaVuSans-104"/>
       <path d="M 44.28125 53.078125 
L 44.28125 44.578125 
Q 40.484375 46.53125 36.375 47.5 
Q 32.28125 48.484375 27.875 48.484375 
Q 21.1875 48.484375 17.84375 46.4375 
Q 14.5 44.390625 14.5 40.28125 
Q 14.5 37.15625 16.890625 35.375 
Q 19.28125 33.59375 26.515625 31.984375 
L 29.59375 31.296875 
Q 39.15625 29.25 43.1875 25.515625 
Q 47.21875 21.78125 47.21875 15.09375 
Q 47.21875 7.46875 41.1875 3.015625 
Q 35.15625 -1.421875 24.609375 -1.421875 
Q 20.21875 -1.421875 15.453125 -0.5625 
Q 10.6875 0.296875 5.421875 2 
L 5.421875 11.28125 
Q 10.40625 8.6875 15.234375 7.390625 
Q 20.0625 6.109375 24.8125 6.109375 
Q 31.15625 6.109375 34.5625 8.28125 
Q 37.984375 10.453125 37.984375 14.40625 
Q 37.984375 18.0625 35.515625 20.015625 
Q 33.0625 21.96875 24.703125 23.78125 
L 21.578125 24.515625 
Q 13.234375 26.265625 9.515625 29.90625 
Q 5.8125 33.546875 5.8125 39.890625 
Q 5.8125 47.609375 11.28125 51.796875 
Q 16.75 56 26.8125 56 
Q 31.78125 56 36.171875 55.265625 
Q 40.578125 54.546875 44.28125 53.078125 
z
" id="DejaVuSans-115"/>
      </defs>
      <use xlink:href="#DejaVuSans-69"/>
      <use x="63.183594" xlink:href="#DejaVuSans-112"/>
      <use x="126.660156" xlink:href="#DejaVuSans-111"/>
      <use x="187.841797" xlink:href="#DejaVuSans-99"/>
      <use x="242.822266" xlink:href="#DejaVuSans-104"/>
      <use x="306.201172" xlink:href="#DejaVuSans-115"/>
     </g>
    </g>
   </g>
   <g id="matplotlib.axis_2">
    <g id="ytick_1">
     <g id="line2d_80">
      <path clip-path="url(#pca163ada33)" d="M 135 577.502117 
L 972 577.502117 
" style="fill:none;stroke:#b0b0b0;stroke-linecap:square;stroke-width:0.8;"/>
     </g>
     <g id="line2d_81">
      <defs>
       <path d="M 0 0 
L -3.5 0 
" id="mce3e616179" style="stroke:#000000;stroke-width:0.8;"/>
      </defs>
      <g>
       <use style="stroke:#000000;stroke-width:0.8;" x="135" xlink:href="#mce3e616179" y="577.502117"/>
      </g>
     </g>
     <g id="text_18">
      <!-- 0.1 -->
      <g transform="translate(108.91625 582.061179)scale(0.12 -0.12)">
       <defs>
        <path d="M 10.6875 12.40625 
L 21 12.40625 
L 21 0 
L 10.6875 0 
z
" id="DejaVuSans-46"/>
       </defs>
       <use xlink:href="#DejaVuSans-48"/>
       <use x="63.623047" xlink:href="#DejaVuSans-46"/>
       <use x="95.410156" xlink:href="#DejaVuSans-49"/>
      </g>
     </g>
    </g>
    <g id="ytick_2">
     <g id="line2d_82">
      <path clip-path="url(#pca163ada33)" d="M 135 512.282484 
L 972 512.282484 
" style="fill:none;stroke:#b0b0b0;stroke-linecap:square;stroke-width:0.8;"/>
     </g>
     <g id="line2d_83">
      <g>
       <use style="stroke:#000000;stroke-width:0.8;" x="135" xlink:href="#mce3e616179" y="512.282484"/>
      </g>
     </g>
     <g id="text_19">
      <!-- 0.2 -->
      <g transform="translate(108.91625 516.841547)scale(0.12 -0.12)">
       <use xlink:href="#DejaVuSans-48"/>
       <use x="63.623047" xlink:href="#DejaVuSans-46"/>
       <use x="95.410156" xlink:href="#DejaVuSans-50"/>
      </g>
     </g>
    </g>
    <g id="ytick_3">
     <g id="line2d_84">
      <path clip-path="url(#pca163ada33)" d="M 135 447.062852 
L 972 447.062852 
" style="fill:none;stroke:#b0b0b0;stroke-linecap:square;stroke-width:0.8;"/>
     </g>
     <g id="line2d_85">
      <g>
       <use style="stroke:#000000;stroke-width:0.8;" x="135" xlink:href="#mce3e616179" y="447.062852"/>
      </g>
     </g>
     <g id="text_20">
      <!-- 0.3 -->
      <g transform="translate(108.91625 451.621914)scale(0.12 -0.12)">
       <use xlink:href="#DejaVuSans-48"/>
       <use x="63.623047" xlink:href="#DejaVuSans-46"/>
       <use x="95.410156" xlink:href="#DejaVuSans-51"/>
      </g>
     </g>
    </g>
    <g id="ytick_4">
     <g id="line2d_86">
      <path clip-path="url(#pca163ada33)" d="M 135 381.843219 
L 972 381.843219 
" style="fill:none;stroke:#b0b0b0;stroke-linecap:square;stroke-width:0.8;"/>
     </g>
     <g id="line2d_87">
      <g>
       <use style="stroke:#000000;stroke-width:0.8;" x="135" xlink:href="#mce3e616179" y="381.843219"/>
      </g>
     </g>
     <g id="text_21">
      <!-- 0.4 -->
      <g transform="translate(108.91625 386.402282)scale(0.12 -0.12)">
       <use xlink:href="#DejaVuSans-48"/>
       <use x="63.623047" xlink:href="#DejaVuSans-46"/>
       <use x="95.410156" xlink:href="#DejaVuSans-52"/>
      </g>
     </g>
    </g>
    <g id="ytick_5">
     <g id="line2d_88">
      <path clip-path="url(#pca163ada33)" d="M 135 316.623587 
L 972 316.623587 
" style="fill:none;stroke:#b0b0b0;stroke-linecap:square;stroke-width:0.8;"/>
     </g>
     <g id="line2d_89">
      <g>
       <use style="stroke:#000000;stroke-width:0.8;" x="135" xlink:href="#mce3e616179" y="316.623587"/>
      </g>
     </g>
     <g id="text_22">
      <!-- 0.5 -->
      <g transform="translate(108.91625 321.182649)scale(0.12 -0.12)">
       <defs>
        <path d="M 10.796875 72.90625 
L 49.515625 72.90625 
L 49.515625 64.59375 
L 19.828125 64.59375 
L 19.828125 46.734375 
Q 21.96875 47.46875 24.109375 47.828125 
Q 26.265625 48.1875 28.421875 48.1875 
Q 40.625 48.1875 47.75 41.5 
Q 54.890625 34.8125 54.890625 23.390625 
Q 54.890625 11.625 47.5625 5.09375 
Q 40.234375 -1.421875 26.90625 -1.421875 
Q 22.3125 -1.421875 17.546875 -0.640625 
Q 12.796875 0.140625 7.71875 1.703125 
L 7.71875 11.625 
Q 12.109375 9.234375 16.796875 8.0625 
Q 21.484375 6.890625 26.703125 6.890625 
Q 35.15625 6.890625 40.078125 11.328125 
Q 45.015625 15.765625 45.015625 23.390625 
Q 45.015625 31 40.078125 35.4375 
Q 35.15625 39.890625 26.703125 39.890625 
Q 22.75 39.890625 18.8125 39.015625 
Q 14.890625 38.140625 10.796875 36.28125 
z
" id="DejaVuSans-53"/>
       </defs>
       <use xlink:href="#DejaVuSans-48"/>
       <use x="63.623047" xlink:href="#DejaVuSans-46"/>
       <use x="95.410156" xlink:href="#DejaVuSans-53"/>
      </g>
     </g>
    </g>
    <g id="ytick_6">
     <g id="line2d_90">
      <path clip-path="url(#pca163ada33)" d="M 135 251.403954 
L 972 251.403954 
" style="fill:none;stroke:#b0b0b0;stroke-linecap:square;stroke-width:0.8;"/>
     </g>
     <g id="line2d_91">
      <g>
       <use style="stroke:#000000;stroke-width:0.8;" x="135" xlink:href="#mce3e616179" y="251.403954"/>
      </g>
     </g>
     <g id="text_23">
      <!-- 0.6 -->
      <g transform="translate(108.91625 255.963017)scale(0.12 -0.12)">
       <use xlink:href="#DejaVuSans-48"/>
       <use x="63.623047" xlink:href="#DejaVuSans-46"/>
       <use x="95.410156" xlink:href="#DejaVuSans-54"/>
      </g>
     </g>
    </g>
    <g id="ytick_7">
     <g id="line2d_92">
      <path clip-path="url(#pca163ada33)" d="M 135 186.184322 
L 972 186.184322 
" style="fill:none;stroke:#b0b0b0;stroke-linecap:square;stroke-width:0.8;"/>
     </g>
     <g id="line2d_93">
      <g>
       <use style="stroke:#000000;stroke-width:0.8;" x="135" xlink:href="#mce3e616179" y="186.184322"/>
      </g>
     </g>
     <g id="text_24">
      <!-- 0.7 -->
      <g transform="translate(108.91625 190.743385)scale(0.12 -0.12)">
       <defs>
        <path d="M 8.203125 72.90625 
L 55.078125 72.90625 
L 55.078125 68.703125 
L 28.609375 0 
L 18.3125 0 
L 43.21875 64.59375 
L 8.203125 64.59375 
z
" id="DejaVuSans-55"/>
       </defs>
       <use xlink:href="#DejaVuSans-48"/>
       <use x="63.623047" xlink:href="#DejaVuSans-46"/>
       <use x="95.410156" xlink:href="#DejaVuSans-55"/>
      </g>
     </g>
    </g>
    <g id="ytick_8">
     <g id="line2d_94">
      <path clip-path="url(#pca163ada33)" d="M 135 120.96469 
L 972 120.96469 
" style="fill:none;stroke:#b0b0b0;stroke-linecap:square;stroke-width:0.8;"/>
     </g>
     <g id="line2d_95">
      <g>
       <use style="stroke:#000000;stroke-width:0.8;" x="135" xlink:href="#mce3e616179" y="120.96469"/>
      </g>
     </g>
     <g id="text_25">
      <!-- 0.8 -->
      <g transform="translate(108.91625 125.523752)scale(0.12 -0.12)">
       <use xlink:href="#DejaVuSans-48"/>
       <use x="63.623047" xlink:href="#DejaVuSans-46"/>
       <use x="95.410156" xlink:href="#DejaVuSans-56"/>
      </g>
     </g>
    </g>
    <g id="ytick_9">
     <g id="line2d_96">
      <defs>
       <path d="M 0 0 
L -2 0 
" id="mc2190e05aa" style="stroke:#000000;stroke-width:0.6;"/>
      </defs>
      <g>
       <use style="stroke:#000000;stroke-width:0.6;" x="135" xlink:href="#mc2190e05aa" y="629.677823"/>
      </g>
     </g>
    </g>
    <g id="ytick_10">
     <g id="line2d_97">
      <g>
       <use style="stroke:#000000;stroke-width:0.6;" x="135" xlink:href="#mc2190e05aa" y="616.633896"/>
      </g>
     </g>
    </g>
    <g id="ytick_11">
     <g id="line2d_98">
      <g>
       <use style="stroke:#000000;stroke-width:0.6;" x="135" xlink:href="#mc2190e05aa" y="603.58997"/>
      </g>
     </g>
    </g>
    <g id="ytick_12">
     <g id="line2d_99">
      <g>
       <use style="stroke:#000000;stroke-width:0.6;" x="135" xlink:href="#mc2190e05aa" y="590.546043"/>
      </g>
     </g>
    </g>
    <g id="ytick_13">
     <g id="line2d_100">
      <g>
       <use style="stroke:#000000;stroke-width:0.6;" x="135" xlink:href="#mc2190e05aa" y="564.45819"/>
      </g>
     </g>
    </g>
    <g id="ytick_14">
     <g id="line2d_101">
      <g>
       <use style="stroke:#000000;stroke-width:0.6;" x="135" xlink:href="#mc2190e05aa" y="551.414264"/>
      </g>
     </g>
    </g>
    <g id="ytick_15">
     <g id="line2d_102">
      <g>
       <use style="stroke:#000000;stroke-width:0.6;" x="135" xlink:href="#mc2190e05aa" y="538.370337"/>
      </g>
     </g>
    </g>
    <g id="ytick_16">
     <g id="line2d_103">
      <g>
       <use style="stroke:#000000;stroke-width:0.6;" x="135" xlink:href="#mc2190e05aa" y="525.326411"/>
      </g>
     </g>
    </g>
    <g id="ytick_17">
     <g id="line2d_104">
      <g>
       <use style="stroke:#000000;stroke-width:0.6;" x="135" xlink:href="#mc2190e05aa" y="499.238558"/>
      </g>
     </g>
    </g>
    <g id="ytick_18">
     <g id="line2d_105">
      <g>
       <use style="stroke:#000000;stroke-width:0.6;" x="135" xlink:href="#mc2190e05aa" y="486.194631"/>
      </g>
     </g>
    </g>
    <g id="ytick_19">
     <g id="line2d_106">
      <g>
       <use style="stroke:#000000;stroke-width:0.6;" x="135" xlink:href="#mc2190e05aa" y="473.150705"/>
      </g>
     </g>
    </g>
    <g id="ytick_20">
     <g id="line2d_107">
      <g>
       <use style="stroke:#000000;stroke-width:0.6;" x="135" xlink:href="#mc2190e05aa" y="460.106778"/>
      </g>
     </g>
    </g>
    <g id="ytick_21">
     <g id="line2d_108">
      <g>
       <use style="stroke:#000000;stroke-width:0.6;" x="135" xlink:href="#mc2190e05aa" y="434.018925"/>
      </g>
     </g>
    </g>
    <g id="ytick_22">
     <g id="line2d_109">
      <g>
       <use style="stroke:#000000;stroke-width:0.6;" x="135" xlink:href="#mc2190e05aa" y="420.974999"/>
      </g>
     </g>
    </g>
    <g id="ytick_23">
     <g id="line2d_110">
      <g>
       <use style="stroke:#000000;stroke-width:0.6;" x="135" xlink:href="#mc2190e05aa" y="407.931072"/>
      </g>
     </g>
    </g>
    <g id="ytick_24">
     <g id="line2d_111">
      <g>
       <use style="stroke:#000000;stroke-width:0.6;" x="135" xlink:href="#mc2190e05aa" y="394.887146"/>
      </g>
     </g>
    </g>
    <g id="ytick_25">
     <g id="line2d_112">
      <g>
       <use style="stroke:#000000;stroke-width:0.6;" x="135" xlink:href="#mc2190e05aa" y="368.799293"/>
      </g>
     </g>
    </g>
    <g id="ytick_26">
     <g id="line2d_113">
      <g>
       <use style="stroke:#000000;stroke-width:0.6;" x="135" xlink:href="#mc2190e05aa" y="355.755366"/>
      </g>
     </g>
    </g>
    <g id="ytick_27">
     <g id="line2d_114">
      <g>
       <use style="stroke:#000000;stroke-width:0.6;" x="135" xlink:href="#mc2190e05aa" y="342.71144"/>
      </g>
     </g>
    </g>
    <g id="ytick_28">
     <g id="line2d_115">
      <g>
       <use style="stroke:#000000;stroke-width:0.6;" x="135" xlink:href="#mc2190e05aa" y="329.667513"/>
      </g>
     </g>
    </g>
    <g id="ytick_29">
     <g id="line2d_116">
      <g>
       <use style="stroke:#000000;stroke-width:0.6;" x="135" xlink:href="#mc2190e05aa" y="303.57966"/>
      </g>
     </g>
    </g>
    <g id="ytick_30">
     <g id="line2d_117">
      <g>
       <use style="stroke:#000000;stroke-width:0.6;" x="135" xlink:href="#mc2190e05aa" y="290.535734"/>
      </g>
     </g>
    </g>
    <g id="ytick_31">
     <g id="line2d_118">
      <g>
       <use style="stroke:#000000;stroke-width:0.6;" x="135" xlink:href="#mc2190e05aa" y="277.491807"/>
      </g>
     </g>
    </g>
    <g id="ytick_32">
     <g id="line2d_119">
      <g>
       <use style="stroke:#000000;stroke-width:0.6;" x="135" xlink:href="#mc2190e05aa" y="264.447881"/>
      </g>
     </g>
    </g>
    <g id="ytick_33">
     <g id="line2d_120">
      <g>
       <use style="stroke:#000000;stroke-width:0.6;" x="135" xlink:href="#mc2190e05aa" y="238.360028"/>
      </g>
     </g>
    </g>
    <g id="ytick_34">
     <g id="line2d_121">
      <g>
       <use style="stroke:#000000;stroke-width:0.6;" x="135" xlink:href="#mc2190e05aa" y="225.316102"/>
      </g>
     </g>
    </g>
    <g id="ytick_35">
     <g id="line2d_122">
      <g>
       <use style="stroke:#000000;stroke-width:0.6;" x="135" xlink:href="#mc2190e05aa" y="212.272175"/>
      </g>
     </g>
    </g>
    <g id="ytick_36">
     <g id="line2d_123">
      <g>
       <use style="stroke:#000000;stroke-width:0.6;" x="135" xlink:href="#mc2190e05aa" y="199.228249"/>
      </g>
     </g>
    </g>
    <g id="ytick_37">
     <g id="line2d_124">
      <g>
       <use style="stroke:#000000;stroke-width:0.6;" x="135" xlink:href="#mc2190e05aa" y="173.140396"/>
      </g>
     </g>
    </g>
    <g id="ytick_38">
     <g id="line2d_125">
      <g>
       <use style="stroke:#000000;stroke-width:0.6;" x="135" xlink:href="#mc2190e05aa" y="160.096469"/>
      </g>
     </g>
    </g>
    <g id="ytick_39">
     <g id="line2d_126">
      <g>
       <use style="stroke:#000000;stroke-width:0.6;" x="135" xlink:href="#mc2190e05aa" y="147.052543"/>
      </g>
     </g>
    </g>
    <g id="ytick_40">
     <g id="line2d_127">
      <g>
       <use style="stroke:#000000;stroke-width:0.6;" x="135" xlink:href="#mc2190e05aa" y="134.008616"/>
      </g>
     </g>
    </g>
    <g id="ytick_41">
     <g id="line2d_128">
      <g>
       <use style="stroke:#000000;stroke-width:0.6;" x="135" xlink:href="#mc2190e05aa" y="107.920763"/>
      </g>
     </g>
    </g>
    <g id="ytick_42">
     <g id="line2d_129">
      <g>
       <use style="stroke:#000000;stroke-width:0.6;" x="135" xlink:href="#mc2190e05aa" y="94.876837"/>
      </g>
     </g>
    </g>
   </g>
   <g id="LineCollection_1">
    <path clip-path="url(#pca163ada33)" d="M 173.045455 532.901963 
L 933.954545 532.901963 
" style="fill:none;stroke:#008000;stroke-dasharray:3.7,1.6;stroke-dashoffset:0;"/>
   </g>
   <g id="line2d_130">
    <path clip-path="url(#pca163ada33)" d="M 173.045455 605.290909 
L 175.669279 597.710884 
L 178.293103 601.735944 
L 180.916928 594.95895 
L 183.540752 591.174874 
L 186.164577 580.3861 
L 188.788401 561.764962 
L 191.412226 554.622665 
L 194.03605 546.104172 
L 196.659875 527.937004 
L 199.283699 535.656035 
L 201.907524 510.84057 
L 204.531348 490.422554 
L 207.155172 531.757554 
L 209.778997 494.023835 
L 212.402821 461.481399 
L 215.026646 466.082867 
L 217.65047 439.911829 
L 220.274295 460.786119 
L 222.898119 421.515927 
L 225.521944 397.988686 
L 228.145768 437.409339 
L 230.769592 396.278019 
L 233.393417 417.113824 
L 236.017241 421.917923 
L 238.641066 397.122283 
L 241.26489 374.250379 
L 243.888715 428.21099 
L 246.512539 382.45307 
L 249.136364 386.55355 
L 251.760188 480.35856 
L 254.384013 387.595896 
L 257.007837 388.562127 
L 259.631661 358.284681 
L 262.255486 390.978064 
L 264.87931 370.629836 
L 267.503135 353.687139 
L 270.126959 364.590168 
L 272.750784 366.34346 
L 275.374608 381.090558 
L 277.998433 373.17188 
L 280.622257 335.465625 
L 285.869906 515.817415 
L 288.49373 437.570666 
L 291.117555 428.89105 
L 293.741379 431.997933 
L 296.365204 396.026252 
L 298.989028 407.726508 
L 301.612853 409.701771 
L 304.236677 389.37121 
L 306.860502 386.965031 
L 309.484326 385.26797 
L 312.10815 374.095097 
L 314.731975 365.696967 
L 317.355799 420.867957 
L 319.979624 366.416077 
L 322.603448 356.507404 
L 325.227273 383.263727 
L 327.851097 382.036983 
L 330.474922 329.960397 
L 333.098746 384.446933 
L 335.722571 407.945466 
L 338.346395 327.967777 
L 340.970219 350.503072 
L 343.594044 347.474579 
L 346.217868 354.864436 
L 348.841693 414.870332 
L 351.465517 344.192803 
L 354.089342 329.799459 
L 356.713166 427.183027 
L 359.336991 377.692316 
L 361.960815 317.583307 
L 364.584639 309.393386 
L 367.208464 330.741588 
L 369.832288 335.75959 
L 372.456113 333.663488 
L 375.079937 366.630816 
L 377.703762 355.841979 
L 380.327586 309.377175 
L 382.951411 340.745852 
L 385.575235 337.852796 
L 388.19906 323.135864 
L 390.822884 324.56106 
L 393.446708 336.957879 
L 396.070533 306.061229 
L 398.694357 432.912384 
L 401.318182 495.284079 
L 403.942006 328.751631 
L 406.565831 325.105412 
L 409.189655 323.339467 
L 411.81348 323.629641 
L 414.437304 354.595895 
L 417.061129 362.678484 
L 419.684953 303.821663 
L 422.308777 309.883547 
L 424.932602 325.593474 
L 427.556426 328.304231 
L 430.180251 510.681751 
L 432.804075 344.076395 
L 435.4279 340.537079 
L 438.051724 320.724437 
L 440.675549 329.015313 
L 443.299373 350.642824 
L 445.923197 305.014004 
L 448.547022 387.492414 
L 451.170846 304.954022 
L 453.794671 345.280399 
L 456.418495 344.146193 
L 459.04232 296.032299 
L 461.666144 396.021587 
L 464.289969 310.54903 
L 466.913793 309.011294 
L 469.537618 293.840548 
L 472.161442 514.100635 
L 474.785266 523.15555 
L 477.409091 421.471903 
L 480.032915 413.391431 
L 482.65674 391.595227 
L 485.280564 387.929299 
L 487.904389 349.88212 
L 490.528213 364.320558 
L 493.152038 361.703643 
L 495.775862 348.017823 
L 498.399687 351.506681 
L 501.023511 367.387634 
L 503.647335 332.335088 
L 506.27116 367.297757 
L 508.894984 331.619342 
L 511.518809 409.549385 
L 514.142633 297.214222 
L 516.766458 298.36042 
L 519.390282 312.347338 
L 522.014107 298.378963 
L 524.637931 297.273505 
L 527.261755 302.409995 
L 529.88558 303.783955 
L 532.509404 297.829597 
L 535.133229 282.991962 
L 537.757053 304.034148 
L 540.380878 278.313795 
L 543.004702 302.329759 
L 545.628527 278.742691 
L 548.252351 277.838056 
L 550.876176 293.19011 
L 553.5 264.749826 
L 556.123824 275.606965 
L 558.747649 268.438612 
L 561.371473 274.503761 
L 563.995298 302.489415 
L 566.619122 263.869487 
L 569.242947 251.675512 
L 571.866771 245.973251 
L 574.490596 253.163179 
L 577.11442 297.882387 
L 579.738245 246.466133 
L 582.362069 256.119463 
L 584.985893 241.953453 
L 587.609718 256.915368 
L 590.233542 246.302707 
L 592.857367 234.939858 
L 595.481191 231.259429 
L 598.105016 246.572182 
L 600.72884 273.396515 
L 603.352665 231.697966 
L 605.976489 221.137124 
L 608.600313 222.677115 
L 611.224138 217.140846 
L 613.847962 247.938173 
L 616.471787 225.314517 
L 619.095611 222.252068 
L 621.719436 211.738535 
L 624.34326 222.511007 
L 626.967085 224.893629 
L 629.590909 214.332943 
L 632.214734 206.230333 
L 634.838558 217.666538 
L 637.462382 210.852015 
L 640.086207 201.610516 
L 642.710031 220.331035 
L 645.333856 200.224505 
L 647.95768 201.597182 
L 650.581505 197.626988 
L 653.205329 197.080226 
L 655.829154 193.794407 
L 658.452978 195.682358 
L 661.076803 198.010285 
L 663.700627 204.993364 
L 666.324451 183.061082 
L 668.948276 215.842029 
L 671.5721 185.190518 
L 674.195925 177.725557 
L 676.819749 188.065595 
L 679.443574 180.112377 
L 682.067398 177.468445 
L 684.691223 182.575391 
L 687.315047 189.82223 
L 689.938871 175.589201 
L 692.562696 168.103598 
L 695.18652 174.525377 
L 697.810345 169.648254 
L 700.434169 167.666772 
L 703.057994 173.703077 
L 705.681818 166.428093 
L 708.305643 161.525119 
L 710.929467 170.603775 
L 713.553292 156.312669 
L 716.177116 159.157852 
L 718.80094 158.908825 
L 721.424765 156.345051 
L 729.296238 152.900276 
L 731.920063 146.654557 
L 734.543887 143.037494 
L 737.167712 148.094875 
L 739.791536 144.688819 
L 742.415361 146.323896 
L 745.039185 142.923632 
L 747.663009 146.17151 
L 750.286834 146.951943 
L 752.910658 140.98736 
L 755.534483 139.777021 
L 758.158307 139.715211 
L 760.782132 134.686635 
L 763.405956 137.623833 
L 766.029781 132.67316 
L 768.653605 130.334154 
L 771.277429 127.760972 
L 773.901254 127.496435 
L 776.525078 127.45243 
L 781.772727 128.009415 
L 784.396552 128.116397 
L 787.020376 121.972877 
L 789.644201 122.031966 
L 792.268025 122.839066 
L 794.89185 119.671968 
L 797.515674 121.584877 
L 800.139498 121.759926 
L 802.763323 121.192639 
L 805.387147 121.84747 
L 808.010972 118.747624 
L 810.634796 117.953546 
L 813.258621 120.794686 
L 815.882445 119.791622 
L 818.50627 120.481168 
L 821.130094 119.796365 
L 823.753918 119.349742 
L 826.377743 115.936689 
L 829.001567 117.902932 
L 831.625392 119.100172 
L 834.249216 115.887008 
L 836.873041 118.521727 
L 839.496865 118.898843 
L 842.12069 115.203215 
L 844.744514 117.666773 
L 847.368339 116.01673 
L 849.992163 119.603744 
L 852.615987 114.346784 
L 855.239812 118.893673 
L 857.863636 116.454995 
L 860.487461 115.851322 
L 863.111285 116.791332 
L 865.73511 117.295255 
L 868.358934 116.36644 
L 870.982759 121.967979 
L 873.606583 118.492105 
L 876.230408 113.485649 
L 878.854232 117.717193 
L 881.478056 118.432162 
L 884.101881 118.998827 
L 886.725705 116.631016 
L 889.34953 112.642512 
L 891.973354 111.109091 
L 894.597179 116.686722 
L 897.221003 119.773507 
L 899.844828 120.459515 
L 902.468652 121.876159 
L 905.092476 118.414358 
L 907.716301 116.860722 
L 910.340125 120.738552 
L 912.96395 126.314901 
L 915.587774 125.953801 
L 918.211599 126.352142 
L 920.835423 131.326878 
L 923.459248 131.25706 
L 926.083072 134.895271 
L 931.330721 149.691 
L 931.330721 149.691 
" style="fill:none;stroke:#1f77b4;stroke-linecap:square;stroke-width:1.5;"/>
   </g>
   <g id="line2d_131">
    <path clip-path="url(#pca163ada33)" d="M 173.045455 602.129353 
L 178.293103 602.129353 
L 183.540752 602.138505 
L 186.164577 601.923297 
L 188.788401 600.555008 
L 191.412226 583.047535 
L 194.03605 579.89917 
L 196.659875 547.895259 
L 199.283699 571.947949 
L 201.907524 557.994648 
L 204.531348 580.441097 
L 207.155172 552.214162 
L 209.778997 574.128009 
L 212.402821 574.733101 
L 215.026646 562.137822 
L 217.65047 540.790689 
L 220.274295 557.177664 
L 222.898119 549.204922 
L 225.521944 550.365775 
L 228.145768 553.828529 
L 230.769592 551.337964 
L 233.393417 539.625715 
L 236.017241 544.930189 
L 238.641066 546.884848 
L 241.26489 510.847859 
L 243.888715 558.77202 
L 246.512539 494.205337 
L 249.136364 549.333352 
L 251.760188 524.013216 
L 254.384013 549.799314 
L 257.007837 552.052126 
L 259.631661 558.707139 
L 262.255486 543.470074 
L 264.87931 510.565188 
L 267.503135 550.488024 
L 270.126959 561.67961 
L 272.750784 546.952994 
L 275.374608 527.780517 
L 277.998433 522.04255 
L 280.622257 545.243503 
L 283.246082 545.621649 
L 285.869906 579.122221 
L 288.49373 570.223269 
L 291.117555 555.985459 
L 293.741379 559.257176 
L 296.365204 574.655771 
L 298.989028 550.604422 
L 301.612853 564.080017 
L 304.236677 559.563998 
L 306.860502 560.570833 
L 309.484326 547.086866 
L 312.10815 521.710236 
L 314.731975 520.869782 
L 317.355799 506.310076 
L 319.979624 493.963774 
L 322.603448 532.109683 
L 325.227273 545.183968 
L 327.851097 544.50313 
L 330.474922 532.938699 
L 335.722571 554.374494 
L 338.346395 552.724645 
L 340.970219 559.581754 
L 343.594044 533.552936 
L 346.217868 522.566445 
L 348.841693 545.395471 
L 351.465517 557.748935 
L 354.089342 563.385378 
L 356.713166 550.944258 
L 359.336991 547.264831 
L 361.960815 545.086355 
L 364.584639 553.86198 
L 367.208464 531.587879 
L 369.832288 530.684886 
L 372.456113 551.066118 
L 375.079937 553.273487 
L 377.703762 554.734039 
L 380.327586 515.151019 
L 382.951411 543.986009 
L 388.19906 562.039232 
L 390.822884 546.274381 
L 393.446708 545.622019 
L 396.070533 557.55789 
L 398.694357 546.95176 
L 401.318182 555.95536 
L 403.942006 560.51016 
L 406.565831 551.842178 
L 409.189655 522.335456 
L 411.81348 565.935712 
L 414.437304 523.622853 
L 417.061129 547.162612 
L 419.684953 531.800976 
L 422.308777 547.789687 
L 424.932602 539.247131 
L 427.556426 588.325206 
L 430.180251 565.630829 
L 432.804075 554.062598 
L 435.4279 557.705115 
L 438.051724 548.482343 
L 440.675549 510.951478 
L 443.299373 536.862439 
L 445.923197 546.549609 
L 448.547022 543.848988 
L 451.170846 517.121286 
L 453.794671 507.676126 
L 456.418495 519.120164 
L 459.04232 553.793435 
L 461.666144 531.244389 
L 464.289969 543.020556 
L 466.913793 542.160567 
L 469.537618 505.352378 
L 472.161442 588.925687 
L 474.785266 566.650065 
L 477.409091 566.133284 
L 480.032915 559.907828 
L 482.65674 544.859118 
L 485.280564 544.075516 
L 487.904389 542.991167 
L 490.528213 548.163227 
L 493.152038 531.661137 
L 495.775862 484.045713 
L 498.399687 539.704901 
L 501.023511 556.047239 
L 503.647335 519.610821 
L 506.27116 540.582023 
L 508.894984 488.266654 
L 511.518809 543.32007 
L 514.142633 520.788798 
L 516.766458 483.492965 
L 519.390282 543.838337 
L 522.014107 481.939018 
L 524.637931 515.020159 
L 527.261755 531.226866 
L 529.88558 488.875294 
L 532.509404 512.216572 
L 535.133229 461.334611 
L 537.757053 509.575836 
L 540.380878 493.112902 
L 543.004702 511.148423 
L 545.628527 520.71728 
L 548.252351 510.818694 
L 550.876176 508.530332 
L 553.5 490.76825 
L 556.123824 500.744457 
L 558.747649 517.489597 
L 561.371473 488.552786 
L 563.995298 519.169067 
L 566.619122 517.32274 
L 569.242947 517.319494 
L 571.866771 504.467919 
L 574.490596 513.345597 
L 577.11442 492.186643 
L 579.738245 506.748399 
L 582.362069 493.892344 
L 584.985893 517.122607 
L 587.609718 505.40342 
L 590.233542 500.643385 
L 592.857367 502.318851 
L 595.481191 504.480591 
L 598.105016 542.553174 
L 600.72884 527.043876 
L 603.352665 522.048245 
L 605.976489 517.402276 
L 608.600313 516.997181 
L 611.224138 512.627867 
L 613.847962 516.401175 
L 616.471787 505.531052 
L 619.095611 517.321953 
L 621.719436 515.976516 
L 624.34326 531.596256 
L 626.967085 518.361714 
L 632.214734 520.88572 
L 634.838558 503.03071 
L 637.462382 518.205995 
L 640.086207 544.372436 
L 642.710031 506.086328 
L 647.95768 505.022397 
L 650.581505 523.615078 
L 653.205329 494.608537 
L 655.829154 517.529676 
L 658.452978 545.202394 
L 661.076803 543.49127 
L 663.700627 517.843796 
L 666.324451 518.974765 
L 668.948276 513.067639 
L 671.5721 515.481301 
L 674.195925 525.246005 
L 676.819749 501.731719 
L 679.443574 522.450056 
L 682.067398 515.138929 
L 684.691223 529.972268 
L 687.315047 529.495849 
L 689.938871 516.72895 
L 692.562696 525.55482 
L 695.18652 520.0738 
L 697.810345 519.973719 
L 700.434169 520.639775 
L 703.057994 517.359583 
L 705.681818 522.331889 
L 708.305643 522.160669 
L 710.929467 519.676333 
L 713.553292 540.989694 
L 716.177116 530.536358 
L 718.80094 512.876874 
L 721.424765 526.273122 
L 724.048589 523.98854 
L 726.672414 521.98492 
L 729.296238 519.229905 
L 731.920063 529.326631 
L 734.543887 520.718893 
L 737.167712 533.104749 
L 739.791536 524.487273 
L 742.415361 528.885752 
L 745.039185 522.956574 
L 747.663009 524.852999 
L 750.286834 525.72879 
L 752.910658 535.53159 
L 755.534483 529.710734 
L 758.158307 527.072059 
L 760.782132 528.884313 
L 763.405956 538.197953 
L 766.029781 528.04418 
L 768.653605 537.143682 
L 771.277429 539.133513 
L 773.901254 526.136422 
L 776.525078 530.435131 
L 779.148903 533.820826 
L 781.772727 525.896628 
L 784.396552 516.048482 
L 787.020376 532.56618 
L 789.644201 525.217637 
L 792.268025 536.443417 
L 794.89185 536.336679 
L 797.515674 535.542728 
L 800.139498 533.169435 
L 802.763323 531.156699 
L 805.387147 535.388865 
L 808.010972 536.420627 
L 810.634796 532.584606 
L 813.258621 535.287073 
L 815.882445 537.119279 
L 818.50627 521.483203 
L 821.130094 519.902404 
L 823.753918 536.062637 
L 826.377743 537.796094 
L 829.001567 532.906026 
L 831.625392 533.825452 
L 834.249216 533.024669 
L 836.873041 512.754247 
L 839.496865 524.804038 
L 842.12069 527.327928 
L 844.744514 532.152348 
L 847.368339 532.296891 
L 849.992163 531.331379 
L 852.615987 532.59518 
L 855.239812 536.730054 
L 857.863636 532.613723 
L 860.487461 532.30279 
L 863.111285 525.242059 
L 865.73511 530.120747 
L 870.982759 527.500897 
L 873.606583 519.604125 
L 876.230408 509.706219 
L 878.854232 521.276714 
L 881.478056 514.257171 
L 884.101881 510.593546 
L 886.725705 511.582062 
L 889.34953 512.231509 
L 891.973354 513.5654 
L 894.597179 518.720958 
L 897.221003 522.101289 
L 899.844828 519.53732 
L 902.468652 525.390383 
L 905.092476 527.428446 
L 907.716301 526.808795 
L 910.340125 523.919189 
L 912.96395 524.297481 
L 915.587774 521.896637 
L 918.211599 524.823834 
L 920.835423 527.488302 
L 923.459248 519.235192 
L 926.083072 520.601533 
L 928.706897 519.691416 
L 931.330721 512.192227 
L 931.330721 512.192227 
" style="fill:none;stroke:#ff7f0e;stroke-linecap:square;stroke-width:1.5;"/>
   </g>
   <g id="patch_3">
    <path d="M 135 630 
L 135 86.4 
" style="fill:none;stroke:#000000;stroke-linecap:square;stroke-linejoin:miter;stroke-width:0.8;"/>
   </g>
   <g id="patch_4">
    <path d="M 972 630 
L 972 86.4 
" style="fill:none;stroke:#000000;stroke-linecap:square;stroke-linejoin:miter;stroke-width:0.8;"/>
   </g>
   <g id="patch_5">
    <path d="M 135 630 
L 972 630 
" style="fill:none;stroke:#000000;stroke-linecap:square;stroke-linejoin:miter;stroke-width:0.8;"/>
   </g>
   <g id="patch_6">
    <path d="M 135 86.4 
L 972 86.4 
" style="fill:none;stroke:#000000;stroke-linecap:square;stroke-linejoin:miter;stroke-width:0.8;"/>
   </g>
   <g id="text_26">
    <!-- Metric: prc -->
    <g transform="translate(521.47875 80.4)scale(0.12 -0.12)">
     <defs>
      <path d="M 9.8125 72.90625 
L 24.515625 72.90625 
L 43.109375 23.296875 
L 61.8125 72.90625 
L 76.515625 72.90625 
L 76.515625 0 
L 66.890625 0 
L 66.890625 64.015625 
L 48.09375 14.015625 
L 38.1875 14.015625 
L 19.390625 64.015625 
L 19.390625 0 
L 9.8125 0 
z
" id="DejaVuSans-77"/>
      <path d="M 56.203125 29.59375 
L 56.203125 25.203125 
L 14.890625 25.203125 
Q 15.484375 15.921875 20.484375 11.0625 
Q 25.484375 6.203125 34.421875 6.203125 
Q 39.59375 6.203125 44.453125 7.46875 
Q 49.3125 8.734375 54.109375 11.28125 
L 54.109375 2.78125 
Q 49.265625 0.734375 44.1875 -0.34375 
Q 39.109375 -1.421875 33.890625 -1.421875 
Q 20.796875 -1.421875 13.15625 6.1875 
Q 5.515625 13.8125 5.515625 26.8125 
Q 5.515625 40.234375 12.765625 48.109375 
Q 20.015625 56 32.328125 56 
Q 43.359375 56 49.78125 48.890625 
Q 56.203125 41.796875 56.203125 29.59375 
z
M 47.21875 32.234375 
Q 47.125 39.59375 43.09375 43.984375 
Q 39.0625 48.390625 32.421875 48.390625 
Q 24.90625 48.390625 20.390625 44.140625 
Q 15.875 39.890625 15.1875 32.171875 
z
" id="DejaVuSans-101"/>
      <path d="M 18.3125 70.21875 
L 18.3125 54.6875 
L 36.8125 54.6875 
L 36.8125 47.703125 
L 18.3125 47.703125 
L 18.3125 18.015625 
Q 18.3125 11.328125 20.140625 9.421875 
Q 21.96875 7.515625 27.59375 7.515625 
L 36.8125 7.515625 
L 36.8125 0 
L 27.59375 0 
Q 17.1875 0 13.234375 3.875 
Q 9.28125 7.765625 9.28125 18.015625 
L 9.28125 47.703125 
L 2.6875 47.703125 
L 2.6875 54.6875 
L 9.28125 54.6875 
L 9.28125 70.21875 
z
" id="DejaVuSans-116"/>
      <path d="M 41.109375 46.296875 
Q 39.59375 47.171875 37.8125 47.578125 
Q 36.03125 48 33.890625 48 
Q 26.265625 48 22.1875 43.046875 
Q 18.109375 38.09375 18.109375 28.8125 
L 18.109375 0 
L 9.078125 0 
L 9.078125 54.6875 
L 18.109375 54.6875 
L 18.109375 46.1875 
Q 20.953125 51.171875 25.484375 53.578125 
Q 30.03125 56 36.53125 56 
Q 37.453125 56 38.578125 55.875 
Q 39.703125 55.765625 41.0625 55.515625 
z
" id="DejaVuSans-114"/>
      <path d="M 9.421875 54.6875 
L 18.40625 54.6875 
L 18.40625 0 
L 9.421875 0 
z
M 9.421875 75.984375 
L 18.40625 75.984375 
L 18.40625 64.59375 
L 9.421875 64.59375 
z
" id="DejaVuSans-105"/>
      <path d="M 11.71875 12.40625 
L 22.015625 12.40625 
L 22.015625 0 
L 11.71875 0 
z
M 11.71875 51.703125 
L 22.015625 51.703125 
L 22.015625 39.3125 
L 11.71875 39.3125 
z
" id="DejaVuSans-58"/>
      <path id="DejaVuSans-32"/>
     </defs>
     <use xlink:href="#DejaVuSans-77"/>
     <use x="86.279297" xlink:href="#DejaVuSans-101"/>
     <use x="147.802734" xlink:href="#DejaVuSans-116"/>
     <use x="187.011719" xlink:href="#DejaVuSans-114"/>
     <use x="228.125" xlink:href="#DejaVuSans-105"/>
     <use x="255.908203" xlink:href="#DejaVuSans-99"/>
     <use x="310.888672" xlink:href="#DejaVuSans-58"/>
     <use x="344.580078" xlink:href="#DejaVuSans-32"/>
     <use x="376.367188" xlink:href="#DejaVuSans-112"/>
     <use x="439.84375" xlink:href="#DejaVuSans-114"/>
     <use x="478.707031" xlink:href="#DejaVuSans-99"/>
    </g>
   </g>
   <g id="legend_1">
    <g id="patch_7">
     <path d="M 142 139.26875 
L 218.684375 139.26875 
Q 220.684375 139.26875 220.684375 137.26875 
L 220.684375 93.4 
Q 220.684375 91.4 218.684375 91.4 
L 142 91.4 
Q 140 91.4 140 93.4 
L 140 137.26875 
Q 140 139.26875 142 139.26875 
z
" style="fill:#ffffff;opacity:0.8;stroke:#cccccc;stroke-linejoin:miter;"/>
    </g>
    <g id="line2d_132">
     <path d="M 144 99.498437 
L 164 99.498437 
" style="fill:none;stroke:#1f77b4;stroke-linecap:square;stroke-width:1.5;"/>
    </g>
    <g id="line2d_133"/>
    <g id="text_27">
     <!-- prc_train -->
     <g transform="translate(172 102.998437)scale(0.1 -0.1)">
      <defs>
       <path d="M 50.984375 -16.609375 
L 50.984375 -23.578125 
L -0.984375 -23.578125 
L -0.984375 -16.609375 
z
" id="DejaVuSans-95"/>
       <path d="M 34.28125 27.484375 
Q 23.390625 27.484375 19.1875 25 
Q 14.984375 22.515625 14.984375 16.5 
Q 14.984375 11.71875 18.140625 8.90625 
Q 21.296875 6.109375 26.703125 6.109375 
Q 34.1875 6.109375 38.703125 11.40625 
Q 43.21875 16.703125 43.21875 25.484375 
L 43.21875 27.484375 
z
M 52.203125 31.203125 
L 52.203125 0 
L 43.21875 0 
L 43.21875 8.296875 
Q 40.140625 3.328125 35.546875 0.953125 
Q 30.953125 -1.421875 24.3125 -1.421875 
Q 15.921875 -1.421875 10.953125 3.296875 
Q 6 8.015625 6 15.921875 
Q 6 25.140625 12.171875 29.828125 
Q 18.359375 34.515625 30.609375 34.515625 
L 43.21875 34.515625 
L 43.21875 35.40625 
Q 43.21875 41.609375 39.140625 45 
Q 35.0625 48.390625 27.6875 48.390625 
Q 23 48.390625 18.546875 47.265625 
Q 14.109375 46.140625 10.015625 43.890625 
L 10.015625 52.203125 
Q 14.9375 54.109375 19.578125 55.046875 
Q 24.21875 56 28.609375 56 
Q 40.484375 56 46.34375 49.84375 
Q 52.203125 43.703125 52.203125 31.203125 
z
" id="DejaVuSans-97"/>
       <path d="M 54.890625 33.015625 
L 54.890625 0 
L 45.90625 0 
L 45.90625 32.71875 
Q 45.90625 40.484375 42.875 44.328125 
Q 39.84375 48.1875 33.796875 48.1875 
Q 26.515625 48.1875 22.3125 43.546875 
Q 18.109375 38.921875 18.109375 30.90625 
L 18.109375 0 
L 9.078125 0 
L 9.078125 54.6875 
L 18.109375 54.6875 
L 18.109375 46.1875 
Q 21.34375 51.125 25.703125 53.5625 
Q 30.078125 56 35.796875 56 
Q 45.21875 56 50.046875 50.171875 
Q 54.890625 44.34375 54.890625 33.015625 
z
" id="DejaVuSans-110"/>
      </defs>
      <use xlink:href="#DejaVuSans-112"/>
      <use x="63.476562" xlink:href="#DejaVuSans-114"/>
      <use x="102.339844" xlink:href="#DejaVuSans-99"/>
      <use x="157.320312" xlink:href="#DejaVuSans-95"/>
      <use x="207.320312" xlink:href="#DejaVuSans-116"/>
      <use x="246.529297" xlink:href="#DejaVuSans-114"/>
      <use x="287.642578" xlink:href="#DejaVuSans-97"/>
      <use x="348.921875" xlink:href="#DejaVuSans-105"/>
      <use x="376.705078" xlink:href="#DejaVuSans-110"/>
     </g>
    </g>
    <g id="line2d_134">
     <path d="M 144 114.454687 
L 164 114.454687 
" style="fill:none;stroke:#ff7f0e;stroke-linecap:square;stroke-width:1.5;"/>
    </g>
    <g id="line2d_135"/>
    <g id="text_28">
     <!-- prc_valid -->
     <g transform="translate(172 117.954687)scale(0.1 -0.1)">
      <defs>
       <path d="M 2.984375 54.6875 
L 12.5 54.6875 
L 29.59375 8.796875 
L 46.6875 54.6875 
L 56.203125 54.6875 
L 35.6875 0 
L 23.484375 0 
z
" id="DejaVuSans-118"/>
       <path d="M 9.421875 75.984375 
L 18.40625 75.984375 
L 18.40625 0 
L 9.421875 0 
z
" id="DejaVuSans-108"/>
       <path d="M 45.40625 46.390625 
L 45.40625 75.984375 
L 54.390625 75.984375 
L 54.390625 0 
L 45.40625 0 
L 45.40625 8.203125 
Q 42.578125 3.328125 38.25 0.953125 
Q 33.9375 -1.421875 27.875 -1.421875 
Q 17.96875 -1.421875 11.734375 6.484375 
Q 5.515625 14.40625 5.515625 27.296875 
Q 5.515625 40.1875 11.734375 48.09375 
Q 17.96875 56 27.875 56 
Q 33.9375 56 38.25 53.625 
Q 42.578125 51.265625 45.40625 46.390625 
z
M 14.796875 27.296875 
Q 14.796875 17.390625 18.875 11.75 
Q 22.953125 6.109375 30.078125 6.109375 
Q 37.203125 6.109375 41.296875 11.75 
Q 45.40625 17.390625 45.40625 27.296875 
Q 45.40625 37.203125 41.296875 42.84375 
Q 37.203125 48.484375 30.078125 48.484375 
Q 22.953125 48.484375 18.875 42.84375 
Q 14.796875 37.203125 14.796875 27.296875 
z
" id="DejaVuSans-100"/>
      </defs>
      <use xlink:href="#DejaVuSans-112"/>
      <use x="63.476562" xlink:href="#DejaVuSans-114"/>
      <use x="102.339844" xlink:href="#DejaVuSans-99"/>
      <use x="157.320312" xlink:href="#DejaVuSans-95"/>
      <use x="207.320312" xlink:href="#DejaVuSans-118"/>
      <use x="266.5" xlink:href="#DejaVuSans-97"/>
      <use x="327.779297" xlink:href="#DejaVuSans-108"/>
      <use x="355.5625" xlink:href="#DejaVuSans-105"/>
      <use x="383.345703" xlink:href="#DejaVuSans-100"/>
     </g>
    </g>
    <g id="line2d_136">
     <path d="M 144 129.410937 
L 164 129.410937 
" style="fill:none;stroke:#008000;stroke-dasharray:3.7,1.6;stroke-dashoffset:0;"/>
    </g>
    <g id="text_29">
     <!-- prc_test -->
     <g transform="translate(172 132.910937)scale(0.1 -0.1)">
      <use xlink:href="#DejaVuSans-112"/>
      <use x="63.476562" xlink:href="#DejaVuSans-114"/>
      <use x="102.339844" xlink:href="#DejaVuSans-99"/>
      <use x="157.320312" xlink:href="#DejaVuSans-95"/>
      <use x="207.320312" xlink:href="#DejaVuSans-116"/>
      <use x="246.529297" xlink:href="#DejaVuSans-101"/>
      <use x="308.052734" xlink:href="#DejaVuSans-115"/>
      <use x="360.152344" xlink:href="#DejaVuSans-116"/>
     </g>
    </g>
   </g>
  </g>
 </g>
 <defs>
  <clipPath id="pca163ada33">
   <rect height="543.6" width="837" x="135" y="86.4"/>
  </clipPath>
 </defs>
</svg>
