<?xml version="1.0" encoding="utf-8" standalone="no"?>
<!DOCTYPE svg PUBLIC "-//W3C//DTD SVG 1.1//EN"
  "http://www.w3.org/Graphics/SVG/1.1/DTD/svg11.dtd">
<!-- Created with matplotlib (https://matplotlib.org/) -->
<svg height="720pt" version="1.1" viewBox="0 0 1080 720" width="1080pt" xmlns="http://www.w3.org/2000/svg" xmlns:xlink="http://www.w3.org/1999/xlink">
 <metadata>
  <rdf:RDF xmlns:cc="http://creativecommons.org/ns#" xmlns:dc="http://purl.org/dc/elements/1.1/" xmlns:rdf="http://www.w3.org/1999/02/22-rdf-syntax-ns#">
   <cc:Work>
    <dc:type rdf:resource="http://purl.org/dc/dcmitype/StillImage"/>
    <dc:date>2021-05-31T22:10:19.098194</dc:date>
    <dc:format>image/svg+xml</dc:format>
    <dc:creator>
     <cc:Agent>
      <dc:title>Matplotlib v3.3.4, https://matplotlib.org/</dc:title>
     </cc:Agent>
    </dc:creator>
   </cc:Work>
  </rdf:RDF>
 </metadata>
 <defs>
  <style type="text/css">*{stroke-linecap:butt;stroke-linejoin:round;}</style>
 </defs>
 <g id="figure_1">
  <g id="patch_1">
   <path d="M 0 720 
L 1080 720 
L 1080 0 
L 0 0 
z
" style="fill:none;"/>
  </g>
  <g id="axes_1">
   <g id="patch_2">
    <path d="M 135 630 
L 972 630 
L 972 86.4 
L 135 86.4 
z
" style="fill:#ffffff;"/>
   </g>
   <g id="matplotlib.axis_1">
    <g id="xtick_1">
     <g id="line2d_1">
      <path clip-path="url(#p751c775625)" d="M 173.045455 630 
L 173.045455 86.4 
" style="fill:none;stroke:#b0b0b0;stroke-linecap:square;stroke-width:0.8;"/>
     </g>
     <g id="line2d_2">
      <defs>
       <path d="M 0 0 
L 0 3.5 
" id="mee97bf95ce" style="stroke:#000000;stroke-width:0.8;"/>
      </defs>
      <g>
       <use style="stroke:#000000;stroke-width:0.8;" x="173.045455" xlink:href="#mee97bf95ce" y="630"/>
      </g>
     </g>
     <g id="text_1">
      <!-- 0 -->
      <g transform="translate(169.227955 646.118125)scale(0.12 -0.12)">
       <defs>
        <path d="M 31.78125 66.40625 
Q 24.171875 66.40625 20.328125 58.90625 
Q 16.5 51.421875 16.5 36.375 
Q 16.5 21.390625 20.328125 13.890625 
Q 24.171875 6.390625 31.78125 6.390625 
Q 39.453125 6.390625 43.28125 13.890625 
Q 47.125 21.390625 47.125 36.375 
Q 47.125 51.421875 43.28125 58.90625 
Q 39.453125 66.40625 31.78125 66.40625 
z
M 31.78125 74.21875 
Q 44.046875 74.21875 50.515625 64.515625 
Q 56.984375 54.828125 56.984375 36.375 
Q 56.984375 17.96875 50.515625 8.265625 
Q 44.046875 -1.421875 31.78125 -1.421875 
Q 19.53125 -1.421875 13.0625 8.265625 
Q 6.59375 17.96875 6.59375 36.375 
Q 6.59375 54.828125 13.0625 64.515625 
Q 19.53125 74.21875 31.78125 74.21875 
z
" id="DejaVuSans-48"/>
       </defs>
       <use xlink:href="#DejaVuSans-48"/>
      </g>
     </g>
    </g>
    <g id="xtick_2">
     <g id="line2d_3">
      <path clip-path="url(#p751c775625)" d="M 227.396104 630 
L 227.396104 86.4 
" style="fill:none;stroke:#b0b0b0;stroke-linecap:square;stroke-width:0.8;"/>
     </g>
     <g id="line2d_4">
      <g>
       <use style="stroke:#000000;stroke-width:0.8;" x="227.396104" xlink:href="#mee97bf95ce" y="630"/>
      </g>
     </g>
     <g id="text_2">
      <!-- 20 -->
      <g transform="translate(219.761104 646.118125)scale(0.12 -0.12)">
       <defs>
        <path d="M 19.1875 8.296875 
L 53.609375 8.296875 
L 53.609375 0 
L 7.328125 0 
L 7.328125 8.296875 
Q 12.9375 14.109375 22.625 23.890625 
Q 32.328125 33.6875 34.8125 36.53125 
Q 39.546875 41.84375 41.421875 45.53125 
Q 43.3125 49.21875 43.3125 52.78125 
Q 43.3125 58.59375 39.234375 62.25 
Q 35.15625 65.921875 28.609375 65.921875 
Q 23.96875 65.921875 18.8125 64.3125 
Q 13.671875 62.703125 7.8125 59.421875 
L 7.8125 69.390625 
Q 13.765625 71.78125 18.9375 73 
Q 24.125 74.21875 28.421875 74.21875 
Q 39.75 74.21875 46.484375 68.546875 
Q 53.21875 62.890625 53.21875 53.421875 
Q 53.21875 48.921875 51.53125 44.890625 
Q 49.859375 40.875 45.40625 35.40625 
Q 44.1875 33.984375 37.640625 27.21875 
Q 31.109375 20.453125 19.1875 8.296875 
z
" id="DejaVuSans-50"/>
       </defs>
       <use xlink:href="#DejaVuSans-50"/>
       <use x="63.623047" xlink:href="#DejaVuSans-48"/>
      </g>
     </g>
    </g>
    <g id="xtick_3">
     <g id="line2d_5">
      <path clip-path="url(#p751c775625)" d="M 281.746753 630 
L 281.746753 86.4 
" style="fill:none;stroke:#b0b0b0;stroke-linecap:square;stroke-width:0.8;"/>
     </g>
     <g id="line2d_6">
      <g>
       <use style="stroke:#000000;stroke-width:0.8;" x="281.746753" xlink:href="#mee97bf95ce" y="630"/>
      </g>
     </g>
     <g id="text_3">
      <!-- 40 -->
      <g transform="translate(274.111753 646.118125)scale(0.12 -0.12)">
       <defs>
        <path d="M 37.796875 64.3125 
L 12.890625 25.390625 
L 37.796875 25.390625 
z
M 35.203125 72.90625 
L 47.609375 72.90625 
L 47.609375 25.390625 
L 58.015625 25.390625 
L 58.015625 17.1875 
L 47.609375 17.1875 
L 47.609375 0 
L 37.796875 0 
L 37.796875 17.1875 
L 4.890625 17.1875 
L 4.890625 26.703125 
z
" id="DejaVuSans-52"/>
       </defs>
       <use xlink:href="#DejaVuSans-52"/>
       <use x="63.623047" xlink:href="#DejaVuSans-48"/>
      </g>
     </g>
    </g>
    <g id="xtick_4">
     <g id="line2d_7">
      <path clip-path="url(#p751c775625)" d="M 336.097403 630 
L 336.097403 86.4 
" style="fill:none;stroke:#b0b0b0;stroke-linecap:square;stroke-width:0.8;"/>
     </g>
     <g id="line2d_8">
      <g>
       <use style="stroke:#000000;stroke-width:0.8;" x="336.097403" xlink:href="#mee97bf95ce" y="630"/>
      </g>
     </g>
     <g id="text_4">
      <!-- 60 -->
      <g transform="translate(328.462403 646.118125)scale(0.12 -0.12)">
       <defs>
        <path d="M 33.015625 40.375 
Q 26.375 40.375 22.484375 35.828125 
Q 18.609375 31.296875 18.609375 23.390625 
Q 18.609375 15.53125 22.484375 10.953125 
Q 26.375 6.390625 33.015625 6.390625 
Q 39.65625 6.390625 43.53125 10.953125 
Q 47.40625 15.53125 47.40625 23.390625 
Q 47.40625 31.296875 43.53125 35.828125 
Q 39.65625 40.375 33.015625 40.375 
z
M 52.59375 71.296875 
L 52.59375 62.3125 
Q 48.875 64.0625 45.09375 64.984375 
Q 41.3125 65.921875 37.59375 65.921875 
Q 27.828125 65.921875 22.671875 59.328125 
Q 17.53125 52.734375 16.796875 39.40625 
Q 19.671875 43.65625 24.015625 45.921875 
Q 28.375 48.1875 33.59375 48.1875 
Q 44.578125 48.1875 50.953125 41.515625 
Q 57.328125 34.859375 57.328125 23.390625 
Q 57.328125 12.15625 50.6875 5.359375 
Q 44.046875 -1.421875 33.015625 -1.421875 
Q 20.359375 -1.421875 13.671875 8.265625 
Q 6.984375 17.96875 6.984375 36.375 
Q 6.984375 53.65625 15.1875 63.9375 
Q 23.390625 74.21875 37.203125 74.21875 
Q 40.921875 74.21875 44.703125 73.484375 
Q 48.484375 72.75 52.59375 71.296875 
z
" id="DejaVuSans-54"/>
       </defs>
       <use xlink:href="#DejaVuSans-54"/>
       <use x="63.623047" xlink:href="#DejaVuSans-48"/>
      </g>
     </g>
    </g>
    <g id="xtick_5">
     <g id="line2d_9">
      <path clip-path="url(#p751c775625)" d="M 390.448052 630 
L 390.448052 86.4 
" style="fill:none;stroke:#b0b0b0;stroke-linecap:square;stroke-width:0.8;"/>
     </g>
     <g id="line2d_10">
      <g>
       <use style="stroke:#000000;stroke-width:0.8;" x="390.448052" xlink:href="#mee97bf95ce" y="630"/>
      </g>
     </g>
     <g id="text_5">
      <!-- 80 -->
      <g transform="translate(382.813052 646.118125)scale(0.12 -0.12)">
       <defs>
        <path d="M 31.78125 34.625 
Q 24.75 34.625 20.71875 30.859375 
Q 16.703125 27.09375 16.703125 20.515625 
Q 16.703125 13.921875 20.71875 10.15625 
Q 24.75 6.390625 31.78125 6.390625 
Q 38.8125 6.390625 42.859375 10.171875 
Q 46.921875 13.96875 46.921875 20.515625 
Q 46.921875 27.09375 42.890625 30.859375 
Q 38.875 34.625 31.78125 34.625 
z
M 21.921875 38.8125 
Q 15.578125 40.375 12.03125 44.71875 
Q 8.5 49.078125 8.5 55.328125 
Q 8.5 64.0625 14.71875 69.140625 
Q 20.953125 74.21875 31.78125 74.21875 
Q 42.671875 74.21875 48.875 69.140625 
Q 55.078125 64.0625 55.078125 55.328125 
Q 55.078125 49.078125 51.53125 44.71875 
Q 48 40.375 41.703125 38.8125 
Q 48.828125 37.15625 52.796875 32.3125 
Q 56.78125 27.484375 56.78125 20.515625 
Q 56.78125 9.90625 50.3125 4.234375 
Q 43.84375 -1.421875 31.78125 -1.421875 
Q 19.734375 -1.421875 13.25 4.234375 
Q 6.78125 9.90625 6.78125 20.515625 
Q 6.78125 27.484375 10.78125 32.3125 
Q 14.796875 37.15625 21.921875 38.8125 
z
M 18.3125 54.390625 
Q 18.3125 48.734375 21.84375 45.5625 
Q 25.390625 42.390625 31.78125 42.390625 
Q 38.140625 42.390625 41.71875 45.5625 
Q 45.3125 48.734375 45.3125 54.390625 
Q 45.3125 60.0625 41.71875 63.234375 
Q 38.140625 66.40625 31.78125 66.40625 
Q 25.390625 66.40625 21.84375 63.234375 
Q 18.3125 60.0625 18.3125 54.390625 
z
" id="DejaVuSans-56"/>
       </defs>
       <use xlink:href="#DejaVuSans-56"/>
       <use x="63.623047" xlink:href="#DejaVuSans-48"/>
      </g>
     </g>
    </g>
    <g id="xtick_6">
     <g id="line2d_11">
      <path clip-path="url(#p751c775625)" d="M 444.798701 630 
L 444.798701 86.4 
" style="fill:none;stroke:#b0b0b0;stroke-linecap:square;stroke-width:0.8;"/>
     </g>
     <g id="line2d_12">
      <g>
       <use style="stroke:#000000;stroke-width:0.8;" x="444.798701" xlink:href="#mee97bf95ce" y="630"/>
      </g>
     </g>
     <g id="text_6">
      <!-- 100 -->
      <g transform="translate(433.346201 646.118125)scale(0.12 -0.12)">
       <defs>
        <path d="M 12.40625 8.296875 
L 28.515625 8.296875 
L 28.515625 63.921875 
L 10.984375 60.40625 
L 10.984375 69.390625 
L 28.421875 72.90625 
L 38.28125 72.90625 
L 38.28125 8.296875 
L 54.390625 8.296875 
L 54.390625 0 
L 12.40625 0 
z
" id="DejaVuSans-49"/>
       </defs>
       <use xlink:href="#DejaVuSans-49"/>
       <use x="63.623047" xlink:href="#DejaVuSans-48"/>
       <use x="127.246094" xlink:href="#DejaVuSans-48"/>
      </g>
     </g>
    </g>
    <g id="xtick_7">
     <g id="line2d_13">
      <path clip-path="url(#p751c775625)" d="M 499.149351 630 
L 499.149351 86.4 
" style="fill:none;stroke:#b0b0b0;stroke-linecap:square;stroke-width:0.8;"/>
     </g>
     <g id="line2d_14">
      <g>
       <use style="stroke:#000000;stroke-width:0.8;" x="499.149351" xlink:href="#mee97bf95ce" y="630"/>
      </g>
     </g>
     <g id="text_7">
      <!-- 120 -->
      <g transform="translate(487.696851 646.118125)scale(0.12 -0.12)">
       <use xlink:href="#DejaVuSans-49"/>
       <use x="63.623047" xlink:href="#DejaVuSans-50"/>
       <use x="127.246094" xlink:href="#DejaVuSans-48"/>
      </g>
     </g>
    </g>
    <g id="xtick_8">
     <g id="line2d_15">
      <path clip-path="url(#p751c775625)" d="M 553.5 630 
L 553.5 86.4 
" style="fill:none;stroke:#b0b0b0;stroke-linecap:square;stroke-width:0.8;"/>
     </g>
     <g id="line2d_16">
      <g>
       <use style="stroke:#000000;stroke-width:0.8;" x="553.5" xlink:href="#mee97bf95ce" y="630"/>
      </g>
     </g>
     <g id="text_8">
      <!-- 140 -->
      <g transform="translate(542.0475 646.118125)scale(0.12 -0.12)">
       <use xlink:href="#DejaVuSans-49"/>
       <use x="63.623047" xlink:href="#DejaVuSans-52"/>
       <use x="127.246094" xlink:href="#DejaVuSans-48"/>
      </g>
     </g>
    </g>
    <g id="xtick_9">
     <g id="line2d_17">
      <path clip-path="url(#p751c775625)" d="M 607.850649 630 
L 607.850649 86.4 
" style="fill:none;stroke:#b0b0b0;stroke-linecap:square;stroke-width:0.8;"/>
     </g>
     <g id="line2d_18">
      <g>
       <use style="stroke:#000000;stroke-width:0.8;" x="607.850649" xlink:href="#mee97bf95ce" y="630"/>
      </g>
     </g>
     <g id="text_9">
      <!-- 160 -->
      <g transform="translate(596.398149 646.118125)scale(0.12 -0.12)">
       <use xlink:href="#DejaVuSans-49"/>
       <use x="63.623047" xlink:href="#DejaVuSans-54"/>
       <use x="127.246094" xlink:href="#DejaVuSans-48"/>
      </g>
     </g>
    </g>
    <g id="xtick_10">
     <g id="line2d_19">
      <path clip-path="url(#p751c775625)" d="M 662.201299 630 
L 662.201299 86.4 
" style="fill:none;stroke:#b0b0b0;stroke-linecap:square;stroke-width:0.8;"/>
     </g>
     <g id="line2d_20">
      <g>
       <use style="stroke:#000000;stroke-width:0.8;" x="662.201299" xlink:href="#mee97bf95ce" y="630"/>
      </g>
     </g>
     <g id="text_10">
      <!-- 180 -->
      <g transform="translate(650.748799 646.118125)scale(0.12 -0.12)">
       <use xlink:href="#DejaVuSans-49"/>
       <use x="63.623047" xlink:href="#DejaVuSans-56"/>
       <use x="127.246094" xlink:href="#DejaVuSans-48"/>
      </g>
     </g>
    </g>
    <g id="xtick_11">
     <g id="line2d_21">
      <path clip-path="url(#p751c775625)" d="M 716.551948 630 
L 716.551948 86.4 
" style="fill:none;stroke:#b0b0b0;stroke-linecap:square;stroke-width:0.8;"/>
     </g>
     <g id="line2d_22">
      <g>
       <use style="stroke:#000000;stroke-width:0.8;" x="716.551948" xlink:href="#mee97bf95ce" y="630"/>
      </g>
     </g>
     <g id="text_11">
      <!-- 200 -->
      <g transform="translate(705.099448 646.118125)scale(0.12 -0.12)">
       <use xlink:href="#DejaVuSans-50"/>
       <use x="63.623047" xlink:href="#DejaVuSans-48"/>
       <use x="127.246094" xlink:href="#DejaVuSans-48"/>
      </g>
     </g>
    </g>
    <g id="xtick_12">
     <g id="line2d_23">
      <path clip-path="url(#p751c775625)" d="M 770.902597 630 
L 770.902597 86.4 
" style="fill:none;stroke:#b0b0b0;stroke-linecap:square;stroke-width:0.8;"/>
     </g>
     <g id="line2d_24">
      <g>
       <use style="stroke:#000000;stroke-width:0.8;" x="770.902597" xlink:href="#mee97bf95ce" y="630"/>
      </g>
     </g>
     <g id="text_12">
      <!-- 220 -->
      <g transform="translate(759.450097 646.118125)scale(0.12 -0.12)">
       <use xlink:href="#DejaVuSans-50"/>
       <use x="63.623047" xlink:href="#DejaVuSans-50"/>
       <use x="127.246094" xlink:href="#DejaVuSans-48"/>
      </g>
     </g>
    </g>
    <g id="xtick_13">
     <g id="line2d_25">
      <path clip-path="url(#p751c775625)" d="M 825.253247 630 
L 825.253247 86.4 
" style="fill:none;stroke:#b0b0b0;stroke-linecap:square;stroke-width:0.8;"/>
     </g>
     <g id="line2d_26">
      <g>
       <use style="stroke:#000000;stroke-width:0.8;" x="825.253247" xlink:href="#mee97bf95ce" y="630"/>
      </g>
     </g>
     <g id="text_13">
      <!-- 240 -->
      <g transform="translate(813.800747 646.118125)scale(0.12 -0.12)">
       <use xlink:href="#DejaVuSans-50"/>
       <use x="63.623047" xlink:href="#DejaVuSans-52"/>
       <use x="127.246094" xlink:href="#DejaVuSans-48"/>
      </g>
     </g>
    </g>
    <g id="xtick_14">
     <g id="line2d_27">
      <path clip-path="url(#p751c775625)" d="M 879.603896 630 
L 879.603896 86.4 
" style="fill:none;stroke:#b0b0b0;stroke-linecap:square;stroke-width:0.8;"/>
     </g>
     <g id="line2d_28">
      <g>
       <use style="stroke:#000000;stroke-width:0.8;" x="879.603896" xlink:href="#mee97bf95ce" y="630"/>
      </g>
     </g>
     <g id="text_14">
      <!-- 260 -->
      <g transform="translate(868.151396 646.118125)scale(0.12 -0.12)">
       <use xlink:href="#DejaVuSans-50"/>
       <use x="63.623047" xlink:href="#DejaVuSans-54"/>
       <use x="127.246094" xlink:href="#DejaVuSans-48"/>
      </g>
     </g>
    </g>
    <g id="xtick_15">
     <g id="line2d_29">
      <path clip-path="url(#p751c775625)" d="M 933.954545 630 
L 933.954545 86.4 
" style="fill:none;stroke:#b0b0b0;stroke-linecap:square;stroke-width:0.8;"/>
     </g>
     <g id="line2d_30">
      <g>
       <use style="stroke:#000000;stroke-width:0.8;" x="933.954545" xlink:href="#mee97bf95ce" y="630"/>
      </g>
     </g>
     <g id="text_15">
      <!-- 280 -->
      <g transform="translate(922.502045 646.118125)scale(0.12 -0.12)">
       <use xlink:href="#DejaVuSans-50"/>
       <use x="63.623047" xlink:href="#DejaVuSans-56"/>
       <use x="127.246094" xlink:href="#DejaVuSans-48"/>
      </g>
     </g>
    </g>
    <g id="xtick_16">
     <g id="line2d_31">
      <defs>
       <path d="M 0 0 
L 0 2 
" id="m73865fbba6" style="stroke:#000000;stroke-width:0.6;"/>
      </defs>
      <g>
       <use style="stroke:#000000;stroke-width:0.6;" x="145.87013" xlink:href="#m73865fbba6" y="630"/>
      </g>
     </g>
    </g>
    <g id="xtick_17">
     <g id="line2d_32">
      <g>
       <use style="stroke:#000000;stroke-width:0.6;" x="159.457792" xlink:href="#m73865fbba6" y="630"/>
      </g>
     </g>
    </g>
    <g id="xtick_18">
     <g id="line2d_33">
      <g>
       <use style="stroke:#000000;stroke-width:0.6;" x="186.633117" xlink:href="#m73865fbba6" y="630"/>
      </g>
     </g>
    </g>
    <g id="xtick_19">
     <g id="line2d_34">
      <g>
       <use style="stroke:#000000;stroke-width:0.6;" x="200.220779" xlink:href="#m73865fbba6" y="630"/>
      </g>
     </g>
    </g>
    <g id="xtick_20">
     <g id="line2d_35">
      <g>
       <use style="stroke:#000000;stroke-width:0.6;" x="213.808442" xlink:href="#m73865fbba6" y="630"/>
      </g>
     </g>
    </g>
    <g id="xtick_21">
     <g id="line2d_36">
      <g>
       <use style="stroke:#000000;stroke-width:0.6;" x="240.983766" xlink:href="#m73865fbba6" y="630"/>
      </g>
     </g>
    </g>
    <g id="xtick_22">
     <g id="line2d_37">
      <g>
       <use style="stroke:#000000;stroke-width:0.6;" x="254.571429" xlink:href="#m73865fbba6" y="630"/>
      </g>
     </g>
    </g>
    <g id="xtick_23">
     <g id="line2d_38">
      <g>
       <use style="stroke:#000000;stroke-width:0.6;" x="268.159091" xlink:href="#m73865fbba6" y="630"/>
      </g>
     </g>
    </g>
    <g id="xtick_24">
     <g id="line2d_39">
      <g>
       <use style="stroke:#000000;stroke-width:0.6;" x="295.334416" xlink:href="#m73865fbba6" y="630"/>
      </g>
     </g>
    </g>
    <g id="xtick_25">
     <g id="line2d_40">
      <g>
       <use style="stroke:#000000;stroke-width:0.6;" x="308.922078" xlink:href="#m73865fbba6" y="630"/>
      </g>
     </g>
    </g>
    <g id="xtick_26">
     <g id="line2d_41">
      <g>
       <use style="stroke:#000000;stroke-width:0.6;" x="322.50974" xlink:href="#m73865fbba6" y="630"/>
      </g>
     </g>
    </g>
    <g id="xtick_27">
     <g id="line2d_42">
      <g>
       <use style="stroke:#000000;stroke-width:0.6;" x="349.685065" xlink:href="#m73865fbba6" y="630"/>
      </g>
     </g>
    </g>
    <g id="xtick_28">
     <g id="line2d_43">
      <g>
       <use style="stroke:#000000;stroke-width:0.6;" x="363.272727" xlink:href="#m73865fbba6" y="630"/>
      </g>
     </g>
    </g>
    <g id="xtick_29">
     <g id="line2d_44">
      <g>
       <use style="stroke:#000000;stroke-width:0.6;" x="376.86039" xlink:href="#m73865fbba6" y="630"/>
      </g>
     </g>
    </g>
    <g id="xtick_30">
     <g id="line2d_45">
      <g>
       <use style="stroke:#000000;stroke-width:0.6;" x="404.035714" xlink:href="#m73865fbba6" y="630"/>
      </g>
     </g>
    </g>
    <g id="xtick_31">
     <g id="line2d_46">
      <g>
       <use style="stroke:#000000;stroke-width:0.6;" x="417.623377" xlink:href="#m73865fbba6" y="630"/>
      </g>
     </g>
    </g>
    <g id="xtick_32">
     <g id="line2d_47">
      <g>
       <use style="stroke:#000000;stroke-width:0.6;" x="431.211039" xlink:href="#m73865fbba6" y="630"/>
      </g>
     </g>
    </g>
    <g id="xtick_33">
     <g id="line2d_48">
      <g>
       <use style="stroke:#000000;stroke-width:0.6;" x="458.386364" xlink:href="#m73865fbba6" y="630"/>
      </g>
     </g>
    </g>
    <g id="xtick_34">
     <g id="line2d_49">
      <g>
       <use style="stroke:#000000;stroke-width:0.6;" x="471.974026" xlink:href="#m73865fbba6" y="630"/>
      </g>
     </g>
    </g>
    <g id="xtick_35">
     <g id="line2d_50">
      <g>
       <use style="stroke:#000000;stroke-width:0.6;" x="485.561688" xlink:href="#m73865fbba6" y="630"/>
      </g>
     </g>
    </g>
    <g id="xtick_36">
     <g id="line2d_51">
      <g>
       <use style="stroke:#000000;stroke-width:0.6;" x="512.737013" xlink:href="#m73865fbba6" y="630"/>
      </g>
     </g>
    </g>
    <g id="xtick_37">
     <g id="line2d_52">
      <g>
       <use style="stroke:#000000;stroke-width:0.6;" x="526.324675" xlink:href="#m73865fbba6" y="630"/>
      </g>
     </g>
    </g>
    <g id="xtick_38">
     <g id="line2d_53">
      <g>
       <use style="stroke:#000000;stroke-width:0.6;" x="539.912338" xlink:href="#m73865fbba6" y="630"/>
      </g>
     </g>
    </g>
    <g id="xtick_39">
     <g id="line2d_54">
      <g>
       <use style="stroke:#000000;stroke-width:0.6;" x="567.087662" xlink:href="#m73865fbba6" y="630"/>
      </g>
     </g>
    </g>
    <g id="xtick_40">
     <g id="line2d_55">
      <g>
       <use style="stroke:#000000;stroke-width:0.6;" x="580.675325" xlink:href="#m73865fbba6" y="630"/>
      </g>
     </g>
    </g>
    <g id="xtick_41">
     <g id="line2d_56">
      <g>
       <use style="stroke:#000000;stroke-width:0.6;" x="594.262987" xlink:href="#m73865fbba6" y="630"/>
      </g>
     </g>
    </g>
    <g id="xtick_42">
     <g id="line2d_57">
      <g>
       <use style="stroke:#000000;stroke-width:0.6;" x="621.438312" xlink:href="#m73865fbba6" y="630"/>
      </g>
     </g>
    </g>
    <g id="xtick_43">
     <g id="line2d_58">
      <g>
       <use style="stroke:#000000;stroke-width:0.6;" x="635.025974" xlink:href="#m73865fbba6" y="630"/>
      </g>
     </g>
    </g>
    <g id="xtick_44">
     <g id="line2d_59">
      <g>
       <use style="stroke:#000000;stroke-width:0.6;" x="648.613636" xlink:href="#m73865fbba6" y="630"/>
      </g>
     </g>
    </g>
    <g id="xtick_45">
     <g id="line2d_60">
      <g>
       <use style="stroke:#000000;stroke-width:0.6;" x="675.788961" xlink:href="#m73865fbba6" y="630"/>
      </g>
     </g>
    </g>
    <g id="xtick_46">
     <g id="line2d_61">
      <g>
       <use style="stroke:#000000;stroke-width:0.6;" x="689.376623" xlink:href="#m73865fbba6" y="630"/>
      </g>
     </g>
    </g>
    <g id="xtick_47">
     <g id="line2d_62">
      <g>
       <use style="stroke:#000000;stroke-width:0.6;" x="702.964286" xlink:href="#m73865fbba6" y="630"/>
      </g>
     </g>
    </g>
    <g id="xtick_48">
     <g id="line2d_63">
      <g>
       <use style="stroke:#000000;stroke-width:0.6;" x="730.13961" xlink:href="#m73865fbba6" y="630"/>
      </g>
     </g>
    </g>
    <g id="xtick_49">
     <g id="line2d_64">
      <g>
       <use style="stroke:#000000;stroke-width:0.6;" x="743.727273" xlink:href="#m73865fbba6" y="630"/>
      </g>
     </g>
    </g>
    <g id="xtick_50">
     <g id="line2d_65">
      <g>
       <use style="stroke:#000000;stroke-width:0.6;" x="757.314935" xlink:href="#m73865fbba6" y="630"/>
      </g>
     </g>
    </g>
    <g id="xtick_51">
     <g id="line2d_66">
      <g>
       <use style="stroke:#000000;stroke-width:0.6;" x="784.49026" xlink:href="#m73865fbba6" y="630"/>
      </g>
     </g>
    </g>
    <g id="xtick_52">
     <g id="line2d_67">
      <g>
       <use style="stroke:#000000;stroke-width:0.6;" x="798.077922" xlink:href="#m73865fbba6" y="630"/>
      </g>
     </g>
    </g>
    <g id="xtick_53">
     <g id="line2d_68">
      <g>
       <use style="stroke:#000000;stroke-width:0.6;" x="811.665584" xlink:href="#m73865fbba6" y="630"/>
      </g>
     </g>
    </g>
    <g id="xtick_54">
     <g id="line2d_69">
      <g>
       <use style="stroke:#000000;stroke-width:0.6;" x="838.840909" xlink:href="#m73865fbba6" y="630"/>
      </g>
     </g>
    </g>
    <g id="xtick_55">
     <g id="line2d_70">
      <g>
       <use style="stroke:#000000;stroke-width:0.6;" x="852.428571" xlink:href="#m73865fbba6" y="630"/>
      </g>
     </g>
    </g>
    <g id="xtick_56">
     <g id="line2d_71">
      <g>
       <use style="stroke:#000000;stroke-width:0.6;" x="866.016234" xlink:href="#m73865fbba6" y="630"/>
      </g>
     </g>
    </g>
    <g id="xtick_57">
     <g id="line2d_72">
      <g>
       <use style="stroke:#000000;stroke-width:0.6;" x="893.191558" xlink:href="#m73865fbba6" y="630"/>
      </g>
     </g>
    </g>
    <g id="xtick_58">
     <g id="line2d_73">
      <g>
       <use style="stroke:#000000;stroke-width:0.6;" x="906.779221" xlink:href="#m73865fbba6" y="630"/>
      </g>
     </g>
    </g>
    <g id="xtick_59">
     <g id="line2d_74">
      <g>
       <use style="stroke:#000000;stroke-width:0.6;" x="920.366883" xlink:href="#m73865fbba6" y="630"/>
      </g>
     </g>
    </g>
    <g id="xtick_60">
     <g id="line2d_75">
      <g>
       <use style="stroke:#000000;stroke-width:0.6;" x="947.542208" xlink:href="#m73865fbba6" y="630"/>
      </g>
     </g>
    </g>
    <g id="xtick_61">
     <g id="line2d_76">
      <g>
       <use style="stroke:#000000;stroke-width:0.6;" x="961.12987" xlink:href="#m73865fbba6" y="630"/>
      </g>
     </g>
    </g>
    <g id="text_16">
     <!-- Epochs -->
     <g transform="translate(528.418125 663.251562)scale(0.14 -0.14)">
      <defs>
       <path d="M 9.8125 72.90625 
L 55.90625 72.90625 
L 55.90625 64.59375 
L 19.671875 64.59375 
L 19.671875 43.015625 
L 54.390625 43.015625 
L 54.390625 34.71875 
L 19.671875 34.71875 
L 19.671875 8.296875 
L 56.78125 8.296875 
L 56.78125 0 
L 9.8125 0 
z
" id="DejaVuSans-69"/>
       <path d="M 18.109375 8.203125 
L 18.109375 -20.796875 
L 9.078125 -20.796875 
L 9.078125 54.6875 
L 18.109375 54.6875 
L 18.109375 46.390625 
Q 20.953125 51.265625 25.265625 53.625 
Q 29.59375 56 35.59375 56 
Q 45.5625 56 51.78125 48.09375 
Q 58.015625 40.1875 58.015625 27.296875 
Q 58.015625 14.40625 51.78125 6.484375 
Q 45.5625 -1.421875 35.59375 -1.421875 
Q 29.59375 -1.421875 25.265625 0.953125 
Q 20.953125 3.328125 18.109375 8.203125 
z
M 48.6875 27.296875 
Q 48.6875 37.203125 44.609375 42.84375 
Q 40.53125 48.484375 33.40625 48.484375 
Q 26.265625 48.484375 22.1875 42.84375 
Q 18.109375 37.203125 18.109375 27.296875 
Q 18.109375 17.390625 22.1875 11.75 
Q 26.265625 6.109375 33.40625 6.109375 
Q 40.53125 6.109375 44.609375 11.75 
Q 48.6875 17.390625 48.6875 27.296875 
z
" id="DejaVuSans-112"/>
       <path d="M 30.609375 48.390625 
Q 23.390625 48.390625 19.1875 42.75 
Q 14.984375 37.109375 14.984375 27.296875 
Q 14.984375 17.484375 19.15625 11.84375 
Q 23.34375 6.203125 30.609375 6.203125 
Q 37.796875 6.203125 41.984375 11.859375 
Q 46.1875 17.53125 46.1875 27.296875 
Q 46.1875 37.015625 41.984375 42.703125 
Q 37.796875 48.390625 30.609375 48.390625 
z
M 30.609375 56 
Q 42.328125 56 49.015625 48.375 
Q 55.71875 40.765625 55.71875 27.296875 
Q 55.71875 13.875 49.015625 6.21875 
Q 42.328125 -1.421875 30.609375 -1.421875 
Q 18.84375 -1.421875 12.171875 6.21875 
Q 5.515625 13.875 5.515625 27.296875 
Q 5.515625 40.765625 12.171875 48.375 
Q 18.84375 56 30.609375 56 
z
" id="DejaVuSans-111"/>
       <path d="M 48.78125 52.59375 
L 48.78125 44.1875 
Q 44.96875 46.296875 41.140625 47.34375 
Q 37.3125 48.390625 33.40625 48.390625 
Q 24.65625 48.390625 19.8125 42.84375 
Q 14.984375 37.3125 14.984375 27.296875 
Q 14.984375 17.28125 19.8125 11.734375 
Q 24.65625 6.203125 33.40625 6.203125 
Q 37.3125 6.203125 41.140625 7.25 
Q 44.96875 8.296875 48.78125 10.40625 
L 48.78125 2.09375 
Q 45.015625 0.34375 40.984375 -0.53125 
Q 36.96875 -1.421875 32.421875 -1.421875 
Q 20.0625 -1.421875 12.78125 6.34375 
Q 5.515625 14.109375 5.515625 27.296875 
Q 5.515625 40.671875 12.859375 48.328125 
Q 20.21875 56 33.015625 56 
Q 37.15625 56 41.109375 55.140625 
Q 45.0625 54.296875 48.78125 52.59375 
z
" id="DejaVuSans-99"/>
       <path d="M 54.890625 33.015625 
L 54.890625 0 
L 45.90625 0 
L 45.90625 32.71875 
Q 45.90625 40.484375 42.875 44.328125 
Q 39.84375 48.1875 33.796875 48.1875 
Q 26.515625 48.1875 22.3125 43.546875 
Q 18.109375 38.921875 18.109375 30.90625 
L 18.109375 0 
L 9.078125 0 
L 9.078125 75.984375 
L 18.109375 75.984375 
L 18.109375 46.1875 
Q 21.34375 51.125 25.703125 53.5625 
Q 30.078125 56 35.796875 56 
Q 45.21875 56 50.046875 50.171875 
Q 54.890625 44.34375 54.890625 33.015625 
z
" id="DejaVuSans-104"/>
       <path d="M 44.28125 53.078125 
L 44.28125 44.578125 
Q 40.484375 46.53125 36.375 47.5 
Q 32.28125 48.484375 27.875 48.484375 
Q 21.1875 48.484375 17.84375 46.4375 
Q 14.5 44.390625 14.5 40.28125 
Q 14.5 37.15625 16.890625 35.375 
Q 19.28125 33.59375 26.515625 31.984375 
L 29.59375 31.296875 
Q 39.15625 29.25 43.1875 25.515625 
Q 47.21875 21.78125 47.21875 15.09375 
Q 47.21875 7.46875 41.1875 3.015625 
Q 35.15625 -1.421875 24.609375 -1.421875 
Q 20.21875 -1.421875 15.453125 -0.5625 
Q 10.6875 0.296875 5.421875 2 
L 5.421875 11.28125 
Q 10.40625 8.6875 15.234375 7.390625 
Q 20.0625 6.109375 24.8125 6.109375 
Q 31.15625 6.109375 34.5625 8.28125 
Q 37.984375 10.453125 37.984375 14.40625 
Q 37.984375 18.0625 35.515625 20.015625 
Q 33.0625 21.96875 24.703125 23.78125 
L 21.578125 24.515625 
Q 13.234375 26.265625 9.515625 29.90625 
Q 5.8125 33.546875 5.8125 39.890625 
Q 5.8125 47.609375 11.28125 51.796875 
Q 16.75 56 26.8125 56 
Q 31.78125 56 36.171875 55.265625 
Q 40.578125 54.546875 44.28125 53.078125 
z
" id="DejaVuSans-115"/>
      </defs>
      <use xlink:href="#DejaVuSans-69"/>
      <use x="63.183594" xlink:href="#DejaVuSans-112"/>
      <use x="126.660156" xlink:href="#DejaVuSans-111"/>
      <use x="187.841797" xlink:href="#DejaVuSans-99"/>
      <use x="242.822266" xlink:href="#DejaVuSans-104"/>
      <use x="306.201172" xlink:href="#DejaVuSans-115"/>
     </g>
    </g>
   </g>
   <g id="matplotlib.axis_2">
    <g id="ytick_1">
     <g id="line2d_77">
      <path clip-path="url(#p751c775625)" d="M 135 605.290909 
L 972 605.290909 
" style="fill:none;stroke:#b0b0b0;stroke-linecap:square;stroke-width:0.8;"/>
     </g>
     <g id="line2d_78">
      <defs>
       <path d="M 0 0 
L -3.5 0 
" id="m997ee70520" style="stroke:#000000;stroke-width:0.8;"/>
      </defs>
      <g>
       <use style="stroke:#000000;stroke-width:0.8;" x="135" xlink:href="#m997ee70520" y="605.290909"/>
      </g>
     </g>
     <g id="text_17">
      <!-- 0.0 -->
      <g transform="translate(108.91625 609.849972)scale(0.12 -0.12)">
       <defs>
        <path d="M 10.6875 12.40625 
L 21 12.40625 
L 21 0 
L 10.6875 0 
z
" id="DejaVuSans-46"/>
       </defs>
       <use xlink:href="#DejaVuSans-48"/>
       <use x="63.623047" xlink:href="#DejaVuSans-46"/>
       <use x="95.410156" xlink:href="#DejaVuSans-48"/>
      </g>
     </g>
    </g>
    <g id="ytick_2">
     <g id="line2d_79">
      <path clip-path="url(#p751c775625)" d="M 135 535.58708 
L 972 535.58708 
" style="fill:none;stroke:#b0b0b0;stroke-linecap:square;stroke-width:0.8;"/>
     </g>
     <g id="line2d_80">
      <g>
       <use style="stroke:#000000;stroke-width:0.8;" x="135" xlink:href="#m997ee70520" y="535.58708"/>
      </g>
     </g>
     <g id="text_18">
      <!-- 0.1 -->
      <g transform="translate(108.91625 540.146143)scale(0.12 -0.12)">
       <use xlink:href="#DejaVuSans-48"/>
       <use x="63.623047" xlink:href="#DejaVuSans-46"/>
       <use x="95.410156" xlink:href="#DejaVuSans-49"/>
      </g>
     </g>
    </g>
    <g id="ytick_3">
     <g id="line2d_81">
      <path clip-path="url(#p751c775625)" d="M 135 465.883251 
L 972 465.883251 
" style="fill:none;stroke:#b0b0b0;stroke-linecap:square;stroke-width:0.8;"/>
     </g>
     <g id="line2d_82">
      <g>
       <use style="stroke:#000000;stroke-width:0.8;" x="135" xlink:href="#m997ee70520" y="465.883251"/>
      </g>
     </g>
     <g id="text_19">
      <!-- 0.2 -->
      <g transform="translate(108.91625 470.442314)scale(0.12 -0.12)">
       <use xlink:href="#DejaVuSans-48"/>
       <use x="63.623047" xlink:href="#DejaVuSans-46"/>
       <use x="95.410156" xlink:href="#DejaVuSans-50"/>
      </g>
     </g>
    </g>
    <g id="ytick_4">
     <g id="line2d_83">
      <path clip-path="url(#p751c775625)" d="M 135 396.179423 
L 972 396.179423 
" style="fill:none;stroke:#b0b0b0;stroke-linecap:square;stroke-width:0.8;"/>
     </g>
     <g id="line2d_84">
      <g>
       <use style="stroke:#000000;stroke-width:0.8;" x="135" xlink:href="#m997ee70520" y="396.179423"/>
      </g>
     </g>
     <g id="text_20">
      <!-- 0.3 -->
      <g transform="translate(108.91625 400.738485)scale(0.12 -0.12)">
       <defs>
        <path d="M 40.578125 39.3125 
Q 47.65625 37.796875 51.625 33 
Q 55.609375 28.21875 55.609375 21.1875 
Q 55.609375 10.40625 48.1875 4.484375 
Q 40.765625 -1.421875 27.09375 -1.421875 
Q 22.515625 -1.421875 17.65625 -0.515625 
Q 12.796875 0.390625 7.625 2.203125 
L 7.625 11.71875 
Q 11.71875 9.328125 16.59375 8.109375 
Q 21.484375 6.890625 26.8125 6.890625 
Q 36.078125 6.890625 40.9375 10.546875 
Q 45.796875 14.203125 45.796875 21.1875 
Q 45.796875 27.640625 41.28125 31.265625 
Q 36.765625 34.90625 28.71875 34.90625 
L 20.21875 34.90625 
L 20.21875 43.015625 
L 29.109375 43.015625 
Q 36.375 43.015625 40.234375 45.921875 
Q 44.09375 48.828125 44.09375 54.296875 
Q 44.09375 59.90625 40.109375 62.90625 
Q 36.140625 65.921875 28.71875 65.921875 
Q 24.65625 65.921875 20.015625 65.03125 
Q 15.375 64.15625 9.8125 62.3125 
L 9.8125 71.09375 
Q 15.4375 72.65625 20.34375 73.4375 
Q 25.25 74.21875 29.59375 74.21875 
Q 40.828125 74.21875 47.359375 69.109375 
Q 53.90625 64.015625 53.90625 55.328125 
Q 53.90625 49.265625 50.4375 45.09375 
Q 46.96875 40.921875 40.578125 39.3125 
z
" id="DejaVuSans-51"/>
       </defs>
       <use xlink:href="#DejaVuSans-48"/>
       <use x="63.623047" xlink:href="#DejaVuSans-46"/>
       <use x="95.410156" xlink:href="#DejaVuSans-51"/>
      </g>
     </g>
    </g>
    <g id="ytick_5">
     <g id="line2d_85">
      <path clip-path="url(#p751c775625)" d="M 135 326.475594 
L 972 326.475594 
" style="fill:none;stroke:#b0b0b0;stroke-linecap:square;stroke-width:0.8;"/>
     </g>
     <g id="line2d_86">
      <g>
       <use style="stroke:#000000;stroke-width:0.8;" x="135" xlink:href="#m997ee70520" y="326.475594"/>
      </g>
     </g>
     <g id="text_21">
      <!-- 0.4 -->
      <g transform="translate(108.91625 331.034656)scale(0.12 -0.12)">
       <use xlink:href="#DejaVuSans-48"/>
       <use x="63.623047" xlink:href="#DejaVuSans-46"/>
       <use x="95.410156" xlink:href="#DejaVuSans-52"/>
      </g>
     </g>
    </g>
    <g id="ytick_6">
     <g id="line2d_87">
      <path clip-path="url(#p751c775625)" d="M 135 256.771765 
L 972 256.771765 
" style="fill:none;stroke:#b0b0b0;stroke-linecap:square;stroke-width:0.8;"/>
     </g>
     <g id="line2d_88">
      <g>
       <use style="stroke:#000000;stroke-width:0.8;" x="135" xlink:href="#m997ee70520" y="256.771765"/>
      </g>
     </g>
     <g id="text_22">
      <!-- 0.5 -->
      <g transform="translate(108.91625 261.330828)scale(0.12 -0.12)">
       <defs>
        <path d="M 10.796875 72.90625 
L 49.515625 72.90625 
L 49.515625 64.59375 
L 19.828125 64.59375 
L 19.828125 46.734375 
Q 21.96875 47.46875 24.109375 47.828125 
Q 26.265625 48.1875 28.421875 48.1875 
Q 40.625 48.1875 47.75 41.5 
Q 54.890625 34.8125 54.890625 23.390625 
Q 54.890625 11.625 47.5625 5.09375 
Q 40.234375 -1.421875 26.90625 -1.421875 
Q 22.3125 -1.421875 17.546875 -0.640625 
Q 12.796875 0.140625 7.71875 1.703125 
L 7.71875 11.625 
Q 12.109375 9.234375 16.796875 8.0625 
Q 21.484375 6.890625 26.703125 6.890625 
Q 35.15625 6.890625 40.078125 11.328125 
Q 45.015625 15.765625 45.015625 23.390625 
Q 45.015625 31 40.078125 35.4375 
Q 35.15625 39.890625 26.703125 39.890625 
Q 22.75 39.890625 18.8125 39.015625 
Q 14.890625 38.140625 10.796875 36.28125 
z
" id="DejaVuSans-53"/>
       </defs>
       <use xlink:href="#DejaVuSans-48"/>
       <use x="63.623047" xlink:href="#DejaVuSans-46"/>
       <use x="95.410156" xlink:href="#DejaVuSans-53"/>
      </g>
     </g>
    </g>
    <g id="ytick_7">
     <g id="line2d_89">
      <path clip-path="url(#p751c775625)" d="M 135 187.067936 
L 972 187.067936 
" style="fill:none;stroke:#b0b0b0;stroke-linecap:square;stroke-width:0.8;"/>
     </g>
     <g id="line2d_90">
      <g>
       <use style="stroke:#000000;stroke-width:0.8;" x="135" xlink:href="#m997ee70520" y="187.067936"/>
      </g>
     </g>
     <g id="text_23">
      <!-- 0.6 -->
      <g transform="translate(108.91625 191.626999)scale(0.12 -0.12)">
       <use xlink:href="#DejaVuSans-48"/>
       <use x="63.623047" xlink:href="#DejaVuSans-46"/>
       <use x="95.410156" xlink:href="#DejaVuSans-54"/>
      </g>
     </g>
    </g>
    <g id="ytick_8">
     <g id="line2d_91">
      <path clip-path="url(#p751c775625)" d="M 135 117.364107 
L 972 117.364107 
" style="fill:none;stroke:#b0b0b0;stroke-linecap:square;stroke-width:0.8;"/>
     </g>
     <g id="line2d_92">
      <g>
       <use style="stroke:#000000;stroke-width:0.8;" x="135" xlink:href="#m997ee70520" y="117.364107"/>
      </g>
     </g>
     <g id="text_24">
      <!-- 0.7 -->
      <g transform="translate(108.91625 121.92317)scale(0.12 -0.12)">
       <defs>
        <path d="M 8.203125 72.90625 
L 55.078125 72.90625 
L 55.078125 68.703125 
L 28.609375 0 
L 18.3125 0 
L 43.21875 64.59375 
L 8.203125 64.59375 
z
" id="DejaVuSans-55"/>
       </defs>
       <use xlink:href="#DejaVuSans-48"/>
       <use x="63.623047" xlink:href="#DejaVuSans-46"/>
       <use x="95.410156" xlink:href="#DejaVuSans-55"/>
      </g>
     </g>
    </g>
    <g id="ytick_9">
     <g id="line2d_93">
      <defs>
       <path d="M 0 0 
L -2 0 
" id="m6c682d5a8d" style="stroke:#000000;stroke-width:0.6;"/>
      </defs>
      <g>
       <use style="stroke:#000000;stroke-width:0.6;" x="135" xlink:href="#m6c682d5a8d" y="619.231675"/>
      </g>
     </g>
    </g>
    <g id="ytick_10">
     <g id="line2d_94">
      <g>
       <use style="stroke:#000000;stroke-width:0.6;" x="135" xlink:href="#m6c682d5a8d" y="591.350143"/>
      </g>
     </g>
    </g>
    <g id="ytick_11">
     <g id="line2d_95">
      <g>
       <use style="stroke:#000000;stroke-width:0.6;" x="135" xlink:href="#m6c682d5a8d" y="577.409378"/>
      </g>
     </g>
    </g>
    <g id="ytick_12">
     <g id="line2d_96">
      <g>
       <use style="stroke:#000000;stroke-width:0.6;" x="135" xlink:href="#m6c682d5a8d" y="563.468612"/>
      </g>
     </g>
    </g>
    <g id="ytick_13">
     <g id="line2d_97">
      <g>
       <use style="stroke:#000000;stroke-width:0.6;" x="135" xlink:href="#m6c682d5a8d" y="549.527846"/>
      </g>
     </g>
    </g>
    <g id="ytick_14">
     <g id="line2d_98">
      <g>
       <use style="stroke:#000000;stroke-width:0.6;" x="135" xlink:href="#m6c682d5a8d" y="521.646315"/>
      </g>
     </g>
    </g>
    <g id="ytick_15">
     <g id="line2d_99">
      <g>
       <use style="stroke:#000000;stroke-width:0.6;" x="135" xlink:href="#m6c682d5a8d" y="507.705549"/>
      </g>
     </g>
    </g>
    <g id="ytick_16">
     <g id="line2d_100">
      <g>
       <use style="stroke:#000000;stroke-width:0.6;" x="135" xlink:href="#m6c682d5a8d" y="493.764783"/>
      </g>
     </g>
    </g>
    <g id="ytick_17">
     <g id="line2d_101">
      <g>
       <use style="stroke:#000000;stroke-width:0.6;" x="135" xlink:href="#m6c682d5a8d" y="479.824017"/>
      </g>
     </g>
    </g>
    <g id="ytick_18">
     <g id="line2d_102">
      <g>
       <use style="stroke:#000000;stroke-width:0.6;" x="135" xlink:href="#m6c682d5a8d" y="451.942486"/>
      </g>
     </g>
    </g>
    <g id="ytick_19">
     <g id="line2d_103">
      <g>
       <use style="stroke:#000000;stroke-width:0.6;" x="135" xlink:href="#m6c682d5a8d" y="438.00172"/>
      </g>
     </g>
    </g>
    <g id="ytick_20">
     <g id="line2d_104">
      <g>
       <use style="stroke:#000000;stroke-width:0.6;" x="135" xlink:href="#m6c682d5a8d" y="424.060954"/>
      </g>
     </g>
    </g>
    <g id="ytick_21">
     <g id="line2d_105">
      <g>
       <use style="stroke:#000000;stroke-width:0.6;" x="135" xlink:href="#m6c682d5a8d" y="410.120188"/>
      </g>
     </g>
    </g>
    <g id="ytick_22">
     <g id="line2d_106">
      <g>
       <use style="stroke:#000000;stroke-width:0.6;" x="135" xlink:href="#m6c682d5a8d" y="382.238657"/>
      </g>
     </g>
    </g>
    <g id="ytick_23">
     <g id="line2d_107">
      <g>
       <use style="stroke:#000000;stroke-width:0.6;" x="135" xlink:href="#m6c682d5a8d" y="368.297891"/>
      </g>
     </g>
    </g>
    <g id="ytick_24">
     <g id="line2d_108">
      <g>
       <use style="stroke:#000000;stroke-width:0.6;" x="135" xlink:href="#m6c682d5a8d" y="354.357125"/>
      </g>
     </g>
    </g>
    <g id="ytick_25">
     <g id="line2d_109">
      <g>
       <use style="stroke:#000000;stroke-width:0.6;" x="135" xlink:href="#m6c682d5a8d" y="340.41636"/>
      </g>
     </g>
    </g>
    <g id="ytick_26">
     <g id="line2d_110">
      <g>
       <use style="stroke:#000000;stroke-width:0.6;" x="135" xlink:href="#m6c682d5a8d" y="312.534828"/>
      </g>
     </g>
    </g>
    <g id="ytick_27">
     <g id="line2d_111">
      <g>
       <use style="stroke:#000000;stroke-width:0.6;" x="135" xlink:href="#m6c682d5a8d" y="298.594062"/>
      </g>
     </g>
    </g>
    <g id="ytick_28">
     <g id="line2d_112">
      <g>
       <use style="stroke:#000000;stroke-width:0.6;" x="135" xlink:href="#m6c682d5a8d" y="284.653297"/>
      </g>
     </g>
    </g>
    <g id="ytick_29">
     <g id="line2d_113">
      <g>
       <use style="stroke:#000000;stroke-width:0.6;" x="135" xlink:href="#m6c682d5a8d" y="270.712531"/>
      </g>
     </g>
    </g>
    <g id="ytick_30">
     <g id="line2d_114">
      <g>
       <use style="stroke:#000000;stroke-width:0.6;" x="135" xlink:href="#m6c682d5a8d" y="242.830999"/>
      </g>
     </g>
    </g>
    <g id="ytick_31">
     <g id="line2d_115">
      <g>
       <use style="stroke:#000000;stroke-width:0.6;" x="135" xlink:href="#m6c682d5a8d" y="228.890234"/>
      </g>
     </g>
    </g>
    <g id="ytick_32">
     <g id="line2d_116">
      <g>
       <use style="stroke:#000000;stroke-width:0.6;" x="135" xlink:href="#m6c682d5a8d" y="214.949468"/>
      </g>
     </g>
    </g>
    <g id="ytick_33">
     <g id="line2d_117">
      <g>
       <use style="stroke:#000000;stroke-width:0.6;" x="135" xlink:href="#m6c682d5a8d" y="201.008702"/>
      </g>
     </g>
    </g>
    <g id="ytick_34">
     <g id="line2d_118">
      <g>
       <use style="stroke:#000000;stroke-width:0.6;" x="135" xlink:href="#m6c682d5a8d" y="173.12717"/>
      </g>
     </g>
    </g>
    <g id="ytick_35">
     <g id="line2d_119">
      <g>
       <use style="stroke:#000000;stroke-width:0.6;" x="135" xlink:href="#m6c682d5a8d" y="159.186405"/>
      </g>
     </g>
    </g>
    <g id="ytick_36">
     <g id="line2d_120">
      <g>
       <use style="stroke:#000000;stroke-width:0.6;" x="135" xlink:href="#m6c682d5a8d" y="145.245639"/>
      </g>
     </g>
    </g>
    <g id="ytick_37">
     <g id="line2d_121">
      <g>
       <use style="stroke:#000000;stroke-width:0.6;" x="135" xlink:href="#m6c682d5a8d" y="131.304873"/>
      </g>
     </g>
    </g>
    <g id="ytick_38">
     <g id="line2d_122">
      <g>
       <use style="stroke:#000000;stroke-width:0.6;" x="135" xlink:href="#m6c682d5a8d" y="103.423342"/>
      </g>
     </g>
    </g>
    <g id="ytick_39">
     <g id="line2d_123">
      <g>
       <use style="stroke:#000000;stroke-width:0.6;" x="135" xlink:href="#m6c682d5a8d" y="89.482576"/>
      </g>
     </g>
    </g>
   </g>
   <g id="LineCollection_1">
    <path clip-path="url(#p751c775625)" d="M 173.045455 336.931175 
L 933.954545 336.931175 
" style="fill:none;stroke:#008000;stroke-dasharray:3.7,1.6;stroke-dashoffset:0;"/>
   </g>
   <g id="line2d_124">
    <path clip-path="url(#p751c775625)" d="M 173.045455 571.117159 
L 175.762987 559.327363 
L 178.480519 535.587079 
L 181.198052 529.52588 
L 183.915584 491.022338 
L 186.633117 432.827828 
L 189.350649 453.245734 
L 192.068182 479.996836 
L 194.785714 487.834178 
L 197.503247 494.415251 
L 200.220779 472.963911 
L 202.938312 464.190044 
L 205.655844 464.568088 
L 208.373377 485.768413 
L 211.090909 470.938114 
L 213.808442 403.955153 
L 216.525974 327.943041 
L 219.243506 343.369815 
L 221.961039 298.54103 
L 224.678571 314.351156 
L 227.396104 315.026664 
L 230.113636 342.603528 
L 232.831169 325.875925 
L 235.548701 284.524994 
L 238.266234 308.302598 
L 240.983766 289.223305 
L 246.418831 309.751082 
L 249.136364 284.25116 
L 251.853896 295.960916 
L 254.571429 300.057028 
L 257.288961 296.230284 
L 260.006494 285.962033 
L 262.724026 287.35605 
L 265.441558 287.364588 
L 268.159091 267.064072 
L 270.876623 269.119429 
L 273.594156 273.137828 
L 276.311688 282.05419 
L 279.029221 254.835563 
L 281.746753 263.480293 
L 284.464286 254.050953 
L 287.181818 247.486613 
L 289.899351 256.19975 
L 292.616883 246.730754 
L 295.334416 238.310314 
L 298.051948 243.00339 
L 300.769481 236.671088 
L 303.487013 233.061592 
L 306.204545 230.481458 
L 308.922078 225.670722 
L 311.63961 238.689885 
L 314.357143 234.238569 
L 317.074675 211.987019 
L 319.792208 213.799494 
L 322.50974 231.327848 
L 325.227273 207.833635 
L 327.944805 207.569605 
L 330.662338 213.883793 
L 333.37987 208.127162 
L 336.097403 202.096947 
L 338.814935 209.287438 
L 341.532468 204.073407 
L 344.25 196.36217 
L 346.967532 192.964936 
L 349.685065 199.587151 
L 352.402597 199.419801 
L 355.12013 187.044529 
L 357.837662 185.783295 
L 360.555195 195.251917 
L 363.272727 191.585627 
L 365.99026 183.37209 
L 368.707792 187.023091 
L 371.425325 179.334205 
L 374.142857 182.445722 
L 376.86039 182.836677 
L 379.577922 173.283674 
L 382.295455 175.433675 
L 385.012987 185.946366 
L 387.730519 179.512025 
L 390.448052 171.530402 
L 393.165584 174.15038 
L 395.883117 168.206374 
L 398.600649 174.465055 
L 401.318182 171.213318 
L 404.035714 176.916436 
L 406.753247 163.195507 
L 409.470779 162.853328 
L 412.188312 163.8733 
L 414.905844 161.843867 
L 417.623377 169.820048 
L 420.340909 169.575878 
L 423.058442 157.320593 
L 425.775974 158.54967 
L 428.493506 148.742608 
L 431.211039 154.150994 
L 433.928571 156.856807 
L 436.646104 152.271046 
L 439.363636 153.073937 
L 442.081169 155.360502 
L 444.798701 154.271022 
L 447.516234 151.054766 
L 450.233766 151.969957 
L 452.951299 149.50391 
L 455.668831 144.729029 
L 458.386364 149.086615 
L 461.103896 143.214734 
L 463.821429 139.828095 
L 466.538961 146.131189 
L 469.256494 147.83689 
L 471.974026 143.631489 
L 474.691558 146.257574 
L 477.409091 144.87116 
L 480.126623 147.44822 
L 482.844156 138.689507 
L 485.561688 145.678164 
L 488.279221 141.816645 
L 490.996753 136.859374 
L 493.714286 137.132543 
L 496.431818 134.258341 
L 499.149351 132.432363 
L 501.866883 135.06468 
L 504.584416 135.195303 
L 507.301948 137.332923 
L 510.019481 136.178839 
L 515.454545 133.381249 
L 518.172078 133.544112 
L 520.88961 136.654632 
L 523.607143 137.476052 
L 526.324675 133.90723 
L 529.042208 132.364434 
L 531.75974 131.149774 
L 534.477273 134.682658 
L 537.194805 136.33979 
L 539.912338 129.639966 
L 542.62987 123.999875 
L 545.347403 128.652526 
L 548.064935 127.16723 
L 553.5 126.514573 
L 556.217532 126.750517 
L 558.935065 126.135002 
L 561.652597 126.71811 
L 564.37013 128.446745 
L 567.087662 126.461019 
L 569.805195 128.393357 
L 572.522727 124.758227 
L 575.24026 122.660616 
L 577.957792 119.015016 
L 580.675325 126.392592 
L 583.392857 127.160666 
L 586.11039 122.784592 
L 588.827922 123.583203 
L 591.545455 123.327898 
L 594.262987 125.45322 
L 596.980519 122.182746 
L 599.698052 121.440057 
L 602.415584 124.038846 
L 605.133117 119.894519 
L 607.850649 124.295355 
L 610.568182 123.910549 
L 613.285714 121.009009 
L 616.003247 122.717369 
L 618.720779 123.615401 
L 621.438312 122.076802 
L 624.155844 119.418061 
L 626.873377 121.11458 
L 629.590909 120.598403 
L 632.308442 118.835659 
L 635.025974 120.692382 
L 637.743506 118.448817 
L 640.461039 121.931804 
L 643.178571 123.148167 
L 645.896104 119.752678 
L 648.613636 119.280749 
L 651.331169 116.978645 
L 654.048701 117.831641 
L 656.766234 121.784022 
L 659.483766 118.692447 
L 662.201299 117.002535 
L 664.918831 119.455121 
L 667.636364 116.279788 
L 670.353896 117.931021 
L 673.071429 118.930302 
L 675.788961 120.688393 
L 678.506494 118.602623 
L 681.224026 118.428834 
L 683.941558 119.360436 
L 686.659091 118.503327 
L 689.376623 116.691267 
L 692.094156 119.092958 
L 694.811688 117.754572 
L 697.529221 116.045464 
L 700.246753 118.180841 
L 702.964286 114.72378 
L 705.681818 118.45318 
L 708.399351 119.61225 
L 711.116883 118.559623 
L 713.834416 111.919751 
L 716.551948 116.625249 
L 719.269481 117.801561 
L 721.987013 118.167671 
L 724.704545 118.30519 
L 727.422078 117.46524 
L 730.13961 115.418815 
L 732.857143 116.33546 
L 735.574675 117.915773 
L 738.292208 117.501178 
L 741.00974 115.629623 
L 743.727273 117.682114 
L 746.444805 116.665092 
L 749.162338 112.613955 
L 751.87987 116.445268 
L 754.597403 116.69243 
L 757.314935 118.837196 
L 760.032468 116.980432 
L 762.75 117.19016 
L 765.467532 116.847939 
L 768.185065 116.78724 
L 770.902597 114.904425 
L 773.62013 115.32708 
L 776.337662 115.100941 
L 779.055195 115.672375 
L 781.772727 118.655014 
L 784.49026 114.828312 
L 787.207792 116.455572 
L 789.925325 115.226662 
L 792.642857 116.625831 
L 795.36039 115.204226 
L 798.077922 114.770977 
L 800.795455 112.199942 
L 803.512987 115.356038 
L 806.230519 117.918972 
L 808.948052 117.774764 
L 811.665584 116.036864 
L 814.383117 113.75757 
L 817.100649 115.288691 
L 819.818182 115.212079 
L 822.535714 115.315738 
L 825.253247 116.533223 
L 827.970779 114.996991 
L 830.688312 112.209871 
L 833.405844 115.888252 
L 836.123377 115.543622 
L 838.840909 114.325222 
L 841.558442 113.969375 
L 844.275974 114.572384 
L 846.993506 115.567345 
L 849.711039 113.858902 
L 852.428571 113.43579 
L 855.146104 112.74545 
L 857.863636 114.893706 
L 860.581169 113.029505 
L 863.298701 112.973001 
L 866.016234 115.937235 
L 868.733766 116.662599 
L 871.451299 113.046705 
L 874.168831 115.425463 
L 876.886364 115.748405 
L 879.603896 115.533193 
L 882.321429 113.628235 
L 885.038961 115.392142 
L 887.756494 114.328588 
L 890.474026 114.984153 
L 893.191558 115.075099 
L 895.909091 114.404535 
L 898.626623 112.853347 
L 901.344156 115.322676 
L 904.061688 113.756739 
L 906.779221 116.689023 
L 909.496753 113.342019 
L 912.214286 115.310752 
L 914.931818 116.528071 
L 917.649351 113.97328 
L 920.366883 114.672636 
L 923.084416 111.109091 
L 925.801948 113.33371 
L 928.519481 114.698104 
L 931.237013 115.463519 
L 931.237013 115.463519 
" style="fill:none;stroke:#1f77b4;stroke-linecap:square;stroke-width:1.5;"/>
   </g>
   <g id="line2d_125">
    <path clip-path="url(#p751c775625)" d="M 173.045455 605.290909 
L 192.068182 605.290909 
L 194.785714 216.628203 
L 197.503247 531.246548 
L 200.220779 605.290909 
L 230.113636 605.290909 
L 232.831169 574.960298 
L 235.548701 564.760542 
L 238.266234 605.290909 
L 240.983766 549.996271 
L 243.701299 605.290909 
L 246.418831 605.290909 
L 249.136364 550.580968 
L 251.853896 478.019669 
L 254.571429 605.290909 
L 257.288961 535.587079 
L 260.006494 512.416302 
L 262.724026 544.553131 
L 265.441558 533.61602 
L 268.159091 499.906294 
L 270.876623 540.038416 
L 273.594156 457.594824 
L 276.311688 522.517613 
L 279.029221 540.700488 
L 281.746753 532.330663 
L 284.464286 478.510939 
L 287.181818 499.653846 
L 289.899351 460.879529 
L 292.616883 544.08008 
L 295.334416 534.143507 
L 298.051948 584.061317 
L 300.769481 565.293493 
L 303.487013 587.448633 
L 306.204545 517.032828 
L 308.922078 481.189134 
L 311.63961 448.30799 
L 314.357143 420.714913 
L 317.074675 451.143013 
L 319.792208 565.24009 
L 322.50974 463.033425 
L 325.227273 490.350715 
L 327.944805 487.079742 
L 330.662338 457.89259 
L 333.37987 471.339403 
L 336.097403 400.742948 
L 338.814935 495.240899 
L 341.532468 462.84286 
L 344.25 421.840621 
L 346.967532 401.850251 
L 349.685065 454.302891 
L 352.402597 408.98509 
L 355.12013 409.257989 
L 357.837662 426.925171 
L 360.555195 435.354928 
L 363.272727 375.909788 
L 365.99026 397.918664 
L 368.707792 374.127662 
L 371.425325 402.504985 
L 374.142857 408.992132 
L 376.86039 416.540672 
L 379.577922 393.483697 
L 382.295455 478.830786 
L 385.012987 467.673009 
L 387.730519 423.494077 
L 390.448052 430.459737 
L 393.165584 436.998204 
L 395.883117 425.478763 
L 398.600649 436.622715 
L 401.318182 472.314256 
L 404.035714 440.012408 
L 406.753247 453.424894 
L 409.470779 396.64723 
L 412.188312 398.821578 
L 414.905844 412.832357 
L 417.623377 438.095557 
L 420.340909 383.649921 
L 423.058442 432.240637 
L 425.775974 378.678669 
L 428.493506 398.405778 
L 431.211039 390.746017 
L 433.928571 386.250475 
L 436.646104 388.66139 
L 439.363636 396.516151 
L 442.081169 368.929087 
L 444.798701 397.316777 
L 447.516234 389.583416 
L 450.233766 354.804428 
L 452.951299 367.991502 
L 455.668831 368.707186 
L 458.386364 363.813814 
L 461.103896 349.072393 
L 466.538961 368.174287 
L 469.256494 351.728891 
L 471.974026 360.741434 
L 474.691558 387.930749 
L 477.409091 396.834191 
L 480.126623 360.260136 
L 482.844156 364.446778 
L 485.561688 360.123488 
L 488.279221 356.700766 
L 490.996753 334.537876 
L 493.714286 379.841749 
L 496.431818 361.968661 
L 499.149351 369.428354 
L 501.866883 384.126773 
L 504.584416 391.023093 
L 507.301948 368.135026 
L 510.019481 352.258736 
L 512.737013 361.160993 
L 515.454545 371.522703 
L 518.172078 375.274227 
L 520.88961 337.506701 
L 523.607143 346.836848 
L 526.324675 363.516796 
L 529.042208 347.844875 
L 531.75974 349.368248 
L 537.194805 355.106057 
L 539.912338 353.730716 
L 542.62987 335.737184 
L 545.347403 338.06995 
L 548.064935 342.130684 
L 550.782468 349.791858 
L 553.5 355.314726 
L 556.217532 348.249415 
L 558.935065 358.183672 
L 561.652597 361.788058 
L 564.37013 361.552841 
L 567.087662 358.492032 
L 569.805195 344.732797 
L 572.522727 335.571995 
L 575.24026 353.05043 
L 577.957792 347.184905 
L 580.675325 365.885603 
L 583.392857 346.940133 
L 586.11039 352.601725 
L 588.827922 345.221428 
L 591.545455 344.959393 
L 594.262987 365.795073 
L 596.980519 344.10916 
L 599.698052 348.700384 
L 602.415584 343.112724 
L 605.133117 346.088612 
L 607.850649 349.294378 
L 610.568182 339.995079 
L 613.285714 341.54257 
L 616.003247 335.1128 
L 618.720779 354.820964 
L 621.438312 345.638349 
L 624.155844 344.470305 
L 626.873377 340.804575 
L 629.590909 344.315917 
L 632.308442 340.141241 
L 635.025974 340.428578 
L 637.743506 340.340187 
L 640.461039 337.905799 
L 643.178571 341.941647 
L 645.896104 337.720043 
L 648.613636 335.29494 
L 651.331169 333.189976 
L 654.048701 333.615393 
L 656.766234 335.04028 
L 659.483766 336.06906 
L 662.201299 336.435377 
L 664.918831 334.787406 
L 667.636364 341.650176 
L 670.353896 341.219814 
L 673.071429 344.368245 
L 675.788961 341.197462 
L 678.506494 338.362148 
L 681.224026 336.979327 
L 683.941558 338.601685 
L 686.659091 332.181471 
L 689.376623 334.464318 
L 692.094156 333.85167 
L 694.811688 330.094953 
L 700.246753 341.707386 
L 702.964286 339.245763 
L 705.681818 343.303008 
L 708.399351 337.526207 
L 711.116883 337.733691 
L 713.834416 341.285313 
L 716.551948 335.897015 
L 719.269481 334.41255 
L 721.987013 333.83609 
L 724.704545 339.623485 
L 727.422078 330.631633 
L 730.13961 334.220459 
L 732.857143 328.046035 
L 735.574675 328.769883 
L 738.292208 332.569102 
L 741.00974 329.430164 
L 743.727273 332.778996 
L 749.162338 334.538084 
L 751.87987 336.093842 
L 754.597403 338.463501 
L 757.314935 335.782761 
L 760.032468 335.65056 
L 762.75 336.691554 
L 765.467532 337.990512 
L 768.185065 336.946194 
L 770.902597 336.939609 
L 773.62013 335.18507 
L 776.337662 335.746886 
L 779.055195 334.471609 
L 781.772727 337.640523 
L 784.49026 334.939737 
L 787.207792 337.286337 
L 789.925325 339.393026 
L 795.36039 334.363878 
L 798.077922 338.012968 
L 800.795455 337.719939 
L 803.512987 338.325379 
L 806.230519 339.542469 
L 808.948052 339.502792 
L 811.665584 336.463421 
L 814.383117 336.873238 
L 817.100649 336.711226 
L 819.818182 336.071262 
L 822.535714 336.937552 
L 825.253247 336.844529 
L 827.970779 335.912428 
L 830.688312 335.451073 
L 833.405844 333.314678 
L 836.123377 334.196902 
L 838.840909 330.205073 
L 841.558442 333.021504 
L 844.275974 332.461724 
L 846.993506 333.103019 
L 849.711039 332.94296 
L 852.428571 332.355967 
L 855.146104 334.571342 
L 857.863636 335.401944 
L 860.581169 336.472956 
L 863.298701 335.505832 
L 866.016234 336.092824 
L 868.733766 336.317447 
L 871.451299 336.155518 
L 874.168831 334.267178 
L 876.886364 333.829151 
L 879.603896 333.915174 
L 882.321429 334.967864 
L 885.038961 333.922715 
L 887.756494 334.58956 
L 890.474026 334.400003 
L 893.191558 333.882767 
L 895.909091 334.569327 
L 898.626623 333.752207 
L 901.344156 331.780379 
L 904.061688 332.158121 
L 906.779221 332.115702 
L 912.214286 333.42056 
L 914.931818 334.591035 
L 917.649351 334.444936 
L 920.366883 333.939853 
L 923.084416 332.727436 
L 925.801948 332.456697 
L 928.519481 333.774268 
L 931.237013 334.431309 
L 931.237013 334.431309 
" style="fill:none;stroke:#ff7f0e;stroke-linecap:square;stroke-width:1.5;"/>
   </g>
   <g id="patch_3">
    <path d="M 135 630 
L 135 86.4 
" style="fill:none;stroke:#000000;stroke-linecap:square;stroke-linejoin:miter;stroke-width:0.8;"/>
   </g>
   <g id="patch_4">
    <path d="M 972 630 
L 972 86.4 
" style="fill:none;stroke:#000000;stroke-linecap:square;stroke-linejoin:miter;stroke-width:0.8;"/>
   </g>
   <g id="patch_5">
    <path d="M 135 630 
L 972 630 
" style="fill:none;stroke:#000000;stroke-linecap:square;stroke-linejoin:miter;stroke-width:0.8;"/>
   </g>
   <g id="patch_6">
    <path d="M 135 86.4 
L 972 86.4 
" style="fill:none;stroke:#000000;stroke-linecap:square;stroke-linejoin:miter;stroke-width:0.8;"/>
   </g>
   <g id="text_25">
    <!-- Metric: precision -->
    <g transform="translate(503.85375 80.4)scale(0.12 -0.12)">
     <defs>
      <path d="M 9.8125 72.90625 
L 24.515625 72.90625 
L 43.109375 23.296875 
L 61.8125 72.90625 
L 76.515625 72.90625 
L 76.515625 0 
L 66.890625 0 
L 66.890625 64.015625 
L 48.09375 14.015625 
L 38.1875 14.015625 
L 19.390625 64.015625 
L 19.390625 0 
L 9.8125 0 
z
" id="DejaVuSans-77"/>
      <path d="M 56.203125 29.59375 
L 56.203125 25.203125 
L 14.890625 25.203125 
Q 15.484375 15.921875 20.484375 11.0625 
Q 25.484375 6.203125 34.421875 6.203125 
Q 39.59375 6.203125 44.453125 7.46875 
Q 49.3125 8.734375 54.109375 11.28125 
L 54.109375 2.78125 
Q 49.265625 0.734375 44.1875 -0.34375 
Q 39.109375 -1.421875 33.890625 -1.421875 
Q 20.796875 -1.421875 13.15625 6.1875 
Q 5.515625 13.8125 5.515625 26.8125 
Q 5.515625 40.234375 12.765625 48.109375 
Q 20.015625 56 32.328125 56 
Q 43.359375 56 49.78125 48.890625 
Q 56.203125 41.796875 56.203125 29.59375 
z
M 47.21875 32.234375 
Q 47.125 39.59375 43.09375 43.984375 
Q 39.0625 48.390625 32.421875 48.390625 
Q 24.90625 48.390625 20.390625 44.140625 
Q 15.875 39.890625 15.1875 32.171875 
z
" id="DejaVuSans-101"/>
      <path d="M 18.3125 70.21875 
L 18.3125 54.6875 
L 36.8125 54.6875 
L 36.8125 47.703125 
L 18.3125 47.703125 
L 18.3125 18.015625 
Q 18.3125 11.328125 20.140625 9.421875 
Q 21.96875 7.515625 27.59375 7.515625 
L 36.8125 7.515625 
L 36.8125 0 
L 27.59375 0 
Q 17.1875 0 13.234375 3.875 
Q 9.28125 7.765625 9.28125 18.015625 
L 9.28125 47.703125 
L 2.6875 47.703125 
L 2.6875 54.6875 
L 9.28125 54.6875 
L 9.28125 70.21875 
z
" id="DejaVuSans-116"/>
      <path d="M 41.109375 46.296875 
Q 39.59375 47.171875 37.8125 47.578125 
Q 36.03125 48 33.890625 48 
Q 26.265625 48 22.1875 43.046875 
Q 18.109375 38.09375 18.109375 28.8125 
L 18.109375 0 
L 9.078125 0 
L 9.078125 54.6875 
L 18.109375 54.6875 
L 18.109375 46.1875 
Q 20.953125 51.171875 25.484375 53.578125 
Q 30.03125 56 36.53125 56 
Q 37.453125 56 38.578125 55.875 
Q 39.703125 55.765625 41.0625 55.515625 
z
" id="DejaVuSans-114"/>
      <path d="M 9.421875 54.6875 
L 18.40625 54.6875 
L 18.40625 0 
L 9.421875 0 
z
M 9.421875 75.984375 
L 18.40625 75.984375 
L 18.40625 64.59375 
L 9.421875 64.59375 
z
" id="DejaVuSans-105"/>
      <path d="M 11.71875 12.40625 
L 22.015625 12.40625 
L 22.015625 0 
L 11.71875 0 
z
M 11.71875 51.703125 
L 22.015625 51.703125 
L 22.015625 39.3125 
L 11.71875 39.3125 
z
" id="DejaVuSans-58"/>
      <path id="DejaVuSans-32"/>
      <path d="M 54.890625 33.015625 
L 54.890625 0 
L 45.90625 0 
L 45.90625 32.71875 
Q 45.90625 40.484375 42.875 44.328125 
Q 39.84375 48.1875 33.796875 48.1875 
Q 26.515625 48.1875 22.3125 43.546875 
Q 18.109375 38.921875 18.109375 30.90625 
L 18.109375 0 
L 9.078125 0 
L 9.078125 54.6875 
L 18.109375 54.6875 
L 18.109375 46.1875 
Q 21.34375 51.125 25.703125 53.5625 
Q 30.078125 56 35.796875 56 
Q 45.21875 56 50.046875 50.171875 
Q 54.890625 44.34375 54.890625 33.015625 
z
" id="DejaVuSans-110"/>
     </defs>
     <use xlink:href="#DejaVuSans-77"/>
     <use x="86.279297" xlink:href="#DejaVuSans-101"/>
     <use x="147.802734" xlink:href="#DejaVuSans-116"/>
     <use x="187.011719" xlink:href="#DejaVuSans-114"/>
     <use x="228.125" xlink:href="#DejaVuSans-105"/>
     <use x="255.908203" xlink:href="#DejaVuSans-99"/>
     <use x="310.888672" xlink:href="#DejaVuSans-58"/>
     <use x="344.580078" xlink:href="#DejaVuSans-32"/>
     <use x="376.367188" xlink:href="#DejaVuSans-112"/>
     <use x="439.84375" xlink:href="#DejaVuSans-114"/>
     <use x="478.707031" xlink:href="#DejaVuSans-101"/>
     <use x="540.230469" xlink:href="#DejaVuSans-99"/>
     <use x="595.210938" xlink:href="#DejaVuSans-105"/>
     <use x="622.994141" xlink:href="#DejaVuSans-115"/>
     <use x="675.09375" xlink:href="#DejaVuSans-105"/>
     <use x="702.876953" xlink:href="#DejaVuSans-111"/>
     <use x="764.058594" xlink:href="#DejaVuSans-110"/>
    </g>
   </g>
   <g id="legend_1">
    <g id="patch_7">
     <path d="M 142 139.26875 
L 248.059375 139.26875 
Q 250.059375 139.26875 250.059375 137.26875 
L 250.059375 93.4 
Q 250.059375 91.4 248.059375 91.4 
L 142 91.4 
Q 140 91.4 140 93.4 
L 140 137.26875 
Q 140 139.26875 142 139.26875 
z
" style="fill:#ffffff;opacity:0.8;stroke:#cccccc;stroke-linejoin:miter;"/>
    </g>
    <g id="line2d_126">
     <path d="M 144 99.498437 
L 164 99.498437 
" style="fill:none;stroke:#1f77b4;stroke-linecap:square;stroke-width:1.5;"/>
    </g>
    <g id="line2d_127"/>
    <g id="text_26">
     <!-- precision_train -->
     <g transform="translate(172 102.998437)scale(0.1 -0.1)">
      <defs>
       <path d="M 50.984375 -16.609375 
L 50.984375 -23.578125 
L -0.984375 -23.578125 
L -0.984375 -16.609375 
z
" id="DejaVuSans-95"/>
       <path d="M 34.28125 27.484375 
Q 23.390625 27.484375 19.1875 25 
Q 14.984375 22.515625 14.984375 16.5 
Q 14.984375 11.71875 18.140625 8.90625 
Q 21.296875 6.109375 26.703125 6.109375 
Q 34.1875 6.109375 38.703125 11.40625 
Q 43.21875 16.703125 43.21875 25.484375 
L 43.21875 27.484375 
z
M 52.203125 31.203125 
L 52.203125 0 
L 43.21875 0 
L 43.21875 8.296875 
Q 40.140625 3.328125 35.546875 0.953125 
Q 30.953125 -1.421875 24.3125 -1.421875 
Q 15.921875 -1.421875 10.953125 3.296875 
Q 6 8.015625 6 15.921875 
Q 6 25.140625 12.171875 29.828125 
Q 18.359375 34.515625 30.609375 34.515625 
L 43.21875 34.515625 
L 43.21875 35.40625 
Q 43.21875 41.609375 39.140625 45 
Q 35.0625 48.390625 27.6875 48.390625 
Q 23 48.390625 18.546875 47.265625 
Q 14.109375 46.140625 10.015625 43.890625 
L 10.015625 52.203125 
Q 14.9375 54.109375 19.578125 55.046875 
Q 24.21875 56 28.609375 56 
Q 40.484375 56 46.34375 49.84375 
Q 52.203125 43.703125 52.203125 31.203125 
z
" id="DejaVuSans-97"/>
      </defs>
      <use xlink:href="#DejaVuSans-112"/>
      <use x="63.476562" xlink:href="#DejaVuSans-114"/>
      <use x="102.339844" xlink:href="#DejaVuSans-101"/>
      <use x="163.863281" xlink:href="#DejaVuSans-99"/>
      <use x="218.84375" xlink:href="#DejaVuSans-105"/>
      <use x="246.626953" xlink:href="#DejaVuSans-115"/>
      <use x="298.726562" xlink:href="#DejaVuSans-105"/>
      <use x="326.509766" xlink:href="#DejaVuSans-111"/>
      <use x="387.691406" xlink:href="#DejaVuSans-110"/>
      <use x="451.070312" xlink:href="#DejaVuSans-95"/>
      <use x="501.070312" xlink:href="#DejaVuSans-116"/>
      <use x="540.279297" xlink:href="#DejaVuSans-114"/>
      <use x="581.392578" xlink:href="#DejaVuSans-97"/>
      <use x="642.671875" xlink:href="#DejaVuSans-105"/>
      <use x="670.455078" xlink:href="#DejaVuSans-110"/>
     </g>
    </g>
    <g id="line2d_128">
     <path d="M 144 114.454687 
L 164 114.454687 
" style="fill:none;stroke:#ff7f0e;stroke-linecap:square;stroke-width:1.5;"/>
    </g>
    <g id="line2d_129"/>
    <g id="text_27">
     <!-- precision_valid -->
     <g transform="translate(172 117.954687)scale(0.1 -0.1)">
      <defs>
       <path d="M 2.984375 54.6875 
L 12.5 54.6875 
L 29.59375 8.796875 
L 46.6875 54.6875 
L 56.203125 54.6875 
L 35.6875 0 
L 23.484375 0 
z
" id="DejaVuSans-118"/>
       <path d="M 9.421875 75.984375 
L 18.40625 75.984375 
L 18.40625 0 
L 9.421875 0 
z
" id="DejaVuSans-108"/>
       <path d="M 45.40625 46.390625 
L 45.40625 75.984375 
L 54.390625 75.984375 
L 54.390625 0 
L 45.40625 0 
L 45.40625 8.203125 
Q 42.578125 3.328125 38.25 0.953125 
Q 33.9375 -1.421875 27.875 -1.421875 
Q 17.96875 -1.421875 11.734375 6.484375 
Q 5.515625 14.40625 5.515625 27.296875 
Q 5.515625 40.1875 11.734375 48.09375 
Q 17.96875 56 27.875 56 
Q 33.9375 56 38.25 53.625 
Q 42.578125 51.265625 45.40625 46.390625 
z
M 14.796875 27.296875 
Q 14.796875 17.390625 18.875 11.75 
Q 22.953125 6.109375 30.078125 6.109375 
Q 37.203125 6.109375 41.296875 11.75 
Q 45.40625 17.390625 45.40625 27.296875 
Q 45.40625 37.203125 41.296875 42.84375 
Q 37.203125 48.484375 30.078125 48.484375 
Q 22.953125 48.484375 18.875 42.84375 
Q 14.796875 37.203125 14.796875 27.296875 
z
" id="DejaVuSans-100"/>
      </defs>
      <use xlink:href="#DejaVuSans-112"/>
      <use x="63.476562" xlink:href="#DejaVuSans-114"/>
      <use x="102.339844" xlink:href="#DejaVuSans-101"/>
      <use x="163.863281" xlink:href="#DejaVuSans-99"/>
      <use x="218.84375" xlink:href="#DejaVuSans-105"/>
      <use x="246.626953" xlink:href="#DejaVuSans-115"/>
      <use x="298.726562" xlink:href="#DejaVuSans-105"/>
      <use x="326.509766" xlink:href="#DejaVuSans-111"/>
      <use x="387.691406" xlink:href="#DejaVuSans-110"/>
      <use x="451.070312" xlink:href="#DejaVuSans-95"/>
      <use x="501.070312" xlink:href="#DejaVuSans-118"/>
      <use x="560.25" xlink:href="#DejaVuSans-97"/>
      <use x="621.529297" xlink:href="#DejaVuSans-108"/>
      <use x="649.3125" xlink:href="#DejaVuSans-105"/>
      <use x="677.095703" xlink:href="#DejaVuSans-100"/>
     </g>
    </g>
    <g id="line2d_130">
     <path d="M 144 129.410937 
L 164 129.410937 
" style="fill:none;stroke:#008000;stroke-dasharray:3.7,1.6;stroke-dashoffset:0;"/>
    </g>
    <g id="text_28">
     <!-- precision_test -->
     <g transform="translate(172 132.910937)scale(0.1 -0.1)">
      <use xlink:href="#DejaVuSans-112"/>
      <use x="63.476562" xlink:href="#DejaVuSans-114"/>
      <use x="102.339844" xlink:href="#DejaVuSans-101"/>
      <use x="163.863281" xlink:href="#DejaVuSans-99"/>
      <use x="218.84375" xlink:href="#DejaVuSans-105"/>
      <use x="246.626953" xlink:href="#DejaVuSans-115"/>
      <use x="298.726562" xlink:href="#DejaVuSans-105"/>
      <use x="326.509766" xlink:href="#DejaVuSans-111"/>
      <use x="387.691406" xlink:href="#DejaVuSans-110"/>
      <use x="451.070312" xlink:href="#DejaVuSans-95"/>
      <use x="501.070312" xlink:href="#DejaVuSans-116"/>
      <use x="540.279297" xlink:href="#DejaVuSans-101"/>
      <use x="601.802734" xlink:href="#DejaVuSans-115"/>
      <use x="653.902344" xlink:href="#DejaVuSans-116"/>
     </g>
    </g>
   </g>
  </g>
 </g>
 <defs>
  <clipPath id="p751c775625">
   <rect height="543.6" width="837" x="135" y="86.4"/>
  </clipPath>
 </defs>
</svg>
