<?xml version="1.0" encoding="utf-8" standalone="no"?>
<!DOCTYPE svg PUBLIC "-//W3C//DTD SVG 1.1//EN"
  "http://www.w3.org/Graphics/SVG/1.1/DTD/svg11.dtd">
<!-- Created with matplotlib (https://matplotlib.org/) -->
<svg height="720pt" version="1.1" viewBox="0 0 1080 720" width="1080pt" xmlns="http://www.w3.org/2000/svg" xmlns:xlink="http://www.w3.org/1999/xlink">
 <metadata>
  <rdf:RDF xmlns:cc="http://creativecommons.org/ns#" xmlns:dc="http://purl.org/dc/elements/1.1/" xmlns:rdf="http://www.w3.org/1999/02/22-rdf-syntax-ns#">
   <cc:Work>
    <dc:type rdf:resource="http://purl.org/dc/dcmitype/StillImage"/>
    <dc:date>2021-06-06T23:16:16.555338</dc:date>
    <dc:format>image/svg+xml</dc:format>
    <dc:creator>
     <cc:Agent>
      <dc:title>Matplotlib v3.3.4, https://matplotlib.org/</dc:title>
     </cc:Agent>
    </dc:creator>
   </cc:Work>
  </rdf:RDF>
 </metadata>
 <defs>
  <style type="text/css">*{stroke-linecap:butt;stroke-linejoin:round;}</style>
 </defs>
 <g id="figure_1">
  <g id="patch_1">
   <path d="M 0 720 
L 1080 720 
L 1080 0 
L 0 0 
z
" style="fill:none;"/>
  </g>
  <g id="axes_1">
   <g id="patch_2">
    <path d="M 135 630 
L 972 630 
L 972 86.4 
L 135 86.4 
z
" style="fill:#ffffff;"/>
   </g>
   <g id="matplotlib.axis_1">
    <g id="xtick_1">
     <g id="line2d_1">
      <path clip-path="url(#pe06d34be84)" d="M 173.045455 630 
L 173.045455 86.4 
" style="fill:none;stroke:#b0b0b0;stroke-linecap:square;stroke-width:0.8;"/>
     </g>
     <g id="line2d_2">
      <defs>
       <path d="M 0 0 
L 0 3.5 
" id="m544bbd2072" style="stroke:#000000;stroke-width:0.8;"/>
      </defs>
      <g>
       <use style="stroke:#000000;stroke-width:0.8;" x="173.045455" xlink:href="#m544bbd2072" y="630"/>
      </g>
     </g>
     <g id="text_1">
      <!-- 0 -->
      <g transform="translate(169.227955 646.118125)scale(0.12 -0.12)">
       <defs>
        <path d="M 31.78125 66.40625 
Q 24.171875 66.40625 20.328125 58.90625 
Q 16.5 51.421875 16.5 36.375 
Q 16.5 21.390625 20.328125 13.890625 
Q 24.171875 6.390625 31.78125 6.390625 
Q 39.453125 6.390625 43.28125 13.890625 
Q 47.125 21.390625 47.125 36.375 
Q 47.125 51.421875 43.28125 58.90625 
Q 39.453125 66.40625 31.78125 66.40625 
z
M 31.78125 74.21875 
Q 44.046875 74.21875 50.515625 64.515625 
Q 56.984375 54.828125 56.984375 36.375 
Q 56.984375 17.96875 50.515625 8.265625 
Q 44.046875 -1.421875 31.78125 -1.421875 
Q 19.53125 -1.421875 13.0625 8.265625 
Q 6.59375 17.96875 6.59375 36.375 
Q 6.59375 54.828125 13.0625 64.515625 
Q 19.53125 74.21875 31.78125 74.21875 
z
" id="DejaVuSans-48"/>
       </defs>
       <use xlink:href="#DejaVuSans-48"/>
      </g>
     </g>
    </g>
    <g id="xtick_2">
     <g id="line2d_3">
      <path clip-path="url(#pe06d34be84)" d="M 227.396104 630 
L 227.396104 86.4 
" style="fill:none;stroke:#b0b0b0;stroke-linecap:square;stroke-width:0.8;"/>
     </g>
     <g id="line2d_4">
      <g>
       <use style="stroke:#000000;stroke-width:0.8;" x="227.396104" xlink:href="#m544bbd2072" y="630"/>
      </g>
     </g>
     <g id="text_2">
      <!-- 20 -->
      <g transform="translate(219.761104 646.118125)scale(0.12 -0.12)">
       <defs>
        <path d="M 19.1875 8.296875 
L 53.609375 8.296875 
L 53.609375 0 
L 7.328125 0 
L 7.328125 8.296875 
Q 12.9375 14.109375 22.625 23.890625 
Q 32.328125 33.6875 34.8125 36.53125 
Q 39.546875 41.84375 41.421875 45.53125 
Q 43.3125 49.21875 43.3125 52.78125 
Q 43.3125 58.59375 39.234375 62.25 
Q 35.15625 65.921875 28.609375 65.921875 
Q 23.96875 65.921875 18.8125 64.3125 
Q 13.671875 62.703125 7.8125 59.421875 
L 7.8125 69.390625 
Q 13.765625 71.78125 18.9375 73 
Q 24.125 74.21875 28.421875 74.21875 
Q 39.75 74.21875 46.484375 68.546875 
Q 53.21875 62.890625 53.21875 53.421875 
Q 53.21875 48.921875 51.53125 44.890625 
Q 49.859375 40.875 45.40625 35.40625 
Q 44.1875 33.984375 37.640625 27.21875 
Q 31.109375 20.453125 19.1875 8.296875 
z
" id="DejaVuSans-50"/>
       </defs>
       <use xlink:href="#DejaVuSans-50"/>
       <use x="63.623047" xlink:href="#DejaVuSans-48"/>
      </g>
     </g>
    </g>
    <g id="xtick_3">
     <g id="line2d_5">
      <path clip-path="url(#pe06d34be84)" d="M 281.746753 630 
L 281.746753 86.4 
" style="fill:none;stroke:#b0b0b0;stroke-linecap:square;stroke-width:0.8;"/>
     </g>
     <g id="line2d_6">
      <g>
       <use style="stroke:#000000;stroke-width:0.8;" x="281.746753" xlink:href="#m544bbd2072" y="630"/>
      </g>
     </g>
     <g id="text_3">
      <!-- 40 -->
      <g transform="translate(274.111753 646.118125)scale(0.12 -0.12)">
       <defs>
        <path d="M 37.796875 64.3125 
L 12.890625 25.390625 
L 37.796875 25.390625 
z
M 35.203125 72.90625 
L 47.609375 72.90625 
L 47.609375 25.390625 
L 58.015625 25.390625 
L 58.015625 17.1875 
L 47.609375 17.1875 
L 47.609375 0 
L 37.796875 0 
L 37.796875 17.1875 
L 4.890625 17.1875 
L 4.890625 26.703125 
z
" id="DejaVuSans-52"/>
       </defs>
       <use xlink:href="#DejaVuSans-52"/>
       <use x="63.623047" xlink:href="#DejaVuSans-48"/>
      </g>
     </g>
    </g>
    <g id="xtick_4">
     <g id="line2d_7">
      <path clip-path="url(#pe06d34be84)" d="M 336.097403 630 
L 336.097403 86.4 
" style="fill:none;stroke:#b0b0b0;stroke-linecap:square;stroke-width:0.8;"/>
     </g>
     <g id="line2d_8">
      <g>
       <use style="stroke:#000000;stroke-width:0.8;" x="336.097403" xlink:href="#m544bbd2072" y="630"/>
      </g>
     </g>
     <g id="text_4">
      <!-- 60 -->
      <g transform="translate(328.462403 646.118125)scale(0.12 -0.12)">
       <defs>
        <path d="M 33.015625 40.375 
Q 26.375 40.375 22.484375 35.828125 
Q 18.609375 31.296875 18.609375 23.390625 
Q 18.609375 15.53125 22.484375 10.953125 
Q 26.375 6.390625 33.015625 6.390625 
Q 39.65625 6.390625 43.53125 10.953125 
Q 47.40625 15.53125 47.40625 23.390625 
Q 47.40625 31.296875 43.53125 35.828125 
Q 39.65625 40.375 33.015625 40.375 
z
M 52.59375 71.296875 
L 52.59375 62.3125 
Q 48.875 64.0625 45.09375 64.984375 
Q 41.3125 65.921875 37.59375 65.921875 
Q 27.828125 65.921875 22.671875 59.328125 
Q 17.53125 52.734375 16.796875 39.40625 
Q 19.671875 43.65625 24.015625 45.921875 
Q 28.375 48.1875 33.59375 48.1875 
Q 44.578125 48.1875 50.953125 41.515625 
Q 57.328125 34.859375 57.328125 23.390625 
Q 57.328125 12.15625 50.6875 5.359375 
Q 44.046875 -1.421875 33.015625 -1.421875 
Q 20.359375 -1.421875 13.671875 8.265625 
Q 6.984375 17.96875 6.984375 36.375 
Q 6.984375 53.65625 15.1875 63.9375 
Q 23.390625 74.21875 37.203125 74.21875 
Q 40.921875 74.21875 44.703125 73.484375 
Q 48.484375 72.75 52.59375 71.296875 
z
" id="DejaVuSans-54"/>
       </defs>
       <use xlink:href="#DejaVuSans-54"/>
       <use x="63.623047" xlink:href="#DejaVuSans-48"/>
      </g>
     </g>
    </g>
    <g id="xtick_5">
     <g id="line2d_9">
      <path clip-path="url(#pe06d34be84)" d="M 390.448052 630 
L 390.448052 86.4 
" style="fill:none;stroke:#b0b0b0;stroke-linecap:square;stroke-width:0.8;"/>
     </g>
     <g id="line2d_10">
      <g>
       <use style="stroke:#000000;stroke-width:0.8;" x="390.448052" xlink:href="#m544bbd2072" y="630"/>
      </g>
     </g>
     <g id="text_5">
      <!-- 80 -->
      <g transform="translate(382.813052 646.118125)scale(0.12 -0.12)">
       <defs>
        <path d="M 31.78125 34.625 
Q 24.75 34.625 20.71875 30.859375 
Q 16.703125 27.09375 16.703125 20.515625 
Q 16.703125 13.921875 20.71875 10.15625 
Q 24.75 6.390625 31.78125 6.390625 
Q 38.8125 6.390625 42.859375 10.171875 
Q 46.921875 13.96875 46.921875 20.515625 
Q 46.921875 27.09375 42.890625 30.859375 
Q 38.875 34.625 31.78125 34.625 
z
M 21.921875 38.8125 
Q 15.578125 40.375 12.03125 44.71875 
Q 8.5 49.078125 8.5 55.328125 
Q 8.5 64.0625 14.71875 69.140625 
Q 20.953125 74.21875 31.78125 74.21875 
Q 42.671875 74.21875 48.875 69.140625 
Q 55.078125 64.0625 55.078125 55.328125 
Q 55.078125 49.078125 51.53125 44.71875 
Q 48 40.375 41.703125 38.8125 
Q 48.828125 37.15625 52.796875 32.3125 
Q 56.78125 27.484375 56.78125 20.515625 
Q 56.78125 9.90625 50.3125 4.234375 
Q 43.84375 -1.421875 31.78125 -1.421875 
Q 19.734375 -1.421875 13.25 4.234375 
Q 6.78125 9.90625 6.78125 20.515625 
Q 6.78125 27.484375 10.78125 32.3125 
Q 14.796875 37.15625 21.921875 38.8125 
z
M 18.3125 54.390625 
Q 18.3125 48.734375 21.84375 45.5625 
Q 25.390625 42.390625 31.78125 42.390625 
Q 38.140625 42.390625 41.71875 45.5625 
Q 45.3125 48.734375 45.3125 54.390625 
Q 45.3125 60.0625 41.71875 63.234375 
Q 38.140625 66.40625 31.78125 66.40625 
Q 25.390625 66.40625 21.84375 63.234375 
Q 18.3125 60.0625 18.3125 54.390625 
z
" id="DejaVuSans-56"/>
       </defs>
       <use xlink:href="#DejaVuSans-56"/>
       <use x="63.623047" xlink:href="#DejaVuSans-48"/>
      </g>
     </g>
    </g>
    <g id="xtick_6">
     <g id="line2d_11">
      <path clip-path="url(#pe06d34be84)" d="M 444.798701 630 
L 444.798701 86.4 
" style="fill:none;stroke:#b0b0b0;stroke-linecap:square;stroke-width:0.8;"/>
     </g>
     <g id="line2d_12">
      <g>
       <use style="stroke:#000000;stroke-width:0.8;" x="444.798701" xlink:href="#m544bbd2072" y="630"/>
      </g>
     </g>
     <g id="text_6">
      <!-- 100 -->
      <g transform="translate(433.346201 646.118125)scale(0.12 -0.12)">
       <defs>
        <path d="M 12.40625 8.296875 
L 28.515625 8.296875 
L 28.515625 63.921875 
L 10.984375 60.40625 
L 10.984375 69.390625 
L 28.421875 72.90625 
L 38.28125 72.90625 
L 38.28125 8.296875 
L 54.390625 8.296875 
L 54.390625 0 
L 12.40625 0 
z
" id="DejaVuSans-49"/>
       </defs>
       <use xlink:href="#DejaVuSans-49"/>
       <use x="63.623047" xlink:href="#DejaVuSans-48"/>
       <use x="127.246094" xlink:href="#DejaVuSans-48"/>
      </g>
     </g>
    </g>
    <g id="xtick_7">
     <g id="line2d_13">
      <path clip-path="url(#pe06d34be84)" d="M 499.149351 630 
L 499.149351 86.4 
" style="fill:none;stroke:#b0b0b0;stroke-linecap:square;stroke-width:0.8;"/>
     </g>
     <g id="line2d_14">
      <g>
       <use style="stroke:#000000;stroke-width:0.8;" x="499.149351" xlink:href="#m544bbd2072" y="630"/>
      </g>
     </g>
     <g id="text_7">
      <!-- 120 -->
      <g transform="translate(487.696851 646.118125)scale(0.12 -0.12)">
       <use xlink:href="#DejaVuSans-49"/>
       <use x="63.623047" xlink:href="#DejaVuSans-50"/>
       <use x="127.246094" xlink:href="#DejaVuSans-48"/>
      </g>
     </g>
    </g>
    <g id="xtick_8">
     <g id="line2d_15">
      <path clip-path="url(#pe06d34be84)" d="M 553.5 630 
L 553.5 86.4 
" style="fill:none;stroke:#b0b0b0;stroke-linecap:square;stroke-width:0.8;"/>
     </g>
     <g id="line2d_16">
      <g>
       <use style="stroke:#000000;stroke-width:0.8;" x="553.5" xlink:href="#m544bbd2072" y="630"/>
      </g>
     </g>
     <g id="text_8">
      <!-- 140 -->
      <g transform="translate(542.0475 646.118125)scale(0.12 -0.12)">
       <use xlink:href="#DejaVuSans-49"/>
       <use x="63.623047" xlink:href="#DejaVuSans-52"/>
       <use x="127.246094" xlink:href="#DejaVuSans-48"/>
      </g>
     </g>
    </g>
    <g id="xtick_9">
     <g id="line2d_17">
      <path clip-path="url(#pe06d34be84)" d="M 607.850649 630 
L 607.850649 86.4 
" style="fill:none;stroke:#b0b0b0;stroke-linecap:square;stroke-width:0.8;"/>
     </g>
     <g id="line2d_18">
      <g>
       <use style="stroke:#000000;stroke-width:0.8;" x="607.850649" xlink:href="#m544bbd2072" y="630"/>
      </g>
     </g>
     <g id="text_9">
      <!-- 160 -->
      <g transform="translate(596.398149 646.118125)scale(0.12 -0.12)">
       <use xlink:href="#DejaVuSans-49"/>
       <use x="63.623047" xlink:href="#DejaVuSans-54"/>
       <use x="127.246094" xlink:href="#DejaVuSans-48"/>
      </g>
     </g>
    </g>
    <g id="xtick_10">
     <g id="line2d_19">
      <path clip-path="url(#pe06d34be84)" d="M 662.201299 630 
L 662.201299 86.4 
" style="fill:none;stroke:#b0b0b0;stroke-linecap:square;stroke-width:0.8;"/>
     </g>
     <g id="line2d_20">
      <g>
       <use style="stroke:#000000;stroke-width:0.8;" x="662.201299" xlink:href="#m544bbd2072" y="630"/>
      </g>
     </g>
     <g id="text_10">
      <!-- 180 -->
      <g transform="translate(650.748799 646.118125)scale(0.12 -0.12)">
       <use xlink:href="#DejaVuSans-49"/>
       <use x="63.623047" xlink:href="#DejaVuSans-56"/>
       <use x="127.246094" xlink:href="#DejaVuSans-48"/>
      </g>
     </g>
    </g>
    <g id="xtick_11">
     <g id="line2d_21">
      <path clip-path="url(#pe06d34be84)" d="M 716.551948 630 
L 716.551948 86.4 
" style="fill:none;stroke:#b0b0b0;stroke-linecap:square;stroke-width:0.8;"/>
     </g>
     <g id="line2d_22">
      <g>
       <use style="stroke:#000000;stroke-width:0.8;" x="716.551948" xlink:href="#m544bbd2072" y="630"/>
      </g>
     </g>
     <g id="text_11">
      <!-- 200 -->
      <g transform="translate(705.099448 646.118125)scale(0.12 -0.12)">
       <use xlink:href="#DejaVuSans-50"/>
       <use x="63.623047" xlink:href="#DejaVuSans-48"/>
       <use x="127.246094" xlink:href="#DejaVuSans-48"/>
      </g>
     </g>
    </g>
    <g id="xtick_12">
     <g id="line2d_23">
      <path clip-path="url(#pe06d34be84)" d="M 770.902597 630 
L 770.902597 86.4 
" style="fill:none;stroke:#b0b0b0;stroke-linecap:square;stroke-width:0.8;"/>
     </g>
     <g id="line2d_24">
      <g>
       <use style="stroke:#000000;stroke-width:0.8;" x="770.902597" xlink:href="#m544bbd2072" y="630"/>
      </g>
     </g>
     <g id="text_12">
      <!-- 220 -->
      <g transform="translate(759.450097 646.118125)scale(0.12 -0.12)">
       <use xlink:href="#DejaVuSans-50"/>
       <use x="63.623047" xlink:href="#DejaVuSans-50"/>
       <use x="127.246094" xlink:href="#DejaVuSans-48"/>
      </g>
     </g>
    </g>
    <g id="xtick_13">
     <g id="line2d_25">
      <path clip-path="url(#pe06d34be84)" d="M 825.253247 630 
L 825.253247 86.4 
" style="fill:none;stroke:#b0b0b0;stroke-linecap:square;stroke-width:0.8;"/>
     </g>
     <g id="line2d_26">
      <g>
       <use style="stroke:#000000;stroke-width:0.8;" x="825.253247" xlink:href="#m544bbd2072" y="630"/>
      </g>
     </g>
     <g id="text_13">
      <!-- 240 -->
      <g transform="translate(813.800747 646.118125)scale(0.12 -0.12)">
       <use xlink:href="#DejaVuSans-50"/>
       <use x="63.623047" xlink:href="#DejaVuSans-52"/>
       <use x="127.246094" xlink:href="#DejaVuSans-48"/>
      </g>
     </g>
    </g>
    <g id="xtick_14">
     <g id="line2d_27">
      <path clip-path="url(#pe06d34be84)" d="M 879.603896 630 
L 879.603896 86.4 
" style="fill:none;stroke:#b0b0b0;stroke-linecap:square;stroke-width:0.8;"/>
     </g>
     <g id="line2d_28">
      <g>
       <use style="stroke:#000000;stroke-width:0.8;" x="879.603896" xlink:href="#m544bbd2072" y="630"/>
      </g>
     </g>
     <g id="text_14">
      <!-- 260 -->
      <g transform="translate(868.151396 646.118125)scale(0.12 -0.12)">
       <use xlink:href="#DejaVuSans-50"/>
       <use x="63.623047" xlink:href="#DejaVuSans-54"/>
       <use x="127.246094" xlink:href="#DejaVuSans-48"/>
      </g>
     </g>
    </g>
    <g id="xtick_15">
     <g id="line2d_29">
      <path clip-path="url(#pe06d34be84)" d="M 933.954545 630 
L 933.954545 86.4 
" style="fill:none;stroke:#b0b0b0;stroke-linecap:square;stroke-width:0.8;"/>
     </g>
     <g id="line2d_30">
      <g>
       <use style="stroke:#000000;stroke-width:0.8;" x="933.954545" xlink:href="#m544bbd2072" y="630"/>
      </g>
     </g>
     <g id="text_15">
      <!-- 280 -->
      <g transform="translate(922.502045 646.118125)scale(0.12 -0.12)">
       <use xlink:href="#DejaVuSans-50"/>
       <use x="63.623047" xlink:href="#DejaVuSans-56"/>
       <use x="127.246094" xlink:href="#DejaVuSans-48"/>
      </g>
     </g>
    </g>
    <g id="xtick_16">
     <g id="line2d_31">
      <defs>
       <path d="M 0 0 
L 0 2 
" id="m03fe545668" style="stroke:#000000;stroke-width:0.6;"/>
      </defs>
      <g>
       <use style="stroke:#000000;stroke-width:0.6;" x="145.87013" xlink:href="#m03fe545668" y="630"/>
      </g>
     </g>
    </g>
    <g id="xtick_17">
     <g id="line2d_32">
      <g>
       <use style="stroke:#000000;stroke-width:0.6;" x="159.457792" xlink:href="#m03fe545668" y="630"/>
      </g>
     </g>
    </g>
    <g id="xtick_18">
     <g id="line2d_33">
      <g>
       <use style="stroke:#000000;stroke-width:0.6;" x="186.633117" xlink:href="#m03fe545668" y="630"/>
      </g>
     </g>
    </g>
    <g id="xtick_19">
     <g id="line2d_34">
      <g>
       <use style="stroke:#000000;stroke-width:0.6;" x="200.220779" xlink:href="#m03fe545668" y="630"/>
      </g>
     </g>
    </g>
    <g id="xtick_20">
     <g id="line2d_35">
      <g>
       <use style="stroke:#000000;stroke-width:0.6;" x="213.808442" xlink:href="#m03fe545668" y="630"/>
      </g>
     </g>
    </g>
    <g id="xtick_21">
     <g id="line2d_36">
      <g>
       <use style="stroke:#000000;stroke-width:0.6;" x="240.983766" xlink:href="#m03fe545668" y="630"/>
      </g>
     </g>
    </g>
    <g id="xtick_22">
     <g id="line2d_37">
      <g>
       <use style="stroke:#000000;stroke-width:0.6;" x="254.571429" xlink:href="#m03fe545668" y="630"/>
      </g>
     </g>
    </g>
    <g id="xtick_23">
     <g id="line2d_38">
      <g>
       <use style="stroke:#000000;stroke-width:0.6;" x="268.159091" xlink:href="#m03fe545668" y="630"/>
      </g>
     </g>
    </g>
    <g id="xtick_24">
     <g id="line2d_39">
      <g>
       <use style="stroke:#000000;stroke-width:0.6;" x="295.334416" xlink:href="#m03fe545668" y="630"/>
      </g>
     </g>
    </g>
    <g id="xtick_25">
     <g id="line2d_40">
      <g>
       <use style="stroke:#000000;stroke-width:0.6;" x="308.922078" xlink:href="#m03fe545668" y="630"/>
      </g>
     </g>
    </g>
    <g id="xtick_26">
     <g id="line2d_41">
      <g>
       <use style="stroke:#000000;stroke-width:0.6;" x="322.50974" xlink:href="#m03fe545668" y="630"/>
      </g>
     </g>
    </g>
    <g id="xtick_27">
     <g id="line2d_42">
      <g>
       <use style="stroke:#000000;stroke-width:0.6;" x="349.685065" xlink:href="#m03fe545668" y="630"/>
      </g>
     </g>
    </g>
    <g id="xtick_28">
     <g id="line2d_43">
      <g>
       <use style="stroke:#000000;stroke-width:0.6;" x="363.272727" xlink:href="#m03fe545668" y="630"/>
      </g>
     </g>
    </g>
    <g id="xtick_29">
     <g id="line2d_44">
      <g>
       <use style="stroke:#000000;stroke-width:0.6;" x="376.86039" xlink:href="#m03fe545668" y="630"/>
      </g>
     </g>
    </g>
    <g id="xtick_30">
     <g id="line2d_45">
      <g>
       <use style="stroke:#000000;stroke-width:0.6;" x="404.035714" xlink:href="#m03fe545668" y="630"/>
      </g>
     </g>
    </g>
    <g id="xtick_31">
     <g id="line2d_46">
      <g>
       <use style="stroke:#000000;stroke-width:0.6;" x="417.623377" xlink:href="#m03fe545668" y="630"/>
      </g>
     </g>
    </g>
    <g id="xtick_32">
     <g id="line2d_47">
      <g>
       <use style="stroke:#000000;stroke-width:0.6;" x="431.211039" xlink:href="#m03fe545668" y="630"/>
      </g>
     </g>
    </g>
    <g id="xtick_33">
     <g id="line2d_48">
      <g>
       <use style="stroke:#000000;stroke-width:0.6;" x="458.386364" xlink:href="#m03fe545668" y="630"/>
      </g>
     </g>
    </g>
    <g id="xtick_34">
     <g id="line2d_49">
      <g>
       <use style="stroke:#000000;stroke-width:0.6;" x="471.974026" xlink:href="#m03fe545668" y="630"/>
      </g>
     </g>
    </g>
    <g id="xtick_35">
     <g id="line2d_50">
      <g>
       <use style="stroke:#000000;stroke-width:0.6;" x="485.561688" xlink:href="#m03fe545668" y="630"/>
      </g>
     </g>
    </g>
    <g id="xtick_36">
     <g id="line2d_51">
      <g>
       <use style="stroke:#000000;stroke-width:0.6;" x="512.737013" xlink:href="#m03fe545668" y="630"/>
      </g>
     </g>
    </g>
    <g id="xtick_37">
     <g id="line2d_52">
      <g>
       <use style="stroke:#000000;stroke-width:0.6;" x="526.324675" xlink:href="#m03fe545668" y="630"/>
      </g>
     </g>
    </g>
    <g id="xtick_38">
     <g id="line2d_53">
      <g>
       <use style="stroke:#000000;stroke-width:0.6;" x="539.912338" xlink:href="#m03fe545668" y="630"/>
      </g>
     </g>
    </g>
    <g id="xtick_39">
     <g id="line2d_54">
      <g>
       <use style="stroke:#000000;stroke-width:0.6;" x="567.087662" xlink:href="#m03fe545668" y="630"/>
      </g>
     </g>
    </g>
    <g id="xtick_40">
     <g id="line2d_55">
      <g>
       <use style="stroke:#000000;stroke-width:0.6;" x="580.675325" xlink:href="#m03fe545668" y="630"/>
      </g>
     </g>
    </g>
    <g id="xtick_41">
     <g id="line2d_56">
      <g>
       <use style="stroke:#000000;stroke-width:0.6;" x="594.262987" xlink:href="#m03fe545668" y="630"/>
      </g>
     </g>
    </g>
    <g id="xtick_42">
     <g id="line2d_57">
      <g>
       <use style="stroke:#000000;stroke-width:0.6;" x="621.438312" xlink:href="#m03fe545668" y="630"/>
      </g>
     </g>
    </g>
    <g id="xtick_43">
     <g id="line2d_58">
      <g>
       <use style="stroke:#000000;stroke-width:0.6;" x="635.025974" xlink:href="#m03fe545668" y="630"/>
      </g>
     </g>
    </g>
    <g id="xtick_44">
     <g id="line2d_59">
      <g>
       <use style="stroke:#000000;stroke-width:0.6;" x="648.613636" xlink:href="#m03fe545668" y="630"/>
      </g>
     </g>
    </g>
    <g id="xtick_45">
     <g id="line2d_60">
      <g>
       <use style="stroke:#000000;stroke-width:0.6;" x="675.788961" xlink:href="#m03fe545668" y="630"/>
      </g>
     </g>
    </g>
    <g id="xtick_46">
     <g id="line2d_61">
      <g>
       <use style="stroke:#000000;stroke-width:0.6;" x="689.376623" xlink:href="#m03fe545668" y="630"/>
      </g>
     </g>
    </g>
    <g id="xtick_47">
     <g id="line2d_62">
      <g>
       <use style="stroke:#000000;stroke-width:0.6;" x="702.964286" xlink:href="#m03fe545668" y="630"/>
      </g>
     </g>
    </g>
    <g id="xtick_48">
     <g id="line2d_63">
      <g>
       <use style="stroke:#000000;stroke-width:0.6;" x="730.13961" xlink:href="#m03fe545668" y="630"/>
      </g>
     </g>
    </g>
    <g id="xtick_49">
     <g id="line2d_64">
      <g>
       <use style="stroke:#000000;stroke-width:0.6;" x="743.727273" xlink:href="#m03fe545668" y="630"/>
      </g>
     </g>
    </g>
    <g id="xtick_50">
     <g id="line2d_65">
      <g>
       <use style="stroke:#000000;stroke-width:0.6;" x="757.314935" xlink:href="#m03fe545668" y="630"/>
      </g>
     </g>
    </g>
    <g id="xtick_51">
     <g id="line2d_66">
      <g>
       <use style="stroke:#000000;stroke-width:0.6;" x="784.49026" xlink:href="#m03fe545668" y="630"/>
      </g>
     </g>
    </g>
    <g id="xtick_52">
     <g id="line2d_67">
      <g>
       <use style="stroke:#000000;stroke-width:0.6;" x="798.077922" xlink:href="#m03fe545668" y="630"/>
      </g>
     </g>
    </g>
    <g id="xtick_53">
     <g id="line2d_68">
      <g>
       <use style="stroke:#000000;stroke-width:0.6;" x="811.665584" xlink:href="#m03fe545668" y="630"/>
      </g>
     </g>
    </g>
    <g id="xtick_54">
     <g id="line2d_69">
      <g>
       <use style="stroke:#000000;stroke-width:0.6;" x="838.840909" xlink:href="#m03fe545668" y="630"/>
      </g>
     </g>
    </g>
    <g id="xtick_55">
     <g id="line2d_70">
      <g>
       <use style="stroke:#000000;stroke-width:0.6;" x="852.428571" xlink:href="#m03fe545668" y="630"/>
      </g>
     </g>
    </g>
    <g id="xtick_56">
     <g id="line2d_71">
      <g>
       <use style="stroke:#000000;stroke-width:0.6;" x="866.016234" xlink:href="#m03fe545668" y="630"/>
      </g>
     </g>
    </g>
    <g id="xtick_57">
     <g id="line2d_72">
      <g>
       <use style="stroke:#000000;stroke-width:0.6;" x="893.191558" xlink:href="#m03fe545668" y="630"/>
      </g>
     </g>
    </g>
    <g id="xtick_58">
     <g id="line2d_73">
      <g>
       <use style="stroke:#000000;stroke-width:0.6;" x="906.779221" xlink:href="#m03fe545668" y="630"/>
      </g>
     </g>
    </g>
    <g id="xtick_59">
     <g id="line2d_74">
      <g>
       <use style="stroke:#000000;stroke-width:0.6;" x="920.366883" xlink:href="#m03fe545668" y="630"/>
      </g>
     </g>
    </g>
    <g id="xtick_60">
     <g id="line2d_75">
      <g>
       <use style="stroke:#000000;stroke-width:0.6;" x="947.542208" xlink:href="#m03fe545668" y="630"/>
      </g>
     </g>
    </g>
    <g id="xtick_61">
     <g id="line2d_76">
      <g>
       <use style="stroke:#000000;stroke-width:0.6;" x="961.12987" xlink:href="#m03fe545668" y="630"/>
      </g>
     </g>
    </g>
    <g id="text_16">
     <!-- Epochs -->
     <g transform="translate(528.418125 663.251562)scale(0.14 -0.14)">
      <defs>
       <path d="M 9.8125 72.90625 
L 55.90625 72.90625 
L 55.90625 64.59375 
L 19.671875 64.59375 
L 19.671875 43.015625 
L 54.390625 43.015625 
L 54.390625 34.71875 
L 19.671875 34.71875 
L 19.671875 8.296875 
L 56.78125 8.296875 
L 56.78125 0 
L 9.8125 0 
z
" id="DejaVuSans-69"/>
       <path d="M 18.109375 8.203125 
L 18.109375 -20.796875 
L 9.078125 -20.796875 
L 9.078125 54.6875 
L 18.109375 54.6875 
L 18.109375 46.390625 
Q 20.953125 51.265625 25.265625 53.625 
Q 29.59375 56 35.59375 56 
Q 45.5625 56 51.78125 48.09375 
Q 58.015625 40.1875 58.015625 27.296875 
Q 58.015625 14.40625 51.78125 6.484375 
Q 45.5625 -1.421875 35.59375 -1.421875 
Q 29.59375 -1.421875 25.265625 0.953125 
Q 20.953125 3.328125 18.109375 8.203125 
z
M 48.6875 27.296875 
Q 48.6875 37.203125 44.609375 42.84375 
Q 40.53125 48.484375 33.40625 48.484375 
Q 26.265625 48.484375 22.1875 42.84375 
Q 18.109375 37.203125 18.109375 27.296875 
Q 18.109375 17.390625 22.1875 11.75 
Q 26.265625 6.109375 33.40625 6.109375 
Q 40.53125 6.109375 44.609375 11.75 
Q 48.6875 17.390625 48.6875 27.296875 
z
" id="DejaVuSans-112"/>
       <path d="M 30.609375 48.390625 
Q 23.390625 48.390625 19.1875 42.75 
Q 14.984375 37.109375 14.984375 27.296875 
Q 14.984375 17.484375 19.15625 11.84375 
Q 23.34375 6.203125 30.609375 6.203125 
Q 37.796875 6.203125 41.984375 11.859375 
Q 46.1875 17.53125 46.1875 27.296875 
Q 46.1875 37.015625 41.984375 42.703125 
Q 37.796875 48.390625 30.609375 48.390625 
z
M 30.609375 56 
Q 42.328125 56 49.015625 48.375 
Q 55.71875 40.765625 55.71875 27.296875 
Q 55.71875 13.875 49.015625 6.21875 
Q 42.328125 -1.421875 30.609375 -1.421875 
Q 18.84375 -1.421875 12.171875 6.21875 
Q 5.515625 13.875 5.515625 27.296875 
Q 5.515625 40.765625 12.171875 48.375 
Q 18.84375 56 30.609375 56 
z
" id="DejaVuSans-111"/>
       <path d="M 48.78125 52.59375 
L 48.78125 44.1875 
Q 44.96875 46.296875 41.140625 47.34375 
Q 37.3125 48.390625 33.40625 48.390625 
Q 24.65625 48.390625 19.8125 42.84375 
Q 14.984375 37.3125 14.984375 27.296875 
Q 14.984375 17.28125 19.8125 11.734375 
Q 24.65625 6.203125 33.40625 6.203125 
Q 37.3125 6.203125 41.140625 7.25 
Q 44.96875 8.296875 48.78125 10.40625 
L 48.78125 2.09375 
Q 45.015625 0.34375 40.984375 -0.53125 
Q 36.96875 -1.421875 32.421875 -1.421875 
Q 20.0625 -1.421875 12.78125 6.34375 
Q 5.515625 14.109375 5.515625 27.296875 
Q 5.515625 40.671875 12.859375 48.328125 
Q 20.21875 56 33.015625 56 
Q 37.15625 56 41.109375 55.140625 
Q 45.0625 54.296875 48.78125 52.59375 
z
" id="DejaVuSans-99"/>
       <path d="M 54.890625 33.015625 
L 54.890625 0 
L 45.90625 0 
L 45.90625 32.71875 
Q 45.90625 40.484375 42.875 44.328125 
Q 39.84375 48.1875 33.796875 48.1875 
Q 26.515625 48.1875 22.3125 43.546875 
Q 18.109375 38.921875 18.109375 30.90625 
L 18.109375 0 
L 9.078125 0 
L 9.078125 75.984375 
L 18.109375 75.984375 
L 18.109375 46.1875 
Q 21.34375 51.125 25.703125 53.5625 
Q 30.078125 56 35.796875 56 
Q 45.21875 56 50.046875 50.171875 
Q 54.890625 44.34375 54.890625 33.015625 
z
" id="DejaVuSans-104"/>
       <path d="M 44.28125 53.078125 
L 44.28125 44.578125 
Q 40.484375 46.53125 36.375 47.5 
Q 32.28125 48.484375 27.875 48.484375 
Q 21.1875 48.484375 17.84375 46.4375 
Q 14.5 44.390625 14.5 40.28125 
Q 14.5 37.15625 16.890625 35.375 
Q 19.28125 33.59375 26.515625 31.984375 
L 29.59375 31.296875 
Q 39.15625 29.25 43.1875 25.515625 
Q 47.21875 21.78125 47.21875 15.09375 
Q 47.21875 7.46875 41.1875 3.015625 
Q 35.15625 -1.421875 24.609375 -1.421875 
Q 20.21875 -1.421875 15.453125 -0.5625 
Q 10.6875 0.296875 5.421875 2 
L 5.421875 11.28125 
Q 10.40625 8.6875 15.234375 7.390625 
Q 20.0625 6.109375 24.8125 6.109375 
Q 31.15625 6.109375 34.5625 8.28125 
Q 37.984375 10.453125 37.984375 14.40625 
Q 37.984375 18.0625 35.515625 20.015625 
Q 33.0625 21.96875 24.703125 23.78125 
L 21.578125 24.515625 
Q 13.234375 26.265625 9.515625 29.90625 
Q 5.8125 33.546875 5.8125 39.890625 
Q 5.8125 47.609375 11.28125 51.796875 
Q 16.75 56 26.8125 56 
Q 31.78125 56 36.171875 55.265625 
Q 40.578125 54.546875 44.28125 53.078125 
z
" id="DejaVuSans-115"/>
      </defs>
      <use xlink:href="#DejaVuSans-69"/>
      <use x="63.183594" xlink:href="#DejaVuSans-112"/>
      <use x="126.660156" xlink:href="#DejaVuSans-111"/>
      <use x="187.841797" xlink:href="#DejaVuSans-99"/>
      <use x="242.822266" xlink:href="#DejaVuSans-104"/>
      <use x="306.201172" xlink:href="#DejaVuSans-115"/>
     </g>
    </g>
   </g>
   <g id="matplotlib.axis_2">
    <g id="ytick_1">
     <g id="line2d_77">
      <path clip-path="url(#pe06d34be84)" d="M 135 604.298028 
L 972 604.298028 
" style="fill:none;stroke:#b0b0b0;stroke-linecap:square;stroke-width:0.8;"/>
     </g>
     <g id="line2d_78">
      <defs>
       <path d="M 0 0 
L -3.5 0 
" id="m2aa97138bd" style="stroke:#000000;stroke-width:0.8;"/>
      </defs>
      <g>
       <use style="stroke:#000000;stroke-width:0.8;" x="135" xlink:href="#m2aa97138bd" y="604.298028"/>
      </g>
     </g>
     <g id="text_17">
      <!-- 0.50 -->
      <g transform="translate(101.28125 608.857091)scale(0.12 -0.12)">
       <defs>
        <path d="M 10.6875 12.40625 
L 21 12.40625 
L 21 0 
L 10.6875 0 
z
" id="DejaVuSans-46"/>
        <path d="M 10.796875 72.90625 
L 49.515625 72.90625 
L 49.515625 64.59375 
L 19.828125 64.59375 
L 19.828125 46.734375 
Q 21.96875 47.46875 24.109375 47.828125 
Q 26.265625 48.1875 28.421875 48.1875 
Q 40.625 48.1875 47.75 41.5 
Q 54.890625 34.8125 54.890625 23.390625 
Q 54.890625 11.625 47.5625 5.09375 
Q 40.234375 -1.421875 26.90625 -1.421875 
Q 22.3125 -1.421875 17.546875 -0.640625 
Q 12.796875 0.140625 7.71875 1.703125 
L 7.71875 11.625 
Q 12.109375 9.234375 16.796875 8.0625 
Q 21.484375 6.890625 26.703125 6.890625 
Q 35.15625 6.890625 40.078125 11.328125 
Q 45.015625 15.765625 45.015625 23.390625 
Q 45.015625 31 40.078125 35.4375 
Q 35.15625 39.890625 26.703125 39.890625 
Q 22.75 39.890625 18.8125 39.015625 
Q 14.890625 38.140625 10.796875 36.28125 
z
" id="DejaVuSans-53"/>
       </defs>
       <use xlink:href="#DejaVuSans-48"/>
       <use x="63.623047" xlink:href="#DejaVuSans-46"/>
       <use x="95.410156" xlink:href="#DejaVuSans-53"/>
       <use x="159.033203" xlink:href="#DejaVuSans-48"/>
      </g>
     </g>
    </g>
    <g id="ytick_2">
     <g id="line2d_79">
      <path clip-path="url(#pe06d34be84)" d="M 135 533.265772 
L 972 533.265772 
" style="fill:none;stroke:#b0b0b0;stroke-linecap:square;stroke-width:0.8;"/>
     </g>
     <g id="line2d_80">
      <g>
       <use style="stroke:#000000;stroke-width:0.8;" x="135" xlink:href="#m2aa97138bd" y="533.265772"/>
      </g>
     </g>
     <g id="text_18">
      <!-- 0.55 -->
      <g transform="translate(101.28125 537.824834)scale(0.12 -0.12)">
       <use xlink:href="#DejaVuSans-48"/>
       <use x="63.623047" xlink:href="#DejaVuSans-46"/>
       <use x="95.410156" xlink:href="#DejaVuSans-53"/>
       <use x="159.033203" xlink:href="#DejaVuSans-53"/>
      </g>
     </g>
    </g>
    <g id="ytick_3">
     <g id="line2d_81">
      <path clip-path="url(#pe06d34be84)" d="M 135 462.233515 
L 972 462.233515 
" style="fill:none;stroke:#b0b0b0;stroke-linecap:square;stroke-width:0.8;"/>
     </g>
     <g id="line2d_82">
      <g>
       <use style="stroke:#000000;stroke-width:0.8;" x="135" xlink:href="#m2aa97138bd" y="462.233515"/>
      </g>
     </g>
     <g id="text_19">
      <!-- 0.60 -->
      <g transform="translate(101.28125 466.792577)scale(0.12 -0.12)">
       <use xlink:href="#DejaVuSans-48"/>
       <use x="63.623047" xlink:href="#DejaVuSans-46"/>
       <use x="95.410156" xlink:href="#DejaVuSans-54"/>
       <use x="159.033203" xlink:href="#DejaVuSans-48"/>
      </g>
     </g>
    </g>
    <g id="ytick_4">
     <g id="line2d_83">
      <path clip-path="url(#pe06d34be84)" d="M 135 391.201258 
L 972 391.201258 
" style="fill:none;stroke:#b0b0b0;stroke-linecap:square;stroke-width:0.8;"/>
     </g>
     <g id="line2d_84">
      <g>
       <use style="stroke:#000000;stroke-width:0.8;" x="135" xlink:href="#m2aa97138bd" y="391.201258"/>
      </g>
     </g>
     <g id="text_20">
      <!-- 0.65 -->
      <g transform="translate(101.28125 395.760321)scale(0.12 -0.12)">
       <use xlink:href="#DejaVuSans-48"/>
       <use x="63.623047" xlink:href="#DejaVuSans-46"/>
       <use x="95.410156" xlink:href="#DejaVuSans-54"/>
       <use x="159.033203" xlink:href="#DejaVuSans-53"/>
      </g>
     </g>
    </g>
    <g id="ytick_5">
     <g id="line2d_85">
      <path clip-path="url(#pe06d34be84)" d="M 135 320.169001 
L 972 320.169001 
" style="fill:none;stroke:#b0b0b0;stroke-linecap:square;stroke-width:0.8;"/>
     </g>
     <g id="line2d_86">
      <g>
       <use style="stroke:#000000;stroke-width:0.8;" x="135" xlink:href="#m2aa97138bd" y="320.169001"/>
      </g>
     </g>
     <g id="text_21">
      <!-- 0.70 -->
      <g transform="translate(101.28125 324.728064)scale(0.12 -0.12)">
       <defs>
        <path d="M 8.203125 72.90625 
L 55.078125 72.90625 
L 55.078125 68.703125 
L 28.609375 0 
L 18.3125 0 
L 43.21875 64.59375 
L 8.203125 64.59375 
z
" id="DejaVuSans-55"/>
       </defs>
       <use xlink:href="#DejaVuSans-48"/>
       <use x="63.623047" xlink:href="#DejaVuSans-46"/>
       <use x="95.410156" xlink:href="#DejaVuSans-55"/>
       <use x="159.033203" xlink:href="#DejaVuSans-48"/>
      </g>
     </g>
    </g>
    <g id="ytick_6">
     <g id="line2d_87">
      <path clip-path="url(#pe06d34be84)" d="M 135 249.136745 
L 972 249.136745 
" style="fill:none;stroke:#b0b0b0;stroke-linecap:square;stroke-width:0.8;"/>
     </g>
     <g id="line2d_88">
      <g>
       <use style="stroke:#000000;stroke-width:0.8;" x="135" xlink:href="#m2aa97138bd" y="249.136745"/>
      </g>
     </g>
     <g id="text_22">
      <!-- 0.75 -->
      <g transform="translate(101.28125 253.695807)scale(0.12 -0.12)">
       <use xlink:href="#DejaVuSans-48"/>
       <use x="63.623047" xlink:href="#DejaVuSans-46"/>
       <use x="95.410156" xlink:href="#DejaVuSans-55"/>
       <use x="159.033203" xlink:href="#DejaVuSans-53"/>
      </g>
     </g>
    </g>
    <g id="ytick_7">
     <g id="line2d_89">
      <path clip-path="url(#pe06d34be84)" d="M 135 178.104488 
L 972 178.104488 
" style="fill:none;stroke:#b0b0b0;stroke-linecap:square;stroke-width:0.8;"/>
     </g>
     <g id="line2d_90">
      <g>
       <use style="stroke:#000000;stroke-width:0.8;" x="135" xlink:href="#m2aa97138bd" y="178.104488"/>
      </g>
     </g>
     <g id="text_23">
      <!-- 0.80 -->
      <g transform="translate(101.28125 182.66355)scale(0.12 -0.12)">
       <use xlink:href="#DejaVuSans-48"/>
       <use x="63.623047" xlink:href="#DejaVuSans-46"/>
       <use x="95.410156" xlink:href="#DejaVuSans-56"/>
       <use x="159.033203" xlink:href="#DejaVuSans-48"/>
      </g>
     </g>
    </g>
    <g id="ytick_8">
     <g id="line2d_91">
      <path clip-path="url(#pe06d34be84)" d="M 135 107.072231 
L 972 107.072231 
" style="fill:none;stroke:#b0b0b0;stroke-linecap:square;stroke-width:0.8;"/>
     </g>
     <g id="line2d_92">
      <g>
       <use style="stroke:#000000;stroke-width:0.8;" x="135" xlink:href="#m2aa97138bd" y="107.072231"/>
      </g>
     </g>
     <g id="text_24">
      <!-- 0.85 -->
      <g transform="translate(101.28125 111.631294)scale(0.12 -0.12)">
       <use xlink:href="#DejaVuSans-48"/>
       <use x="63.623047" xlink:href="#DejaVuSans-46"/>
       <use x="95.410156" xlink:href="#DejaVuSans-56"/>
       <use x="159.033203" xlink:href="#DejaVuSans-53"/>
      </g>
     </g>
    </g>
    <g id="ytick_9">
     <g id="line2d_93">
      <defs>
       <path d="M 0 0 
L -2 0 
" id="m3a1f3a0bd7" style="stroke:#000000;stroke-width:0.6;"/>
      </defs>
      <g>
       <use style="stroke:#000000;stroke-width:0.6;" x="135" xlink:href="#m3a1f3a0bd7" y="618.50448"/>
      </g>
     </g>
    </g>
    <g id="ytick_10">
     <g id="line2d_94">
      <g>
       <use style="stroke:#000000;stroke-width:0.6;" x="135" xlink:href="#m3a1f3a0bd7" y="590.091577"/>
      </g>
     </g>
    </g>
    <g id="ytick_11">
     <g id="line2d_95">
      <g>
       <use style="stroke:#000000;stroke-width:0.6;" x="135" xlink:href="#m3a1f3a0bd7" y="575.885126"/>
      </g>
     </g>
    </g>
    <g id="ytick_12">
     <g id="line2d_96">
      <g>
       <use style="stroke:#000000;stroke-width:0.6;" x="135" xlink:href="#m3a1f3a0bd7" y="561.678674"/>
      </g>
     </g>
    </g>
    <g id="ytick_13">
     <g id="line2d_97">
      <g>
       <use style="stroke:#000000;stroke-width:0.6;" x="135" xlink:href="#m3a1f3a0bd7" y="547.472223"/>
      </g>
     </g>
    </g>
    <g id="ytick_14">
     <g id="line2d_98">
      <g>
       <use style="stroke:#000000;stroke-width:0.6;" x="135" xlink:href="#m3a1f3a0bd7" y="519.05932"/>
      </g>
     </g>
    </g>
    <g id="ytick_15">
     <g id="line2d_99">
      <g>
       <use style="stroke:#000000;stroke-width:0.6;" x="135" xlink:href="#m3a1f3a0bd7" y="504.852869"/>
      </g>
     </g>
    </g>
    <g id="ytick_16">
     <g id="line2d_100">
      <g>
       <use style="stroke:#000000;stroke-width:0.6;" x="135" xlink:href="#m3a1f3a0bd7" y="490.646418"/>
      </g>
     </g>
    </g>
    <g id="ytick_17">
     <g id="line2d_101">
      <g>
       <use style="stroke:#000000;stroke-width:0.6;" x="135" xlink:href="#m3a1f3a0bd7" y="476.439966"/>
      </g>
     </g>
    </g>
    <g id="ytick_18">
     <g id="line2d_102">
      <g>
       <use style="stroke:#000000;stroke-width:0.6;" x="135" xlink:href="#m3a1f3a0bd7" y="448.027064"/>
      </g>
     </g>
    </g>
    <g id="ytick_19">
     <g id="line2d_103">
      <g>
       <use style="stroke:#000000;stroke-width:0.6;" x="135" xlink:href="#m3a1f3a0bd7" y="433.820612"/>
      </g>
     </g>
    </g>
    <g id="ytick_20">
     <g id="line2d_104">
      <g>
       <use style="stroke:#000000;stroke-width:0.6;" x="135" xlink:href="#m3a1f3a0bd7" y="419.614161"/>
      </g>
     </g>
    </g>
    <g id="ytick_21">
     <g id="line2d_105">
      <g>
       <use style="stroke:#000000;stroke-width:0.6;" x="135" xlink:href="#m3a1f3a0bd7" y="405.407709"/>
      </g>
     </g>
    </g>
    <g id="ytick_22">
     <g id="line2d_106">
      <g>
       <use style="stroke:#000000;stroke-width:0.6;" x="135" xlink:href="#m3a1f3a0bd7" y="376.994807"/>
      </g>
     </g>
    </g>
    <g id="ytick_23">
     <g id="line2d_107">
      <g>
       <use style="stroke:#000000;stroke-width:0.6;" x="135" xlink:href="#m3a1f3a0bd7" y="362.788355"/>
      </g>
     </g>
    </g>
    <g id="ytick_24">
     <g id="line2d_108">
      <g>
       <use style="stroke:#000000;stroke-width:0.6;" x="135" xlink:href="#m3a1f3a0bd7" y="348.581904"/>
      </g>
     </g>
    </g>
    <g id="ytick_25">
     <g id="line2d_109">
      <g>
       <use style="stroke:#000000;stroke-width:0.6;" x="135" xlink:href="#m3a1f3a0bd7" y="334.375453"/>
      </g>
     </g>
    </g>
    <g id="ytick_26">
     <g id="line2d_110">
      <g>
       <use style="stroke:#000000;stroke-width:0.6;" x="135" xlink:href="#m3a1f3a0bd7" y="305.96255"/>
      </g>
     </g>
    </g>
    <g id="ytick_27">
     <g id="line2d_111">
      <g>
       <use style="stroke:#000000;stroke-width:0.6;" x="135" xlink:href="#m3a1f3a0bd7" y="291.756099"/>
      </g>
     </g>
    </g>
    <g id="ytick_28">
     <g id="line2d_112">
      <g>
       <use style="stroke:#000000;stroke-width:0.6;" x="135" xlink:href="#m3a1f3a0bd7" y="277.549647"/>
      </g>
     </g>
    </g>
    <g id="ytick_29">
     <g id="line2d_113">
      <g>
       <use style="stroke:#000000;stroke-width:0.6;" x="135" xlink:href="#m3a1f3a0bd7" y="263.343196"/>
      </g>
     </g>
    </g>
    <g id="ytick_30">
     <g id="line2d_114">
      <g>
       <use style="stroke:#000000;stroke-width:0.6;" x="135" xlink:href="#m3a1f3a0bd7" y="234.930293"/>
      </g>
     </g>
    </g>
    <g id="ytick_31">
     <g id="line2d_115">
      <g>
       <use style="stroke:#000000;stroke-width:0.6;" x="135" xlink:href="#m3a1f3a0bd7" y="220.723842"/>
      </g>
     </g>
    </g>
    <g id="ytick_32">
     <g id="line2d_116">
      <g>
       <use style="stroke:#000000;stroke-width:0.6;" x="135" xlink:href="#m3a1f3a0bd7" y="206.517391"/>
      </g>
     </g>
    </g>
    <g id="ytick_33">
     <g id="line2d_117">
      <g>
       <use style="stroke:#000000;stroke-width:0.6;" x="135" xlink:href="#m3a1f3a0bd7" y="192.310939"/>
      </g>
     </g>
    </g>
    <g id="ytick_34">
     <g id="line2d_118">
      <g>
       <use style="stroke:#000000;stroke-width:0.6;" x="135" xlink:href="#m3a1f3a0bd7" y="163.898037"/>
      </g>
     </g>
    </g>
    <g id="ytick_35">
     <g id="line2d_119">
      <g>
       <use style="stroke:#000000;stroke-width:0.6;" x="135" xlink:href="#m3a1f3a0bd7" y="149.691585"/>
      </g>
     </g>
    </g>
    <g id="ytick_36">
     <g id="line2d_120">
      <g>
       <use style="stroke:#000000;stroke-width:0.6;" x="135" xlink:href="#m3a1f3a0bd7" y="135.485134"/>
      </g>
     </g>
    </g>
    <g id="ytick_37">
     <g id="line2d_121">
      <g>
       <use style="stroke:#000000;stroke-width:0.6;" x="135" xlink:href="#m3a1f3a0bd7" y="121.278683"/>
      </g>
     </g>
    </g>
    <g id="ytick_38">
     <g id="line2d_122">
      <g>
       <use style="stroke:#000000;stroke-width:0.6;" x="135" xlink:href="#m3a1f3a0bd7" y="92.86578"/>
      </g>
     </g>
    </g>
   </g>
   <g id="LineCollection_1">
    <path clip-path="url(#pe06d34be84)" d="M 173.045455 551.748214 
L 933.954545 551.748214 
" style="fill:none;stroke:#008000;stroke-dasharray:3.7,1.6;stroke-dashoffset:0;"/>
   </g>
   <g id="line2d_123">
    <path clip-path="url(#pe06d34be84)" d="M 173.045455 596.311713 
L 175.762987 604.126981 
L 178.480519 604.055852 
L 181.198052 604.203275 
L 186.633117 603.38394 
L 189.350649 601.381666 
L 192.068182 602.158663 
L 194.785714 601.295296 
L 197.503247 597.717352 
L 200.220779 597.361539 
L 202.938312 597.535719 
L 205.655844 599.612678 
L 208.373377 595.824735 
L 211.090909 594.384632 
L 213.808442 592.078792 
L 216.525974 596.852121 
L 219.243506 593.717038 
L 221.961039 591.466153 
L 224.678571 590.960631 
L 227.396104 593.332943 
L 230.113636 587.107233 
L 232.831169 583.473232 
L 235.548701 589.334493 
L 238.266234 589.988793 
L 240.983766 593.678341 
L 243.701299 594.686845 
L 246.418831 593.576813 
L 249.136364 590.1573 
L 251.853896 588.82787 
L 254.571429 583.80288 
L 257.288961 580.287089 
L 260.006494 582.710885 
L 262.724026 579.403653 
L 265.441558 581.746583 
L 268.159091 582.41985 
L 270.876623 587.089789 
L 273.594156 580.123324 
L 276.311688 578.30209 
L 279.029221 582.867283 
L 281.746753 575.33526 
L 284.464286 579.61289 
L 287.181818 573.054992 
L 289.899351 575.621214 
L 292.616883 568.189787 
L 295.334416 572.392394 
L 298.051948 560.667925 
L 300.769481 566.90422 
L 303.487013 560.036658 
L 306.204545 566.694729 
L 308.922078 564.19574 
L 311.63961 563.38174 
L 314.357143 565.585799 
L 317.074675 562.776299 
L 319.792208 566.959006 
L 322.50974 572.728477 
L 325.227273 575.242793 
L 327.944805 571.566115 
L 330.662338 570.95788 
L 333.37987 565.037007 
L 336.097403 563.633908 
L 338.814935 566.572202 
L 341.532468 560.826779 
L 344.25 567.443444 
L 346.967532 560.448781 
L 349.685065 560.018113 
L 352.402597 563.461252 
L 355.12013 554.804293 
L 357.837662 563.094854 
L 360.555195 557.99213 
L 363.272727 558.716881 
L 365.99026 549.172 
L 368.707792 545.633261 
L 371.425325 552.601843 
L 374.142857 545.732926 
L 376.86039 541.590017 
L 379.577922 546.274351 
L 382.295455 545.611414 
L 385.012987 536.263153 
L 387.730519 540.153386 
L 390.448052 531.027148 
L 393.165584 528.086483 
L 395.883117 533.95401 
L 398.600649 536.889594 
L 401.318182 530.690726 
L 404.035714 527.316261 
L 406.753247 524.743857 
L 409.470779 521.459064 
L 412.188312 523.211795 
L 414.905844 533.221723 
L 417.623377 521.790067 
L 420.340909 526.579909 
L 423.058442 516.621888 
L 425.775974 539.799774 
L 428.493506 532.724838 
L 431.211039 531.392529 
L 433.928571 523.954497 
L 436.646104 509.538653 
L 439.363636 518.485969 
L 442.081169 518.644823 
L 444.798701 512.723949 
L 447.516234 510.419379 
L 450.233766 512.182355 
L 452.951299 518.097132 
L 455.668831 509.96822 
L 458.386364 507.328074 
L 461.103896 512.299379 
L 463.821429 512.246456 
L 466.538961 497.907414 
L 469.256494 502.892351 
L 471.974026 499.286718 
L 474.691558 489.430225 
L 477.409091 497.832813 
L 480.126623 483.789125 
L 482.844156 487.190094 
L 485.561688 485.615608 
L 488.279221 491.267971 
L 490.996753 484.881458 
L 493.714286 476.442036 
L 496.431818 473.531601 
L 499.149351 480.782581 
L 501.866883 477.659268 
L 504.584416 481.860774 
L 507.301948 474.248138 
L 510.019481 462.14711 
L 512.737013 465.755453 
L 515.454545 463.155529 
L 518.172078 460.269566 
L 520.88961 457.201717 
L 523.607143 464.775486 
L 526.324675 453.010372 
L 529.042208 458.764601 
L 531.75974 437.484412 
L 534.477273 434.028572 
L 537.194805 444.105988 
L 539.912338 422.412405 
L 542.62987 442.877154 
L 545.347403 439.499048 
L 548.064935 436.729093 
L 550.782468 433.436002 
L 553.5 434.56153 
L 556.217532 423.004552 
L 558.935065 407.654635 
L 561.652597 415.469226 
L 564.37013 409.541071 
L 567.087662 395.911538 
L 569.805195 399.74817 
L 572.522727 412.056487 
L 575.24026 408.235181 
L 577.957792 399.209624 
L 580.675325 382.980082 
L 583.392857 392.361706 
L 586.11039 393.489943 
L 588.827922 384.692421 
L 591.545455 374.785122 
L 594.262987 380.771451 
L 596.980519 375.930125 
L 599.698052 365.594021 
L 602.415584 375.316216 
L 605.133117 363.780916 
L 607.850649 359.848091 
L 610.568182 353.054112 
L 613.285714 358.665068 
L 616.003247 350.469853 
L 618.720779 362.311769 
L 621.438312 360.689696 
L 624.155844 348.823647 
L 626.873377 365.363361 
L 629.590909 350.568926 
L 632.308442 345.776882 
L 635.025974 330.338478 
L 637.743506 348.408306 
L 643.178571 326.825227 
L 645.896104 320.782588 
L 648.613636 323.319513 
L 651.331169 327.36589 
L 654.048701 329.155201 
L 656.766234 324.208368 
L 659.483766 318.332458 
L 662.201299 322.669193 
L 664.918831 328.991435 
L 667.636364 310.288308 
L 670.353896 301.738043 
L 673.071429 310.726596 
L 675.788961 310.344279 
L 678.506494 307.872302 
L 681.224026 310.662241 
L 683.941558 307.074644 
L 686.659091 304.589796 
L 689.376623 309.226457 
L 692.094156 292.445922 
L 694.811688 291.313536 
L 697.529221 296.399663 
L 700.246753 294.010669 
L 702.964286 312.015211 
L 705.681818 292.670485 
L 708.399351 286.548928 
L 711.116883 285.108063 
L 713.834416 272.2822 
L 716.551948 292.527297 
L 719.269481 282.643199 
L 721.987013 293.996782 
L 724.704545 281.57576 
L 727.422078 288.338746 
L 730.13961 284.447074 
L 732.857143 265.65783 
L 735.574675 280.511962 
L 738.292208 278.223819 
L 741.00974 270.364095 
L 746.444805 259.699698 
L 749.162338 267.857739 
L 751.87987 257.884815 
L 754.597403 256.369519 
L 757.314935 251.576883 
L 760.032468 242.549632 
L 762.75 244.706526 
L 765.467532 237.869786 
L 768.185065 253.913716 
L 770.902597 249.063076 
L 773.62013 236.490651 
L 776.337662 236.449752 
L 779.055195 224.856532 
L 781.772727 222.159738 
L 784.49026 223.336664 
L 787.207792 218.422516 
L 789.925325 225.934302 
L 795.36039 215.306062 
L 798.077922 217.693362 
L 800.795455 214.686395 
L 803.512987 205.871261 
L 806.230519 206.278473 
L 808.948052 198.761776 
L 811.665584 214.25522 
L 814.383117 211.107605 
L 817.100649 208.312669 
L 819.818182 193.353537 
L 822.535714 191.0416 
L 825.253247 197.288226 
L 827.970779 185.688401 
L 830.688312 186.842211 
L 833.405844 183.151054 
L 836.123377 184.602842 
L 838.840909 173.992384 
L 841.558442 174.88107 
L 844.275974 175.535962 
L 846.993506 170.074377 
L 849.711039 162.642273 
L 852.428571 166.299305 
L 855.146104 159.729721 
L 857.863636 156.634944 
L 860.581169 162.485535 
L 863.298701 153.285543 
L 866.016234 155.781061 
L 868.733766 153.245406 
L 871.451299 151.697679 
L 874.168831 152.432761 
L 876.886364 152.993746 
L 879.603896 147.866382 
L 882.321429 148.340404 
L 887.756494 144.089362 
L 890.474026 139.065981 
L 893.191558 138.743022 
L 895.909091 130.989568 
L 898.626623 132.061241 
L 901.344156 130.316894 
L 904.061688 130.579139 
L 906.779221 124.387807 
L 909.496753 123.309529 
L 912.214286 122.873273 
L 914.931818 115.392479 
L 917.649351 121.199885 
L 920.366883 119.499232 
L 923.084416 119.977318 
L 925.801948 117.950827 
L 928.519481 124.337255 
L 931.237013 111.109091 
L 931.237013 111.109091 
" style="fill:none;stroke:#1f77b4;stroke-linecap:square;stroke-width:1.5;"/>
   </g>
   <g id="line2d_124">
    <path clip-path="url(#pe06d34be84)" d="M 173.045455 604.298028 
L 208.373377 604.298028 
L 211.090909 603.436947 
L 213.808442 604.427584 
L 216.525974 604.657271 
L 219.243506 604.315684 
L 221.961039 604.327496 
L 224.678571 548.051299 
L 227.396104 604.298028 
L 232.831169 604.298028 
L 235.548701 603.250827 
L 238.266234 582.817663 
L 240.983766 604.315684 
L 243.701299 594.778211 
L 246.418831 604.445282 
L 249.136364 592.634866 
L 251.853896 595.008702 
L 254.571429 604.298028 
L 257.288961 603.860248 
L 260.006494 524.471281 
L 262.724026 602.367815 
L 265.441558 604.298028 
L 268.159091 603.965163 
L 270.876623 604.298028 
L 273.594156 604.298028 
L 276.311688 599.132982 
L 279.029221 586.765391 
L 281.746753 551.821375 
L 284.464286 578.630129 
L 287.181818 598.402558 
L 289.899351 534.29619 
L 292.616883 584.591393 
L 295.334416 559.392265 
L 298.051948 522.940489 
L 300.769481 520.52152 
L 303.487013 547.373713 
L 306.204545 596.198415 
L 308.922078 597.686529 
L 311.63961 580.537479 
L 314.357143 603.588181 
L 317.074675 552.058217 
L 319.792208 573.608272 
L 322.50974 601.256175 
L 325.227273 602.880619 
L 327.944805 604.298028 
L 330.662338 604.745631 
L 333.37987 550.543852 
L 336.097403 604.91054 
L 338.814935 602.08982 
L 341.532468 603.499439 
L 344.25 604.309798 
L 346.967532 576.6265 
L 349.685065 599.967305 
L 352.402597 600.358005 
L 355.12013 604.315684 
L 357.837662 581.579176 
L 360.555195 581.713389 
L 363.272727 555.979442 
L 365.99026 556.367347 
L 368.707792 590.675269 
L 371.425325 605.290909 
L 374.142857 601.046684 
L 376.86039 559.56145 
L 379.577922 566.212663 
L 382.295455 529.546908 
L 385.012987 598.850584 
L 387.730519 576.757242 
L 390.448052 583.380511 
L 393.165584 543.649871 
L 395.883117 564.149761 
L 398.600649 562.890189 
L 401.318182 553.332352 
L 404.035714 519.908628 
L 406.753247 553.563944 
L 409.470779 523.254557 
L 412.188312 580.445605 
L 414.905844 555.161969 
L 417.623377 566.786265 
L 420.340909 567.419226 
L 423.058442 501.536672 
L 425.775974 535.156424 
L 428.493506 604.309798 
L 431.211039 596.101798 
L 433.928571 559.710228 
L 436.646104 467.783299 
L 439.363636 516.903947 
L 442.081169 500.759082 
L 444.798701 473.444129 
L 447.516234 604.191928 
L 450.233766 452.330754 
L 452.951299 458.987725 
L 455.668831 475.011502 
L 458.386364 561.223915 
L 461.103896 520.365968 
L 463.821429 512.849695 
L 466.538961 572.044371 
L 469.256494 547.650099 
L 471.974026 494.231498 
L 474.691558 504.320684 
L 477.409091 499.968284 
L 482.844156 547.304278 
L 485.561688 477.903138 
L 488.279221 525.0785 
L 490.996753 485.709007 
L 493.714286 546.171892 
L 496.431818 600.991644 
L 499.149351 569.311758 
L 501.866883 586.752097 
L 504.584416 504.911899 
L 507.301948 473.649387 
L 510.019481 455.433067 
L 512.737013 559.548918 
L 515.454545 509.661435 
L 518.172078 472.928446 
L 520.88961 523.686579 
L 523.607143 560.107532 
L 526.324675 505.308272 
L 529.042208 478.194851 
L 531.75974 538.272201 
L 534.477273 538.416151 
L 537.194805 475.378492 
L 539.912338 546.995969 
L 542.62987 462.683201 
L 545.347403 528.216716 
L 548.064935 518.980483 
L 550.782468 535.232718 
L 553.5 466.561494 
L 556.217532 434.496244 
L 558.935065 511.412471 
L 561.652597 460.116047 
L 564.37013 458.041713 
L 567.087662 425.446553 
L 569.805195 461.014555 
L 572.522727 404.703301 
L 575.24026 496.824479 
L 577.957792 512.703627 
L 580.675325 451.224279 
L 583.392857 462.335009 
L 586.11039 404.843781 
L 588.827922 490.276657 
L 591.545455 460.818019 
L 594.262987 453.150089 
L 596.980519 449.449872 
L 599.698052 485.079349 
L 602.415584 407.125912 
L 605.133117 463.716515 
L 607.850649 412.954148 
L 610.568182 479.902448 
L 613.285714 496.949039 
L 616.003247 465.757909 
L 618.720779 453.790332 
L 621.438312 443.67405 
L 624.155844 515.757335 
L 626.873377 502.571933 
L 629.590909 398.126435 
L 632.308442 447.680799 
L 635.025974 384.782941 
L 637.743506 546.620341 
L 640.461039 513.549551 
L 643.178571 444.385507 
L 645.896104 408.289798 
L 648.613636 422.74146 
L 651.331169 394.55391 
L 654.048701 428.014554 
L 656.766234 388.37147 
L 659.483766 407.562253 
L 662.201299 343.925672 
L 664.918831 426.469029 
L 667.636364 379.195695 
L 670.353896 326.69601 
L 673.071429 409.34335 
L 675.788961 441.673386 
L 678.506494 414.05622 
L 681.224026 384.554398 
L 683.941558 414.417283 
L 686.659091 343.405078 
L 689.376623 432.802957 
L 692.094156 473.109909 
L 694.811688 376.675283 
L 697.529221 405.597745 
L 700.246753 401.032721 
L 702.964286 424.41959 
L 705.681818 441.824195 
L 708.399351 395.402036 
L 711.116883 419.665567 
L 713.834416 418.175166 
L 716.551948 417.019155 
L 719.269481 385.28804 
L 721.987013 386.61603 
L 724.704545 397.982484 
L 727.422078 429.108666 
L 730.13961 408.118496 
L 732.857143 446.834621 
L 735.574675 455.80988 
L 738.292208 398.938573 
L 741.00974 438.57048 
L 743.727273 395.055283 
L 746.444805 425.439949 
L 749.162338 433.810275 
L 751.87987 423.111499 
L 754.597403 419.494011 
L 757.314935 383.633535 
L 760.032468 357.669773 
L 762.75 407.018795 
L 765.467532 384.400116 
L 768.185065 415.600391 
L 770.902597 315.04792 
L 773.62013 358.820281 
L 776.337662 388.679186 
L 779.055195 411.079653 
L 781.772727 376.223023 
L 787.207792 420.402003 
L 789.925325 384.751018 
L 792.642857 421.584603 
L 795.36039 428.120062 
L 798.077922 415.681003 
L 800.795455 363.996165 
L 803.512987 404.731922 
L 806.230519 391.993869 
L 808.948052 406.52987 
L 811.665584 393.427113 
L 814.383117 423.128689 
L 817.100649 375.331628 
L 819.818182 411.671037 
L 822.535714 432.948771 
L 825.253247 396.354483 
L 827.970779 406.942417 
L 830.688312 431.161831 
L 833.405844 396.671599 
L 836.123377 425.879507 
L 838.840909 438.137526 
L 841.558442 455.288185 
L 844.275974 454.178238 
L 846.993506 416.065014 
L 849.711039 420.700828 
L 852.428571 433.738892 
L 855.146104 413.693887 
L 857.863636 409.472228 
L 860.581169 415.788882 
L 863.298701 395.935247 
L 866.016234 408.625627 
L 868.733766 402.709834 
L 871.451299 408.9264 
L 874.168831 416.583915 
L 876.886364 426.095434 
L 879.603896 422.865258 
L 882.321429 423.670537 
L 885.038961 423.378147 
L 887.756494 399.676872 
L 890.474026 417.890228 
L 893.191558 424.41578 
L 895.909091 422.844936 
L 898.626623 421.833468 
L 901.344156 435.04512 
L 904.061688 421.857347 
L 906.779221 399.018762 
L 909.496753 407.512632 
L 912.214286 395.297036 
L 914.931818 420.97442 
L 917.649351 399.756553 
L 920.366883 401.746379 
L 923.084416 397.843529 
L 928.519481 401.964676 
L 931.237013 398.399603 
L 931.237013 398.399603 
" style="fill:none;stroke:#ff7f0e;stroke-linecap:square;stroke-width:1.5;"/>
   </g>
   <g id="patch_3">
    <path d="M 135 630 
L 135 86.4 
" style="fill:none;stroke:#000000;stroke-linecap:square;stroke-linejoin:miter;stroke-width:0.8;"/>
   </g>
   <g id="patch_4">
    <path d="M 972 630 
L 972 86.4 
" style="fill:none;stroke:#000000;stroke-linecap:square;stroke-linejoin:miter;stroke-width:0.8;"/>
   </g>
   <g id="patch_5">
    <path d="M 135 630 
L 972 630 
" style="fill:none;stroke:#000000;stroke-linecap:square;stroke-linejoin:miter;stroke-width:0.8;"/>
   </g>
   <g id="patch_6">
    <path d="M 135 86.4 
L 972 86.4 
" style="fill:none;stroke:#000000;stroke-linecap:square;stroke-linejoin:miter;stroke-width:0.8;"/>
   </g>
   <g id="text_25">
    <!-- Metric: auc -->
    <g transform="translate(520.14 80.4)scale(0.12 -0.12)">
     <defs>
      <path d="M 9.8125 72.90625 
L 24.515625 72.90625 
L 43.109375 23.296875 
L 61.8125 72.90625 
L 76.515625 72.90625 
L 76.515625 0 
L 66.890625 0 
L 66.890625 64.015625 
L 48.09375 14.015625 
L 38.1875 14.015625 
L 19.390625 64.015625 
L 19.390625 0 
L 9.8125 0 
z
" id="DejaVuSans-77"/>
      <path d="M 56.203125 29.59375 
L 56.203125 25.203125 
L 14.890625 25.203125 
Q 15.484375 15.921875 20.484375 11.0625 
Q 25.484375 6.203125 34.421875 6.203125 
Q 39.59375 6.203125 44.453125 7.46875 
Q 49.3125 8.734375 54.109375 11.28125 
L 54.109375 2.78125 
Q 49.265625 0.734375 44.1875 -0.34375 
Q 39.109375 -1.421875 33.890625 -1.421875 
Q 20.796875 -1.421875 13.15625 6.1875 
Q 5.515625 13.8125 5.515625 26.8125 
Q 5.515625 40.234375 12.765625 48.109375 
Q 20.015625 56 32.328125 56 
Q 43.359375 56 49.78125 48.890625 
Q 56.203125 41.796875 56.203125 29.59375 
z
M 47.21875 32.234375 
Q 47.125 39.59375 43.09375 43.984375 
Q 39.0625 48.390625 32.421875 48.390625 
Q 24.90625 48.390625 20.390625 44.140625 
Q 15.875 39.890625 15.1875 32.171875 
z
" id="DejaVuSans-101"/>
      <path d="M 18.3125 70.21875 
L 18.3125 54.6875 
L 36.8125 54.6875 
L 36.8125 47.703125 
L 18.3125 47.703125 
L 18.3125 18.015625 
Q 18.3125 11.328125 20.140625 9.421875 
Q 21.96875 7.515625 27.59375 7.515625 
L 36.8125 7.515625 
L 36.8125 0 
L 27.59375 0 
Q 17.1875 0 13.234375 3.875 
Q 9.28125 7.765625 9.28125 18.015625 
L 9.28125 47.703125 
L 2.6875 47.703125 
L 2.6875 54.6875 
L 9.28125 54.6875 
L 9.28125 70.21875 
z
" id="DejaVuSans-116"/>
      <path d="M 41.109375 46.296875 
Q 39.59375 47.171875 37.8125 47.578125 
Q 36.03125 48 33.890625 48 
Q 26.265625 48 22.1875 43.046875 
Q 18.109375 38.09375 18.109375 28.8125 
L 18.109375 0 
L 9.078125 0 
L 9.078125 54.6875 
L 18.109375 54.6875 
L 18.109375 46.1875 
Q 20.953125 51.171875 25.484375 53.578125 
Q 30.03125 56 36.53125 56 
Q 37.453125 56 38.578125 55.875 
Q 39.703125 55.765625 41.0625 55.515625 
z
" id="DejaVuSans-114"/>
      <path d="M 9.421875 54.6875 
L 18.40625 54.6875 
L 18.40625 0 
L 9.421875 0 
z
M 9.421875 75.984375 
L 18.40625 75.984375 
L 18.40625 64.59375 
L 9.421875 64.59375 
z
" id="DejaVuSans-105"/>
      <path d="M 11.71875 12.40625 
L 22.015625 12.40625 
L 22.015625 0 
L 11.71875 0 
z
M 11.71875 51.703125 
L 22.015625 51.703125 
L 22.015625 39.3125 
L 11.71875 39.3125 
z
" id="DejaVuSans-58"/>
      <path id="DejaVuSans-32"/>
      <path d="M 34.28125 27.484375 
Q 23.390625 27.484375 19.1875 25 
Q 14.984375 22.515625 14.984375 16.5 
Q 14.984375 11.71875 18.140625 8.90625 
Q 21.296875 6.109375 26.703125 6.109375 
Q 34.1875 6.109375 38.703125 11.40625 
Q 43.21875 16.703125 43.21875 25.484375 
L 43.21875 27.484375 
z
M 52.203125 31.203125 
L 52.203125 0 
L 43.21875 0 
L 43.21875 8.296875 
Q 40.140625 3.328125 35.546875 0.953125 
Q 30.953125 -1.421875 24.3125 -1.421875 
Q 15.921875 -1.421875 10.953125 3.296875 
Q 6 8.015625 6 15.921875 
Q 6 25.140625 12.171875 29.828125 
Q 18.359375 34.515625 30.609375 34.515625 
L 43.21875 34.515625 
L 43.21875 35.40625 
Q 43.21875 41.609375 39.140625 45 
Q 35.0625 48.390625 27.6875 48.390625 
Q 23 48.390625 18.546875 47.265625 
Q 14.109375 46.140625 10.015625 43.890625 
L 10.015625 52.203125 
Q 14.9375 54.109375 19.578125 55.046875 
Q 24.21875 56 28.609375 56 
Q 40.484375 56 46.34375 49.84375 
Q 52.203125 43.703125 52.203125 31.203125 
z
" id="DejaVuSans-97"/>
      <path d="M 8.5 21.578125 
L 8.5 54.6875 
L 17.484375 54.6875 
L 17.484375 21.921875 
Q 17.484375 14.15625 20.5 10.265625 
Q 23.53125 6.390625 29.59375 6.390625 
Q 36.859375 6.390625 41.078125 11.03125 
Q 45.3125 15.671875 45.3125 23.6875 
L 45.3125 54.6875 
L 54.296875 54.6875 
L 54.296875 0 
L 45.3125 0 
L 45.3125 8.40625 
Q 42.046875 3.421875 37.71875 1 
Q 33.40625 -1.421875 27.6875 -1.421875 
Q 18.265625 -1.421875 13.375 4.4375 
Q 8.5 10.296875 8.5 21.578125 
z
M 31.109375 56 
z
" id="DejaVuSans-117"/>
     </defs>
     <use xlink:href="#DejaVuSans-77"/>
     <use x="86.279297" xlink:href="#DejaVuSans-101"/>
     <use x="147.802734" xlink:href="#DejaVuSans-116"/>
     <use x="187.011719" xlink:href="#DejaVuSans-114"/>
     <use x="228.125" xlink:href="#DejaVuSans-105"/>
     <use x="255.908203" xlink:href="#DejaVuSans-99"/>
     <use x="310.888672" xlink:href="#DejaVuSans-58"/>
     <use x="344.580078" xlink:href="#DejaVuSans-32"/>
     <use x="376.367188" xlink:href="#DejaVuSans-97"/>
     <use x="437.646484" xlink:href="#DejaVuSans-117"/>
     <use x="501.025391" xlink:href="#DejaVuSans-99"/>
    </g>
   </g>
   <g id="legend_1">
    <g id="patch_7">
     <path d="M 142 139.26875 
L 220.915625 139.26875 
Q 222.915625 139.26875 222.915625 137.26875 
L 222.915625 93.4 
Q 222.915625 91.4 220.915625 91.4 
L 142 91.4 
Q 140 91.4 140 93.4 
L 140 137.26875 
Q 140 139.26875 142 139.26875 
z
" style="fill:#ffffff;opacity:0.8;stroke:#cccccc;stroke-linejoin:miter;"/>
    </g>
    <g id="line2d_125">
     <path d="M 144 99.498437 
L 164 99.498437 
" style="fill:none;stroke:#1f77b4;stroke-linecap:square;stroke-width:1.5;"/>
    </g>
    <g id="line2d_126"/>
    <g id="text_26">
     <!-- auc_train -->
     <g transform="translate(172 102.998437)scale(0.1 -0.1)">
      <defs>
       <path d="M 50.984375 -16.609375 
L 50.984375 -23.578125 
L -0.984375 -23.578125 
L -0.984375 -16.609375 
z
" id="DejaVuSans-95"/>
       <path d="M 54.890625 33.015625 
L 54.890625 0 
L 45.90625 0 
L 45.90625 32.71875 
Q 45.90625 40.484375 42.875 44.328125 
Q 39.84375 48.1875 33.796875 48.1875 
Q 26.515625 48.1875 22.3125 43.546875 
Q 18.109375 38.921875 18.109375 30.90625 
L 18.109375 0 
L 9.078125 0 
L 9.078125 54.6875 
L 18.109375 54.6875 
L 18.109375 46.1875 
Q 21.34375 51.125 25.703125 53.5625 
Q 30.078125 56 35.796875 56 
Q 45.21875 56 50.046875 50.171875 
Q 54.890625 44.34375 54.890625 33.015625 
z
" id="DejaVuSans-110"/>
      </defs>
      <use xlink:href="#DejaVuSans-97"/>
      <use x="61.279297" xlink:href="#DejaVuSans-117"/>
      <use x="124.658203" xlink:href="#DejaVuSans-99"/>
      <use x="179.638672" xlink:href="#DejaVuSans-95"/>
      <use x="229.638672" xlink:href="#DejaVuSans-116"/>
      <use x="268.847656" xlink:href="#DejaVuSans-114"/>
      <use x="309.960938" xlink:href="#DejaVuSans-97"/>
      <use x="371.240234" xlink:href="#DejaVuSans-105"/>
      <use x="399.023438" xlink:href="#DejaVuSans-110"/>
     </g>
    </g>
    <g id="line2d_127">
     <path d="M 144 114.454687 
L 164 114.454687 
" style="fill:none;stroke:#ff7f0e;stroke-linecap:square;stroke-width:1.5;"/>
    </g>
    <g id="line2d_128"/>
    <g id="text_27">
     <!-- auc_valid -->
     <g transform="translate(172 117.954687)scale(0.1 -0.1)">
      <defs>
       <path d="M 2.984375 54.6875 
L 12.5 54.6875 
L 29.59375 8.796875 
L 46.6875 54.6875 
L 56.203125 54.6875 
L 35.6875 0 
L 23.484375 0 
z
" id="DejaVuSans-118"/>
       <path d="M 9.421875 75.984375 
L 18.40625 75.984375 
L 18.40625 0 
L 9.421875 0 
z
" id="DejaVuSans-108"/>
       <path d="M 45.40625 46.390625 
L 45.40625 75.984375 
L 54.390625 75.984375 
L 54.390625 0 
L 45.40625 0 
L 45.40625 8.203125 
Q 42.578125 3.328125 38.25 0.953125 
Q 33.9375 -1.421875 27.875 -1.421875 
Q 17.96875 -1.421875 11.734375 6.484375 
Q 5.515625 14.40625 5.515625 27.296875 
Q 5.515625 40.1875 11.734375 48.09375 
Q 17.96875 56 27.875 56 
Q 33.9375 56 38.25 53.625 
Q 42.578125 51.265625 45.40625 46.390625 
z
M 14.796875 27.296875 
Q 14.796875 17.390625 18.875 11.75 
Q 22.953125 6.109375 30.078125 6.109375 
Q 37.203125 6.109375 41.296875 11.75 
Q 45.40625 17.390625 45.40625 27.296875 
Q 45.40625 37.203125 41.296875 42.84375 
Q 37.203125 48.484375 30.078125 48.484375 
Q 22.953125 48.484375 18.875 42.84375 
Q 14.796875 37.203125 14.796875 27.296875 
z
" id="DejaVuSans-100"/>
      </defs>
      <use xlink:href="#DejaVuSans-97"/>
      <use x="61.279297" xlink:href="#DejaVuSans-117"/>
      <use x="124.658203" xlink:href="#DejaVuSans-99"/>
      <use x="179.638672" xlink:href="#DejaVuSans-95"/>
      <use x="229.638672" xlink:href="#DejaVuSans-118"/>
      <use x="288.818359" xlink:href="#DejaVuSans-97"/>
      <use x="350.097656" xlink:href="#DejaVuSans-108"/>
      <use x="377.880859" xlink:href="#DejaVuSans-105"/>
      <use x="405.664062" xlink:href="#DejaVuSans-100"/>
     </g>
    </g>
    <g id="line2d_129">
     <path d="M 144 129.410937 
L 164 129.410937 
" style="fill:none;stroke:#008000;stroke-dasharray:3.7,1.6;stroke-dashoffset:0;"/>
    </g>
    <g id="text_28">
     <!-- auc_test -->
     <g transform="translate(172 132.910937)scale(0.1 -0.1)">
      <use xlink:href="#DejaVuSans-97"/>
      <use x="61.279297" xlink:href="#DejaVuSans-117"/>
      <use x="124.658203" xlink:href="#DejaVuSans-99"/>
      <use x="179.638672" xlink:href="#DejaVuSans-95"/>
      <use x="229.638672" xlink:href="#DejaVuSans-116"/>
      <use x="268.847656" xlink:href="#DejaVuSans-101"/>
      <use x="330.371094" xlink:href="#DejaVuSans-115"/>
      <use x="382.470703" xlink:href="#DejaVuSans-116"/>
     </g>
    </g>
   </g>
  </g>
 </g>
 <defs>
  <clipPath id="pe06d34be84">
   <rect height="543.6" width="837" x="135" y="86.4"/>
  </clipPath>
 </defs>
</svg>
